# Blender v2.79 (sub 0) OBJ File: ''
# www.blender.org
o Plane_Plane.003
v -4.488811 -4.000000 0.000000
v 3.511189 -4.000000 0.000000
v -4.488811 4.000000 0.000000
v 3.511189 4.000000 0.000000
v 1.721188 -0.759634 -0.000000
v 0.266646 0.300634 0.000000
v 2.090742 0.300634 0.000000
v -2.596671 0.597124 0.000000
v -2.979354 2.521004 0.000000
v -2.997614 2.508802 0.000000
v -3.520551 1.979808 0.000000
v -3.303778 2.304231 0.000000
v -3.596671 1.597124 0.000000
v -2.667367 2.583062 0.000000
v -2.596671 2.597124 0.000000
v -1.672792 1.214440 0.000000
v -1.596671 1.597124 0.000000
v -1.672792 1.979807 0.000000
v -1.684992 1.196181 0.000000
v -1.889564 2.304231 0.000000
v -1.889564 0.890017 0.000000
v -2.979355 0.673244 0.000000
v -3.520551 1.214440 0.000000
v -2.213988 0.673244 0.000000
v -1.632681 1.778159 0.000000
v -3.303778 0.890017 0.000000
v -2.213988 2.521003 0.000000
v -3.070486 -0.000685 -0.000000
v -2.937418 0.038580 -0.000000
v -2.760297 0.051178 0.000000
v -2.822794 0.047738 0.000000
v -2.913378 0.042751 -0.000000
v -2.732320 0.049989 0.000000
v -2.554080 0.024896 0.000000
v -2.113139 -0.140339 0.000000
v -2.300524 -0.054016 0.000000
v -2.332617 -0.041461 0.000000
v -2.523241 0.017840 -0.000000
v -2.532043 0.019854 0.000000
v -3.091810 -0.010427 0.000000
v -3.208659 -0.084379 0.000000
v -3.226067 -0.099500 -0.000000
v -3.230718 -0.104970 0.000000
v -3.315637 -0.204855 0.000000
v -2.081465 -0.157257 0.000000
v -3.328267 -0.224607 0.000000
v -3.385761 -0.350872 0.000000
v -3.425838 -0.732355 -0.000000
v -3.425826 -0.709022 0.000000
v -3.425750 -0.552357 0.000000
v -3.423166 -0.763877 -0.000000
v -3.423013 -0.524488 -0.000000
v -3.393254 -0.374092 -0.000000
v -1.442726 -0.633375 0.000000
v -1.412224 -0.662994 -0.000000
v -1.631657 -0.464296 0.000000
v -1.664146 -0.437760 -0.000000
v -1.860491 -0.292148 -0.000000
v -1.893356 -0.270008 -0.000000
v -1.244655 -0.840757 -0.000000
v -1.217478 -0.871909 0.000000
v -3.311592 -1.225804 0.000000
v -3.323913 -1.192075 0.000000
v -0.896167 -1.311141 0.000000
v -1.038375 -1.098587 -0.000000
v -1.063608 -1.064319 -0.000000
v -3.226265 -1.427836 -0.000000
v -3.231133 -1.416310 0.000000
v -3.327781 -1.179174 0.000000
v -3.383173 -0.994456 0.000000
v -3.391115 -0.960923 0.000000
v -0.756711 -1.563670 -0.000000
v -0.874436 -1.347023 0.000000
v -3.208942 -1.463475 0.000000
v -0.543259 -2.261461 0.000000
v -0.540587 -2.292984 -0.000000
v -0.575034 -2.066110 0.000000
v -0.582718 -2.032675 0.000000
v -0.641479 -1.836720 0.000000
v -0.653562 -1.803045 0.000000
v -0.739614 -1.599298 0.000000
v -2.724835 -2.181271 -0.000000
v -2.751878 -2.150002 0.000000
v -2.904452 -1.959213 -0.000000
v -2.929513 -1.924867 0.000000
v -3.070498 -1.714141 0.000000
v -3.092229 -1.678259 0.000000
v -0.543146 -2.499480 -0.000000
v -0.572655 -2.648608 -0.000000
v -0.579898 -2.672032 0.000000
v -2.071449 -2.756193 -0.000000
v -1.881743 -2.869902 0.000000
v -0.540674 -2.471432 0.000000
v -0.637881 -2.799371 0.000000
v -0.650264 -2.819360 0.000000
v -2.104334 -2.734280 -0.000000
v -2.302382 -2.587405 0.000000
v -2.334872 -2.560868 0.000000
v -2.525441 -2.390323 -0.000000
v -2.555842 -2.360544 0.000000
v -0.740612 -2.925630 0.000000
v -0.758019 -2.940751 0.000000
v -0.875883 -3.015344 0.000000
v -0.897408 -3.024808 0.000000
v -1.031607 -3.064408 -0.000000
v -1.055813 -3.068302 0.000000
v -1.664282 -2.972174 0.000000
v -1.850089 -2.886577 -0.000000
v -1.207606 -3.076659 0.000000
v -1.632252 -2.984459 0.000000
v -1.443265 -3.043250 -0.000000
v -1.235721 -3.075183 0.000000
v -1.412430 -3.050305 0.000000
vn 0.0000 0.0000 1.0000
s off
f 26//1 23//1 1//1
f 2//1 5//1 6//1
f 27//1 20//1 4//1
f 9//1 3//1 10//1
f 2//1 94//1 95//1
f 2//1 19//1 21//1
f 2//1 21//1 24//1
f 12//1 10//1 3//1
f 11//1 12//1 3//1
f 1//1 62//1 63//1
f 13//1 11//1 3//1
f 23//1 13//1 1//1
f 13//1 3//1 1//1
f 1//1 51//1 48//1
f 47//1 46//1 26//1
f 2//1 4//1 7//1
f 2//1 7//1 5//1
f 16//1 19//1 6//1
f 19//1 2//1 6//1
f 6//1 25//1 17//1
f 17//1 16//1 6//1
f 4//1 3//1 27//1
f 3//1 14//1 15//1
f 3//1 15//1 27//1
f 6//1 7//1 4//1
f 18//1 25//1 6//1
f 20//1 18//1 4//1
f 18//1 6//1 4//1
f 9//1 14//1 3//1
f 28//1 29//1 22//1
f 34//1 39//1 8//1
f 24//1 39//1 38//1
f 24//1 38//1 37//1
f 67//1 68//1 1//1
f 74//1 67//1 1//1
f 24//1 37//1 36//1
f 24//1 36//1 35//1
f 87//1 74//1 1//1
f 86//1 87//1 1//1
f 24//1 35//1 45//1
f 24//1 45//1 59//1
f 85//1 86//1 1//1
f 84//1 85//1 1//1
f 24//1 59//1 58//1
f 24//1 58//1 57//1
f 83//1 84//1 1//1
f 82//1 83//1 1//1
f 2//1 24//1 61//1
f 24//1 57//1 56//1
f 24//1 56//1 54//1
f 100//1 82//1 1//1
f 99//1 100//1 1//1
f 24//1 54//1 55//1
f 24//1 55//1 60//1
f 98//1 99//1 1//1
f 97//1 98//1 1//1
f 24//1 60//1 61//1
f 96//1 97//1 1//1
f 91//1 96//1 1//1
f 2//1 61//1 66//1
f 2//1 66//1 65//1
f 92//1 91//1 1//1
f 108//1 92//1 1//1
f 2//1 65//1 64//1
f 2//1 64//1 73//1
f 107//1 108//1 1//1
f 110//1 107//1 1//1
f 2//1 73//1 72//1
f 2//1 72//1 81//1
f 111//1 110//1 1//1
f 113//1 111//1 1//1
f 2//1 81//1 80//1
f 2//1 80//1 79//1
f 113//1 1//1 112//1
f 1//1 2//1 106//1
f 112//1 1//1 109//1
f 109//1 1//1 106//1
f 2//1 79//1 78//1
f 2//1 78//1 77//1
f 2//1 77//1 75//1
f 2//1 75//1 76//1
f 105//1 106//1 2//1
f 104//1 105//1 2//1
f 2//1 76//1 93//1
f 2//1 93//1 88//1
f 103//1 104//1 2//1
f 102//1 103//1 2//1
f 2//1 88//1 89//1
f 2//1 89//1 90//1
f 101//1 102//1 2//1
f 95//1 101//1 2//1
f 2//1 90//1 94//1
f 1//1 68//1 62//1
f 63//1 69//1 1//1
f 1//1 69//1 70//1
f 1//1 70//1 71//1
f 48//1 49//1 1//1
f 1//1 71//1 51//1
f 1//1 49//1 50//1
f 1//1 50//1 52//1
f 43//1 22//1 26//1
f 44//1 43//1 26//1
f 26//1 1//1 52//1
f 26//1 52//1 53//1
f 46//1 44//1 26//1
f 26//1 53//1 47//1
f 22//1 43//1 42//1
f 22//1 42//1 41//1
f 31//1 8//1 22//1
f 32//1 31//1 22//1
f 22//1 41//1 40//1
f 22//1 40//1 28//1
f 29//1 32//1 22//1
f 8//1 31//1 30//1
f 8//1 30//1 33//1
f 39//1 24//1 8//1
f 8//1 33//1 34//1
