# Blender v2.79 (sub 0) OBJ File: ''
# www.blender.org
o Plane_Plane.001
v -1.000000 -1.000000 0.000000
v 1.000000 -1.000000 0.000000
v -1.000000 1.000000 0.000000
v 1.000000 1.000000 0.000000
v -1.000000 0.000000 0.000000
v 0.000000 -1.000000 0.000000
v 1.000000 0.000000 0.000000
v 0.000000 1.000000 0.000000
v 0.000000 0.000000 0.000000
v -1.000000 -0.500000 0.000000
v 0.500000 -1.000000 0.000000
v 1.000000 0.500000 0.000000
v -0.500000 1.000000 0.000000
v 0.500000 -0.500000 0.000000
v -1.000000 0.500000 0.000000
v -0.500000 -1.000000 0.000000
v 1.000000 -0.500000 0.000000
v 0.500000 1.000000 0.000000
v -0.500000 0.500000 0.000000
v 0.000000 0.500000 0.000000
v 0.500000 0.000000 0.000000
v 0.500000 0.500000 0.000000
v -0.500000 -0.500000 0.000000
v 0.000000 -0.500000 0.000000
v -0.500000 0.000000 0.000000
vn 0.0000 0.0000 1.0000
s off
f 2//1 14//1 11//1
f 2//1 17//1 14//1
f 9//1 20//1 19//1
f 9//1 21//1 20//1
f 7//1 12//1 22//1
f 6//1 23//1 16//1
f 6//1 24//1 23//1
f 9//1 19//1 25//1
f 25//1 15//1 5//1
f 25//1 19//1 15//1
f 19//1 3//1 15//1
f 23//1 25//1 5//1
f 23//1 24//1 25//1
f 24//1 9//1 25//1
f 16//1 10//1 1//1
f 16//1 23//1 10//1
f 23//1 5//1 10//1
f 22//1 18//1 8//1
f 22//1 12//1 18//1
f 12//1 4//1 18//1
f 20//1 22//1 8//1
f 20//1 21//1 22//1
f 21//1 7//1 22//1
f 19//1 13//1 3//1
f 19//1 20//1 13//1
f 20//1 8//1 13//1
f 14//1 21//1 9//1
f 14//1 17//1 21//1
f 17//1 7//1 21//1
f 11//1 24//1 6//1
f 11//1 14//1 24//1
f 14//1 9//1 24//1
