# Blender v2.76 (sub 0) OBJ File: 'Manipulator.blend'
# www.blender.org
o Cone
v -0.042095 0.101627 0.880000
v -0.000000 -0.000000 1.080000
v -0.021460 0.107886 0.880000
v 0.107886 0.021460 0.880000
v 0.110000 -0.000000 0.880000
v 0.107886 -0.021460 0.880000
v 0.101627 -0.042095 0.880000
v 0.091462 -0.061113 0.880000
v 0.077782 -0.077782 0.880000
v 0.061113 -0.091462 0.880000
v 0.042095 -0.101627 0.880000
v 0.021460 -0.107886 0.880000
v -0.000000 -0.110000 0.880000
v -0.021460 -0.107886 0.880000
v -0.042095 -0.101627 0.880000
v -0.061113 -0.091462 0.880000
v -0.077782 -0.077782 0.880000
v -0.091462 -0.061113 0.880000
v -0.101627 -0.042095 0.880000
v -0.107886 -0.021460 0.880000
v -0.110000 0.000000 0.880000
v -0.050000 0.000000 0.880000
v -0.049039 -0.009754 0.880000
v -0.046194 -0.019134 0.880000
v -0.041574 -0.027778 0.880000
v -0.035355 -0.035355 0.880000
v -0.027779 -0.041573 0.880000
v -0.019134 -0.046194 0.880000
v -0.009755 -0.049039 0.880000
v -0.000000 -0.050000 0.880000
v 0.009755 -0.049039 0.880000
v 0.019134 -0.046194 0.880000
v 0.027779 -0.041573 0.880000
v 0.035355 -0.035355 0.880000
v 0.041573 -0.027779 0.880000
v 0.046194 -0.019134 0.880000
v 0.049039 -0.009755 0.880000
v 0.050000 -0.000000 0.880000
v -0.000000 0.110000 0.880000
v 0.021460 0.107886 0.880000
v 0.042095 0.101627 0.880000
v 0.061113 0.091462 0.880000
v 0.077782 0.077782 0.880000
v 0.091462 0.061113 0.880000
v 0.101627 0.042095 0.880000
v 0.049039 0.009755 0.880000
v 0.046194 0.019134 0.880000
v 0.041573 0.027778 0.880000
v 0.035355 0.035355 0.880000
v 0.027779 0.041573 0.880000
v 0.019134 0.046194 0.880000
v 0.009755 0.049039 0.880000
v -0.000000 0.050000 0.880000
v -0.009754 0.049039 0.880000
v -0.019134 0.046194 0.880000
v -0.027778 0.041574 0.880000
v -0.035355 0.035355 0.880000
v -0.041573 0.027779 0.880000
v -0.046194 0.019134 0.880000
v -0.049039 0.009755 0.880000
v -0.107886 0.021460 0.880000
v -0.101627 0.042095 0.880000
v -0.091462 0.061113 0.880000
v -0.077782 0.077782 0.880000
v -0.061113 0.091462 0.880000
v -0.000000 -0.000000 0.100000
v -0.000000 0.050000 0.100000
v 0.009755 0.049039 0.100000
v 0.019134 0.046194 0.100000
v -0.009754 0.049039 0.100000
v 0.027779 0.041573 0.100000
v -0.019134 0.046194 0.100000
v 0.035355 0.035355 0.100000
v -0.027778 0.041574 0.100000
v 0.041573 0.027778 0.100000
v -0.035355 0.035355 0.100000
v 0.046194 0.019134 0.100000
v -0.041573 0.027779 0.100000
v 0.049039 0.009755 0.100000
v -0.046194 0.019134 0.100000
v 0.050000 -0.000000 0.100000
v -0.049039 0.009755 0.100000
v 0.049039 -0.009755 0.100000
v -0.050000 0.000000 0.100000
v 0.046194 -0.019134 0.100000
v -0.049039 -0.009754 0.100000
v 0.041573 -0.027779 0.100000
v -0.046194 -0.019134 0.100000
v 0.035355 -0.035355 0.100000
v -0.041574 -0.027778 0.100000
v 0.027779 -0.041573 0.100000
v -0.035355 -0.035355 0.100000
v 0.019134 -0.046194 0.100000
v -0.027779 -0.041573 0.100000
v 0.009755 -0.049039 0.100000
v -0.019134 -0.046194 0.100000
v -0.000000 -0.050000 0.100000
v -0.009755 -0.049039 0.100000
vt 0.696317 0.624016
vt 0.775794 0.789514
vt 0.681837 0.631270
vt 0.834538 0.146212
vt 0.786643 0.141441
vt 0.786643 0.133491
vt 0.711360 0.156585
vt 0.678525 0.194071
vt 0.668916 0.179527
vt 0.712094 0.617591
vt 0.669211 0.639072
vt 0.658922 0.647125
vt 0.658922 0.455260
vt 0.785330 0.323601
vt 0.669379 0.462096
vt 0.682016 0.469282
vt 0.696350 0.476540
vt 0.711828 0.483591
vt 0.727856 0.490166
vt 0.743819 0.496010
vt 0.759102 0.500900
vt 0.773119 0.504647
vt 0.785330 0.507108
vt 0.470408 0.740959
vt 0.470408 0.926008
vt 0.457406 0.741408
vt 0.442762 0.743559
vt 0.427039 0.747330
vt 0.410841 0.752576
vt 0.394791 0.759096
vt 0.379505 0.766638
vt 0.365571 0.774914
vt 0.353525 0.783604
vt 0.154490 0.769864
vt 0.154490 0.951331
vt 0.140254 0.772638
vt 0.124677 0.776465
vt 0.108358 0.781197
vt 0.091924 0.786653
vt 0.076007 0.792623
vt 0.061219 0.798878
vt 0.048127 0.805177
vt 0.775794 0.604446
vt 0.761036 0.605540
vt 0.745088 0.608172
vt 0.728562 0.612241
vt 0.911960 0.644809
vt 0.876590 0.663927
vt 0.873582 0.656582
vt 0.872048 0.648784
vt 0.880958 0.670538
vt 0.506224 0.053974
vt 0.511783 0.051936
vt 0.511783 0.641582
vt 0.872048 0.640833
vt 0.104572 0.050389
vt 0.110131 0.051462
vt 0.110131 0.672526
vt 0.886518 0.676160
vt 0.518320 0.050335
vt 0.518320 0.639981
vt 0.873582 0.633035
vt 0.098035 0.049546
vt 0.104572 0.671453
vt 0.893055 0.680577
vt 0.525584 0.049231
vt 0.525584 0.638878
vt 0.876590 0.625690
vt 0.090771 0.048965
vt 0.098035 0.670610
vt 0.900318 0.683620
vt 0.533295 0.048669
vt 0.533295 0.638315
vt 0.880958 0.619079
vt 0.083060 0.048669
vt 0.090771 0.670029
vt 0.908029 0.685171
vt 0.541157 0.048669
vt 0.541157 0.638315
vt 0.886518 0.613457
vt 0.075198 0.048669
vt 0.083060 0.669733
vt 0.915892 0.685171
vt 0.548868 0.049231
vt 0.548868 0.638878
vt 0.893055 0.609040
vt 0.067487 0.048965
vt 0.075198 0.669733
vt 0.923603 0.683620
vt 0.556131 0.050335
vt 0.556131 0.639981
vt 0.900318 0.605997
vt 0.060223 0.049546
vt 0.067487 0.670029
vt 0.930866 0.680577
vt 0.562669 0.051936
vt 0.562669 0.641582
vt 0.908029 0.604446
vt 0.053686 0.050389
vt 0.060223 0.670610
vt 0.937403 0.676160
vt 0.257271 0.669733
vt 0.250734 0.670576
vt 0.250734 0.049512
vt 0.915892 0.604446
vt 0.048127 0.051462
vt 0.053686 0.671453
vt 0.942963 0.670538
vt 0.243470 0.671157
vt 0.243470 0.050093
vt 0.923603 0.605997
vt 0.404410 0.051936
vt 0.409970 0.053974
vt 0.409970 0.643621
vt 0.947331 0.663927
vt 0.235759 0.671453
vt 0.235759 0.050389
vt 0.930866 0.609040
vt 0.397873 0.050335
vt 0.404410 0.641582
vt 0.950339 0.656582
vt 0.227897 0.671453
vt 0.227897 0.050389
vt 0.937403 0.613457
vt 0.390610 0.049231
vt 0.397873 0.639981
vt 0.951873 0.648784
vt 0.220186 0.671157
vt 0.220186 0.050093
vt 0.942963 0.619079
vt 0.382899 0.048669
vt 0.390610 0.638878
vt 0.951873 0.640833
vt 0.212922 0.670576
vt 0.212922 0.049512
vt 0.947331 0.625690
vt 0.375036 0.048669
vt 0.382899 0.638315
vt 0.950339 0.633035
vt 0.206385 0.669733
vt 0.206385 0.048669
vt 0.367325 0.049231
vt 0.375036 0.638315
vt 0.353525 0.051936
vt 0.360062 0.050335
vt 0.360062 0.639981
vt 0.367325 0.638878
vt 0.742799 0.097104
vt 0.721118 0.052081
vt 0.738082 0.048669
vt 0.755378 0.048669
vt 0.750661 0.097104
vt 0.772343 0.052081
vt 0.788323 0.058775
vt 0.765636 0.101697
vt 0.802704 0.068493
vt 0.814935 0.080861
vt 0.777732 0.111736
vt 0.824544 0.095405
vt 0.831164 0.111565
vt 0.785109 0.125693
vt 0.834538 0.128720
vt 0.831164 0.163367
vt 0.785109 0.149239
vt 0.814935 0.194071
vt 0.777732 0.163195
vt 0.782100 0.156585
vt 0.788323 0.216157
vt 0.765636 0.173234
vt 0.772173 0.168817
vt 0.755378 0.226263
vt 0.750661 0.177828
vt 0.758372 0.176277
vt 0.772343 0.222850
vt 0.758372 0.098655
vt 0.772173 0.106115
vt 0.802704 0.206439
vt 0.782100 0.118347
vt 0.824544 0.179527
vt 0.662297 0.163367
vt 0.658922 0.146212
vt 0.708351 0.149239
vt 0.658922 0.128720
vt 0.706818 0.133491
vt 0.706818 0.141441
vt 0.668916 0.095405
vt 0.711360 0.118347
vt 0.708351 0.125693
vt 0.690756 0.068493
vt 0.721287 0.106115
vt 0.715728 0.111737
vt 0.735088 0.098655
vt 0.742799 0.177828
vt 0.727824 0.101697
vt 0.735088 0.176277
vt 0.738082 0.226263
vt 0.705138 0.058775
vt 0.727824 0.173234
vt 0.721117 0.222850
vt 0.721287 0.168817
vt 0.705137 0.216157
vt 0.715728 0.163195
vt 0.690756 0.206439
vt 0.678525 0.080861
vt 0.662297 0.111565
vt 0.506224 0.643621
vt 0.257271 0.048669
vt 0.048127 0.672526
vt 0.353525 0.641582
vn -0.254600 0.839400 0.480100
vn 0.000000 0.000000 -1.000000
vn -0.413500 0.773600 0.480100
vn -0.086000 0.873000 0.480100
vn 0.086000 0.873000 0.480100
vn 0.254600 0.839400 0.480100
vn 0.413500 0.773600 0.480100
vn 0.556500 0.678100 0.480100
vn 0.678100 0.556500 0.480100
vn 0.773600 0.413500 0.480100
vn 0.839400 0.254600 0.480100
vn 0.873000 0.086000 0.480100
vn 0.873000 -0.086000 0.480100
vn 0.839400 -0.254600 0.480100
vn 0.773600 -0.413500 0.480100
vn 0.678100 -0.556500 0.480100
vn 0.556500 -0.678100 0.480100
vn 0.413500 -0.773600 0.480100
vn 0.254600 -0.839400 0.480100
vn 0.086000 -0.873000 0.480100
vn -0.086000 -0.873000 0.480100
vn -0.254600 -0.839400 0.480100
vn -0.413500 -0.773600 0.480100
vn -0.556500 -0.678100 0.480100
vn -0.678100 -0.556500 0.480100
vn -0.773600 -0.413500 0.480100
vn -0.839400 -0.254600 0.480100
vn -0.873000 -0.086000 0.480100
vn -0.873000 0.086000 0.480100
vn -0.839400 0.254600 0.480100
vn -0.773600 0.413500 0.480100
vn -0.678100 0.556500 0.480100
vn -0.556500 0.678100 0.480100
vn 0.098000 0.995200 0.000000
vn 0.290300 0.956900 0.000000
vn -0.098000 0.995200 0.000000
vn 0.471400 0.881900 0.000000
vn -0.290300 0.956900 0.000000
vn 0.634400 0.773000 0.000000
vn -0.471400 0.881900 0.000000
vn 0.773000 0.634400 0.000000
vn -0.634400 0.773000 0.000000
vn 0.881900 0.471400 0.000000
vn -0.773000 0.634400 0.000000
vn 0.956900 0.290300 0.000000
vn -0.881900 0.471400 0.000000
vn 0.995200 0.098000 0.000000
vn -0.956900 0.290300 0.000000
vn 0.995200 -0.098000 0.000000
vn -0.995200 0.098000 0.000000
vn 0.956900 -0.290300 0.000000
vn -0.995200 -0.098000 0.000000
vn 0.881900 -0.471400 0.000000
vn -0.956900 -0.290300 0.000000
vn 0.773000 -0.634400 0.000000
vn -0.881900 -0.471400 0.000000
vn 0.634400 -0.773000 0.000000
vn -0.773000 -0.634400 0.000000
vn 0.471400 -0.881900 0.000000
vn -0.634400 -0.773000 0.000000
vn 0.290300 -0.956900 0.000000
vn -0.471400 -0.881900 0.000000
vn 0.098000 -0.995200 0.000000
vn -0.290300 -0.956900 0.000000
vn -0.098000 -0.995200 0.000000
s off
f 1/1/1 2/2/1 3/3/1
f 14/4/2 29/5/2 30/6/2
f 55/7/2 65/8/2 1/9/2
f 65/10/3 2/2/3 1/1/3
f 3/3/4 2/2/4 39/11/4
f 39/11/5 2/2/5 40/12/5
f 40/13/6 2/14/6 41/15/6
f 41/15/7 2/14/7 42/16/7
f 42/16/8 2/14/8 43/17/8
f 43/17/9 2/14/9 44/18/9
f 44/18/10 2/14/10 45/19/10
f 45/19/11 2/14/11 4/20/11
f 4/20/12 2/14/12 5/21/12
f 5/21/13 2/14/13 6/22/13
f 6/22/14 2/14/14 7/23/14
f 7/24/15 2/25/15 8/26/15
f 8/26/16 2/25/16 9/27/16
f 9/27/17 2/25/17 10/28/17
f 10/28/18 2/25/18 11/29/18
f 11/29/19 2/25/19 12/30/19
f 12/30/20 2/25/20 13/31/20
f 13/31/21 2/25/21 14/32/21
f 14/32/22 2/25/22 15/33/22
f 15/34/23 2/35/23 16/36/23
f 16/36/24 2/35/24 17/37/24
f 17/37/25 2/35/25 18/38/25
f 18/38/26 2/35/26 19/39/26
f 19/39/27 2/35/27 20/40/27
f 20/40/28 2/35/28 21/41/28
f 21/41/29 2/35/29 61/42/29
f 61/43/30 2/2/30 62/44/30
f 62/44/31 2/2/31 63/45/31
f 63/45/32 2/2/32 64/46/32
f 64/46/33 2/2/33 65/10/33
f 66/47/2 67/48/2 68/49/2
f 66/47/2 68/49/2 69/50/2
f 66/47/2 70/51/2 67/48/2
f 68/52/34 67/53/34 53/54/34
f 66/47/2 69/50/2 71/55/2
f 69/56/35 68/57/35 52/58/35
f 66/47/2 72/59/2 70/51/2
f 67/53/36 70/60/36 54/61/36
f 66/47/2 71/55/2 73/62/2
f 71/63/37 69/56/37 51/64/37
f 66/47/2 74/65/2 72/59/2
f 70/60/38 72/66/38 55/67/38
f 66/47/2 73/62/2 75/68/2
f 73/69/39 71/63/39 50/70/39
f 66/47/2 76/71/2 74/65/2
f 72/66/40 74/72/40 56/73/40
f 66/47/2 75/68/2 77/74/2
f 75/75/41 73/69/41 49/76/41
f 66/47/2 78/77/2 76/71/2
f 74/72/42 76/78/42 57/79/42
f 66/47/2 77/74/2 79/80/2
f 77/81/43 75/75/43 48/82/43
f 66/47/2 80/83/2 78/77/2
f 76/78/44 78/84/44 58/85/44
f 66/47/2 79/80/2 81/86/2
f 79/87/45 77/81/45 47/88/45
f 66/47/2 82/89/2 80/83/2
f 78/84/46 80/90/46 59/91/46
f 66/47/2 81/86/2 83/92/2
f 81/93/47 79/87/47 46/94/47
f 66/47/2 84/95/2 82/89/2
f 80/90/48 82/96/48 60/97/48
f 66/47/2 83/92/2 85/98/2
f 83/99/49 81/93/49 38/100/49
f 66/47/2 86/101/2 84/95/2
f 82/102/50 84/103/50 22/104/50
f 66/47/2 85/98/2 87/105/2
f 85/106/51 83/99/51 37/107/51
f 66/47/2 88/108/2 86/101/2
f 84/103/52 86/109/52 23/110/52
f 66/47/2 87/105/2 89/111/2
f 87/112/53 85/113/53 36/114/53
f 66/47/2 90/115/2 88/108/2
f 86/109/54 88/116/54 24/117/54
f 66/47/2 89/111/2 91/118/2
f 89/119/55 87/112/55 35/120/55
f 66/47/2 92/121/2 90/115/2
f 88/116/56 90/122/56 25/123/56
f 66/47/2 91/118/2 93/124/2
f 91/125/57 89/119/57 34/126/57
f 66/47/2 94/127/2 92/121/2
f 90/122/58 92/128/58 26/129/58
f 66/47/2 93/124/2 95/130/2
f 93/131/59 91/125/59 33/132/59
f 66/47/2 96/133/2 94/127/2
f 92/128/60 94/134/60 27/135/60
f 66/47/2 95/130/2 97/136/2
f 95/137/61 93/131/61 32/138/61
f 66/47/2 98/139/2 96/133/2
f 94/134/62 96/140/62 28/141/62
f 66/47/2 97/136/2 98/139/2
f 97/142/63 95/137/63 31/143/63
f 96/144/64 98/145/64 29/146/64
f 98/145/65 97/142/65 30/147/65
f 38/148/2 4/149/2 5/150/2
f 5/150/2 6/151/2 37/152/2
f 7/153/2 8/154/2 35/155/2
f 9/156/2 10/157/2 33/158/2
f 11/159/2 12/160/2 31/161/2
f 13/162/2 14/4/2 30/6/2
f 15/163/2 28/164/2 29/5/2
f 17/165/2 26/166/2 27/167/2
f 19/168/2 24/169/2 25/170/2
f 21/171/2 22/172/2 23/173/2
f 37/152/2 38/148/2 5/150/2
f 21/171/2 23/173/2 20/174/2
f 36/175/2 37/152/2 6/151/2
f 23/173/2 24/169/2 20/174/2
f 35/155/2 36/175/2 7/153/2
f 24/169/2 19/168/2 20/174/2
f 34/176/2 35/155/2 8/154/2
f 25/170/2 18/177/2 19/168/2
f 33/158/2 34/176/2 9/156/2
f 26/166/2 18/177/2 25/170/2
f 32/178/2 33/158/2 10/157/2
f 26/166/2 17/165/2 18/177/2
f 36/175/2 6/151/2 7/153/2
f 27/167/2 16/179/2 17/165/2
f 31/161/2 32/178/2 11/159/2
f 28/164/2 16/179/2 27/167/2
f 30/6/2 31/161/2 12/160/2
f 8/154/2 9/156/2 34/176/2
f 12/160/2 13/162/2 30/6/2
f 15/163/2 29/5/2 14/4/2
f 32/178/2 10/157/2 11/159/2
f 28/164/2 15/163/2 16/179/2
f 3/180/2 39/181/2 54/182/2
f 40/183/2 52/184/2 53/185/2
f 42/186/2 50/187/2 51/188/2
f 44/189/2 48/190/2 49/191/2
f 4/149/2 38/148/2 46/192/2
f 60/193/2 22/172/2 21/171/2
f 4/149/2 46/192/2 47/194/2
f 59/195/2 60/193/2 61/196/2
f 4/149/2 47/194/2 45/197/2
f 58/198/2 59/195/2 62/199/2
f 47/194/2 48/190/2 45/197/2
f 57/200/2 58/198/2 63/201/2
f 48/190/2 44/189/2 45/197/2
f 56/202/2 57/200/2 64/203/2
f 49/191/2 43/204/2 44/189/2
f 55/7/2 56/202/2 65/8/2
f 50/187/2 43/204/2 49/191/2
f 60/193/2 21/171/2 61/196/2
f 50/187/2 42/186/2 43/204/2
f 54/182/2 55/7/2 1/9/2
f 51/188/2 41/205/2 42/186/2
f 59/195/2 61/196/2 62/199/2
f 52/184/2 41/205/2 51/188/2
f 40/183/2 53/185/2 39/181/2
f 1/9/2 3/180/2 54/182/2
f 64/203/2 65/8/2 56/202/2
f 62/199/2 63/201/2 58/198/2
f 40/183/2 41/205/2 52/184/2
f 39/181/2 53/185/2 54/182/2
f 63/201/2 64/203/2 57/200/2
f 52/206/34 68/52/34 53/54/34
f 51/64/35 69/56/35 52/58/35
f 53/54/36 67/53/36 54/61/36
f 50/70/37 71/63/37 51/64/37
f 54/61/38 70/60/38 55/67/38
f 49/76/39 73/69/39 50/70/39
f 55/67/40 72/66/40 56/73/40
f 48/82/41 75/75/41 49/76/41
f 56/73/42 74/72/42 57/79/42
f 47/88/43 77/81/43 48/82/43
f 57/79/44 76/78/44 58/85/44
f 46/94/45 79/87/45 47/88/45
f 58/85/46 78/84/46 59/91/46
f 38/100/47 81/93/47 46/94/47
f 59/91/48 80/90/48 60/97/48
f 37/107/49 83/99/49 38/100/49
f 60/207/50 82/102/50 22/104/50
f 36/208/51 85/106/51 37/107/51
f 22/104/52 84/103/52 23/110/52
f 35/120/53 87/112/53 36/114/53
f 23/110/54 86/109/54 24/117/54
f 34/126/55 89/119/55 35/120/55
f 24/117/56 88/116/56 25/123/56
f 33/132/57 91/125/57 34/126/57
f 25/123/58 90/122/58 26/129/58
f 32/138/59 93/131/59 33/132/59
f 26/129/60 92/128/60 27/135/60
f 31/143/61 95/137/61 32/138/61
f 27/135/62 94/134/62 28/141/62
f 30/147/63 97/142/63 31/143/63
f 28/209/64 96/144/64 29/146/64
f 29/146/65 98/145/65 30/147/65
