<?xml version="1.1" encoding="UTF-8"?>
<svg xmlns="http://www.w3.org/2000/svg"
    xmlns:latexdraw="http://latexdraw.sourceforge.net/namespaces/latexdraw"
    version="1.1" baseProfile="full">
    <g>
        <g latexdraw:type="dot" id="id1058295117" latexdraw:size="10.0"
            latexdraw:dotShape="*" latexdraw:position="240.0 120.0">
            <path
                d="M 244.6153846153846 120.0 C 244.6153846153846 122.54900653768058 242.54900653768058 124.61538461538461 240.0 124.61538461538461 C 237.45099346231942 124.61538461538461 235.3846153846154 122.54900653768058 235.3846153846154 120.0 C 235.3846153846154 117.45099346231942 237.45099346231942 115.38461538461539 240.0 115.38461538461539 C 242.54900653768058 115.38461538461539 244.6153846153846 117.45099346231942 244.6153846153846 120.0 z "
                fill="#00ff99" stroke-linecap="square"
                stroke-linejoin="butt" stroke-width="0.625"
                stroke-miterlimit="10.0" stroke-dashoffset="0.0" stroke="#00ff99"/>
        </g>
        <g latexdraw:type="dot" id="id2008407518" latexdraw:size="10.0"
            latexdraw:dotShape="*" latexdraw:position="240.0 140.0">
            <path
                d="M 244.6153846153846 140.0 C 244.6153846153846 142.54900653768058 242.54900653768058 144.6153846153846 240.0 144.6153846153846 C 237.45099346231942 144.6153846153846 235.3846153846154 142.54900653768058 235.3846153846154 140.0 C 235.3846153846154 137.45099346231942 237.45099346231942 135.3846153846154 240.0 135.3846153846154 C 242.54900653768058 135.3846153846154 244.6153846153846 137.45099346231942 244.6153846153846 140.0 z "
                fill="#00ff99" stroke-linecap="square"
                stroke-linejoin="butt" stroke-width="0.625"
                stroke-miterlimit="10.0" stroke-dashoffset="0.0" stroke="#00ff99"/>
        </g>
        <g latexdraw:type="dot" id="id124634649" latexdraw:size="10.0"
            latexdraw:dotShape="*" latexdraw:position="240.0 160.0">
            <path
                d="M 244.6153846153846 160.0 C 244.6153846153846 162.54900653768058 242.54900653768058 164.6153846153846 240.0 164.6153846153846 C 237.45099346231942 164.6153846153846 235.3846153846154 162.54900653768058 235.3846153846154 160.0 C 235.3846153846154 157.45099346231942 237.45099346231942 155.3846153846154 240.0 155.3846153846154 C 242.54900653768058 155.3846153846154 244.6153846153846 157.45099346231942 244.6153846153846 160.0 z "
                fill="#00ff99" stroke-linecap="square"
                stroke-linejoin="butt" stroke-width="0.625"
                stroke-miterlimit="10.0" stroke-dashoffset="0.0" stroke="#00ff99"/>
        </g>
        <g latexdraw:type="dot" id="id2136128873" latexdraw:size="10.0"
            latexdraw:dotShape="*" latexdraw:position="220.0 160.0">
            <path
                d="M 224.6153846153846 160.0 C 224.6153846153846 162.54900653768058 222.54900653768058 164.6153846153846 220.0 164.6153846153846 C 217.45099346231942 164.6153846153846 215.3846153846154 162.54900653768058 215.3846153846154 160.0 C 215.3846153846154 157.45099346231942 217.45099346231942 155.3846153846154 220.0 155.3846153846154 C 222.54900653768058 155.3846153846154 224.6153846153846 157.45099346231942 224.6153846153846 160.0 z "
                fill="#00ff99" stroke-linecap="square"
                stroke-linejoin="butt" stroke-width="0.625"
                stroke-miterlimit="10.0" stroke-dashoffset="0.0" stroke="#00ff99"/>
        </g>
        <g latexdraw:type="dot" id="id2021098002" latexdraw:size="10.0"
            latexdraw:dotShape="*" latexdraw:position="200.0 160.0">
            <path
                d="M 204.6153846153846 160.0 C 204.6153846153846 162.54900653768058 202.54900653768058 164.6153846153846 200.0 164.6153846153846 C 197.45099346231942 164.6153846153846 195.3846153846154 162.54900653768058 195.3846153846154 160.0 C 195.3846153846154 157.45099346231942 197.45099346231942 155.3846153846154 200.0 155.3846153846154 C 202.54900653768058 155.3846153846154 204.6153846153846 157.45099346231942 204.6153846153846 160.0 z "
                fill="#00ff99" stroke-linecap="square"
                stroke-linejoin="butt" stroke-width="0.625"
                stroke-miterlimit="10.0" stroke-dashoffset="0.0" stroke="#00ff99"/>
        </g>
        <g latexdraw:type="dot" id="id738407880" latexdraw:size="10.0"
            latexdraw:dotShape="*" latexdraw:position="220.0 120.0">
            <path
                d="M 224.6153846153846 120.0 C 224.6153846153846 122.54900653768058 222.54900653768058 124.61538461538461 220.0 124.61538461538461 C 217.45099346231942 124.61538461538461 215.3846153846154 122.54900653768058 215.3846153846154 120.0 C 215.3846153846154 117.45099346231942 217.45099346231942 115.38461538461539 220.0 115.38461538461539 C 222.54900653768058 115.38461538461539 224.6153846153846 117.45099346231942 224.6153846153846 120.0 z "
                fill="#cc0033" stroke-linecap="square"
                stroke-linejoin="butt" stroke-width="0.625"
                stroke-miterlimit="10.0" stroke-dashoffset="0.0" stroke="#cc0033"/>
        </g>
        <g latexdraw:type="dot" id="id1674358978" latexdraw:size="10.0"
            latexdraw:dotShape="*" latexdraw:position="200.0 120.0">
            <path
                d="M 204.6153846153846 120.0 C 204.6153846153846 122.54900653768058 202.54900653768058 124.61538461538461 200.0 124.61538461538461 C 197.45099346231942 124.61538461538461 195.3846153846154 122.54900653768058 195.3846153846154 120.0 C 195.3846153846154 117.45099346231942 197.45099346231942 115.38461538461539 200.0 115.38461538461539 C 202.54900653768058 115.38461538461539 204.6153846153846 117.45099346231942 204.6153846153846 120.0 z "
                fill="#cc0033" stroke-linecap="square"
                stroke-linejoin="butt" stroke-width="0.625"
                stroke-miterlimit="10.0" stroke-dashoffset="0.0" stroke="#cc0033"/>
        </g>
        <g latexdraw:type="dot" id="id1386264077" latexdraw:size="10.0"
            latexdraw:dotShape="*" latexdraw:position="200.0 140.0">
            <path
                d="M 204.6153846153846 140.0 C 204.6153846153846 142.54900653768058 202.54900653768058 144.6153846153846 200.0 144.6153846153846 C 197.45099346231942 144.6153846153846 195.3846153846154 142.54900653768058 195.3846153846154 140.0 C 195.3846153846154 137.45099346231942 197.45099346231942 135.3846153846154 200.0 135.3846153846154 C 202.54900653768058 135.3846153846154 204.6153846153846 137.45099346231942 204.6153846153846 140.0 z "
                fill="#cc0033" stroke-linecap="square"
                stroke-linejoin="butt" stroke-width="0.625"
                stroke-miterlimit="10.0" stroke-dashoffset="0.0" stroke="#cc0033"/>
        </g>
        <g latexdraw:type="dot" id="id1928872445" latexdraw:size="10.0"
            latexdraw:dotShape="*" latexdraw:position="220.0 140.0">
            <path
                d="M 224.6153846153846 140.0 C 224.6153846153846 142.54900653768058 222.54900653768058 144.6153846153846 220.0 144.6153846153846 C 217.45099346231942 144.6153846153846 215.3846153846154 142.54900653768058 215.3846153846154 140.0 C 215.3846153846154 137.45099346231942 217.45099346231942 135.3846153846154 220.0 135.3846153846154 C 222.54900653768058 135.3846153846154 224.6153846153846 137.45099346231942 224.6153846153846 140.0 z "
                fill="#cc0033" stroke-linecap="square"
                stroke-linejoin="butt" stroke-width="0.625"
                stroke-miterlimit="10.0" stroke-dashoffset="0.0" stroke="#cc0033"/>
        </g>
        <g latexdraw:type="dot" id="id1621068825" latexdraw:size="10.0"
            latexdraw:dotShape="*" latexdraw:position="280.0 120.0">
            <path
                d="M 284.6153846153846 120.0 C 284.6153846153846 122.54900653768058 282.54900653768055 124.61538461538461 280.0 124.61538461538461 C 277.4509934623194 124.61538461538461 275.38461538461536 122.54900653768058 275.38461538461536 120.0 C 275.38461538461536 117.45099346231942 277.4509934623194 115.38461538461539 280.0 115.38461538461539 C 282.54900653768055 115.38461538461539 284.6153846153846 117.45099346231942 284.6153846153846 120.0 z "
                fill="#00ff99" stroke-linecap="square"
                stroke-linejoin="butt" stroke-width="0.625"
                stroke-miterlimit="10.0" stroke-dashoffset="0.0" stroke="#00ff99"/>
        </g>
        <g latexdraw:type="dot" id="id288474349" latexdraw:size="10.0"
            latexdraw:dotShape="*" latexdraw:position="280.0 160.0">
            <path
                d="M 284.6153846153846 160.0 C 284.6153846153846 162.54900653768058 282.54900653768055 164.6153846153846 280.0 164.6153846153846 C 277.4509934623194 164.6153846153846 275.38461538461536 162.54900653768058 275.38461538461536 160.0 C 275.38461538461536 157.45099346231942 277.4509934623194 155.3846153846154 280.0 155.3846153846154 C 282.54900653768055 155.3846153846154 284.6153846153846 157.45099346231942 284.6153846153846 160.0 z "
                fill="#00ff99" stroke-linecap="square"
                stroke-linejoin="butt" stroke-width="0.625"
                stroke-miterlimit="10.0" stroke-dashoffset="0.0" stroke="#00ff99"/>
        </g>
        <g latexdraw:type="dot" id="id371735033" latexdraw:size="10.0"
            latexdraw:dotShape="*" latexdraw:position="280.0 140.0">
            <path
                d="M 284.6153846153846 140.0 C 284.6153846153846 142.54900653768058 282.54900653768055 144.6153846153846 280.0 144.6153846153846 C 277.4509934623194 144.6153846153846 275.38461538461536 142.54900653768058 275.38461538461536 140.0 C 275.38461538461536 137.45099346231942 277.4509934623194 135.3846153846154 280.0 135.3846153846154 C 282.54900653768055 135.3846153846154 284.6153846153846 137.45099346231942 284.6153846153846 140.0 z "
                fill="#00ff99" stroke-linecap="square"
                stroke-linejoin="butt" stroke-width="0.625"
                stroke-miterlimit="10.0" stroke-dashoffset="0.0" stroke="#00ff99"/>
        </g>
        <g latexdraw:type="dot" id="id477265452" latexdraw:size="10.0"
            latexdraw:dotShape="*" latexdraw:position="320.0 160.0">
            <path
                d="M 324.6153846153846 160.0 C 324.6153846153846 162.54900653768058 322.54900653768055 164.6153846153846 320.0 164.6153846153846 C 317.4509934623194 164.6153846153846 315.38461538461536 162.54900653768058 315.38461538461536 160.0 C 315.38461538461536 157.45099346231942 317.4509934623194 155.3846153846154 320.0 155.3846153846154 C 322.54900653768055 155.3846153846154 324.6153846153846 157.45099346231942 324.6153846153846 160.0 z "
                fill="#00ff99" stroke-linecap="square"
                stroke-linejoin="butt" stroke-width="0.625"
                stroke-miterlimit="10.0" stroke-dashoffset="0.0" stroke="#00ff99"/>
        </g>
        <g latexdraw:type="dot" id="id1297274248" latexdraw:size="10.0"
            latexdraw:dotShape="*" latexdraw:position="300.0 160.0">
            <path
                d="M 304.6153846153846 160.0 C 304.6153846153846 162.54900653768058 302.54900653768055 164.6153846153846 300.0 164.6153846153846 C 297.4509934623194 164.6153846153846 295.38461538461536 162.54900653768058 295.38461538461536 160.0 C 295.38461538461536 157.45099346231942 297.4509934623194 155.3846153846154 300.0 155.3846153846154 C 302.54900653768055 155.3846153846154 304.6153846153846 157.45099346231942 304.6153846153846 160.0 z "
                fill="#00ff99" stroke-linecap="square"
                stroke-linejoin="butt" stroke-width="0.625"
                stroke-miterlimit="10.0" stroke-dashoffset="0.0" stroke="#00ff99"/>
        </g>
        <g latexdraw:type="dot" id="id1252672523" latexdraw:size="10.0"
            latexdraw:dotShape="*" latexdraw:position="300.0 140.0">
            <path
                d="M 304.6153846153846 140.0 C 304.6153846153846 142.54900653768058 302.54900653768055 144.6153846153846 300.0 144.6153846153846 C 297.4509934623194 144.6153846153846 295.38461538461536 142.54900653768058 295.38461538461536 140.0 C 295.38461538461536 137.45099346231942 297.4509934623194 135.3846153846154 300.0 135.3846153846154 C 302.54900653768055 135.3846153846154 304.6153846153846 137.45099346231942 304.6153846153846 140.0 z "
                fill="#00cc00" stroke-linecap="square"
                stroke-linejoin="butt" stroke-width="0.625"
                stroke-miterlimit="10.0" stroke-dashoffset="0.0" stroke="#00cc00"/>
        </g>
        <g latexdraw:type="dot" id="id1895400407" latexdraw:size="10.0"
            latexdraw:dotShape="*" latexdraw:position="300.0 120.0">
            <path
                d="M 304.6153846153846 120.0 C 304.6153846153846 122.54900653768058 302.54900653768055 124.61538461538461 300.0 124.61538461538461 C 297.4509934623194 124.61538461538461 295.38461538461536 122.54900653768058 295.38461538461536 120.0 C 295.38461538461536 117.45099346231942 297.4509934623194 115.38461538461539 300.0 115.38461538461539 C 302.54900653768055 115.38461538461539 304.6153846153846 117.45099346231942 304.6153846153846 120.0 z "
                fill="#00cc00" stroke-linecap="square"
                stroke-linejoin="butt" stroke-width="0.625"
                stroke-miterlimit="10.0" stroke-dashoffset="0.0" stroke="#00cc00"/>
        </g>
        <g latexdraw:type="dot" id="id1718958751" latexdraw:size="10.0"
            latexdraw:dotShape="*" latexdraw:position="320.0 120.0">
            <path
                d="M 324.6153846153846 120.0 C 324.6153846153846 122.54900653768058 322.54900653768055 124.61538461538461 320.0 124.61538461538461 C 317.4509934623194 124.61538461538461 315.38461538461536 122.54900653768058 315.38461538461536 120.0 C 315.38461538461536 117.45099346231942 317.4509934623194 115.38461538461539 320.0 115.38461538461539 C 322.54900653768055 115.38461538461539 324.6153846153846 117.45099346231942 324.6153846153846 120.0 z "
                fill="#00cc00" stroke-linecap="square"
                stroke-linejoin="butt" stroke-width="0.625"
                stroke-miterlimit="10.0" stroke-dashoffset="0.0" stroke="#00cc00"/>
        </g>
        <g latexdraw:type="dot" id="id961932267" latexdraw:size="10.0"
            latexdraw:dotShape="*" latexdraw:position="320.0 140.0">
            <path
                d="M 324.6153846153846 140.0 C 324.6153846153846 142.54900653768058 322.54900653768055 144.6153846153846 320.0 144.6153846153846 C 317.4509934623194 144.6153846153846 315.38461538461536 142.54900653768058 315.38461538461536 140.0 C 315.38461538461536 137.45099346231942 317.4509934623194 135.3846153846154 320.0 135.3846153846154 C 322.54900653768055 135.3846153846154 324.6153846153846 137.45099346231942 324.6153846153846 140.0 z "
                fill="#00cc00" stroke-linecap="square"
                stroke-linejoin="butt" stroke-width="0.625"
                stroke-miterlimit="10.0" stroke-dashoffset="0.0" stroke="#00cc00"/>
        </g>
        <g latexdraw:type="dot" id="id1372064792" latexdraw:size="10.0"
            latexdraw:dotShape="*" latexdraw:position="200.0 200.0">
            <path
                d="M 204.6153846153846 200.0 C 204.6153846153846 202.54900653768058 202.54900653768058 204.6153846153846 200.0 204.6153846153846 C 197.45099346231942 204.6153846153846 195.3846153846154 202.54900653768058 195.3846153846154 200.0 C 195.3846153846154 197.45099346231942 197.45099346231942 195.3846153846154 200.0 195.3846153846154 C 202.54900653768058 195.3846153846154 204.6153846153846 197.45099346231942 204.6153846153846 200.0 z "
                fill="#00ff99" stroke-linecap="square"
                stroke-linejoin="butt" stroke-width="0.625"
                stroke-miterlimit="10.0" stroke-dashoffset="0.0" stroke="#00ff99"/>
        </g>
        <g latexdraw:type="dot" id="id1467585833" latexdraw:size="10.0"
            latexdraw:dotShape="*" latexdraw:position="220.0 200.0">
            <path
                d="M 224.6153846153846 200.0 C 224.6153846153846 202.54900653768058 222.54900653768058 204.6153846153846 220.0 204.6153846153846 C 217.45099346231942 204.6153846153846 215.3846153846154 202.54900653768058 215.3846153846154 200.0 C 215.3846153846154 197.45099346231942 217.45099346231942 195.3846153846154 220.0 195.3846153846154 C 222.54900653768058 195.3846153846154 224.6153846153846 197.45099346231942 224.6153846153846 200.0 z "
                fill="#00ff99" stroke-linecap="square"
                stroke-linejoin="butt" stroke-width="0.625"
                stroke-miterlimit="10.0" stroke-dashoffset="0.0" stroke="#00ff99"/>
        </g>
        <g latexdraw:type="dot" id="id940577638" latexdraw:size="10.0"
            latexdraw:dotShape="*" latexdraw:position="240.0 200.0">
            <path
                d="M 244.6153846153846 200.0 C 244.6153846153846 202.54900653768058 242.54900653768058 204.6153846153846 240.0 204.6153846153846 C 237.45099346231942 204.6153846153846 235.3846153846154 202.54900653768058 235.3846153846154 200.0 C 235.3846153846154 197.45099346231942 237.45099346231942 195.3846153846154 240.0 195.3846153846154 C 242.54900653768058 195.3846153846154 244.6153846153846 197.45099346231942 244.6153846153846 200.0 z "
                fill="#00ff99" stroke-linecap="square"
                stroke-linejoin="butt" stroke-width="0.625"
                stroke-miterlimit="10.0" stroke-dashoffset="0.0" stroke="#00ff99"/>
        </g>
        <g latexdraw:type="dot" id="id2140354517" latexdraw:size="10.0"
            latexdraw:dotShape="*" latexdraw:position="240.0 220.0">
            <path
                d="M 244.6153846153846 220.0 C 244.6153846153846 222.54900653768058 242.54900653768058 224.6153846153846 240.0 224.6153846153846 C 237.45099346231942 224.6153846153846 235.3846153846154 222.54900653768058 235.3846153846154 220.0 C 235.3846153846154 217.45099346231942 237.45099346231942 215.3846153846154 240.0 215.3846153846154 C 242.54900653768058 215.3846153846154 244.6153846153846 217.45099346231942 244.6153846153846 220.0 z "
                fill="#00ff99" stroke-linecap="square"
                stroke-linejoin="butt" stroke-width="0.625"
                stroke-miterlimit="10.0" stroke-dashoffset="0.0" stroke="#00ff99"/>
        </g>
        <g latexdraw:type="dot" id="id629105798" latexdraw:size="10.0"
            latexdraw:dotShape="*" latexdraw:position="240.0 240.0">
            <path
                d="M 244.6153846153846 240.0 C 244.6153846153846 242.54900653768058 242.54900653768058 244.6153846153846 240.0 244.6153846153846 C 237.45099346231942 244.6153846153846 235.3846153846154 242.54900653768058 235.3846153846154 240.0 C 235.3846153846154 237.45099346231942 237.45099346231942 235.3846153846154 240.0 235.3846153846154 C 242.54900653768058 235.3846153846154 244.6153846153846 237.45099346231942 244.6153846153846 240.0 z "
                fill="#00ff99" stroke-linecap="square"
                stroke-linejoin="butt" stroke-width="0.625"
                stroke-miterlimit="10.0" stroke-dashoffset="0.0" stroke="#00ff99"/>
        </g>
        <g latexdraw:type="dot" id="id2002889880" latexdraw:size="10.0"
            latexdraw:dotShape="*" latexdraw:position="200.0 220.0">
            <path
                d="M 204.6153846153846 220.0 C 204.6153846153846 222.54900653768058 202.54900653768058 224.6153846153846 200.0 224.6153846153846 C 197.45099346231942 224.6153846153846 195.3846153846154 222.54900653768058 195.3846153846154 220.0 C 195.3846153846154 217.45099346231942 197.45099346231942 215.3846153846154 200.0 215.3846153846154 C 202.54900653768058 215.3846153846154 204.6153846153846 217.45099346231942 204.6153846153846 220.0 z "
                fill="#0033cc" stroke-linecap="square"
                stroke-linejoin="butt" stroke-width="0.625"
                stroke-miterlimit="10.0" stroke-dashoffset="0.0" stroke="#0033cc"/>
        </g>
        <g latexdraw:type="dot" id="id466913227" latexdraw:size="10.0"
            latexdraw:dotShape="*" latexdraw:position="220.0 220.0">
            <path
                d="M 224.6153846153846 220.0 C 224.6153846153846 222.54900653768058 222.54900653768058 224.6153846153846 220.0 224.6153846153846 C 217.45099346231942 224.6153846153846 215.3846153846154 222.54900653768058 215.3846153846154 220.0 C 215.3846153846154 217.45099346231942 217.45099346231942 215.3846153846154 220.0 215.3846153846154 C 222.54900653768058 215.3846153846154 224.6153846153846 217.45099346231942 224.6153846153846 220.0 z "
                fill="#0033cc" stroke-linecap="square"
                stroke-linejoin="butt" stroke-width="0.625"
                stroke-miterlimit="10.0" stroke-dashoffset="0.0" stroke="#0033cc"/>
        </g>
        <g latexdraw:type="dot" id="id360052577" latexdraw:size="10.0"
            latexdraw:dotShape="*" latexdraw:position="220.0 240.0">
            <path
                d="M 224.6153846153846 240.0 C 224.6153846153846 242.54900653768058 222.54900653768058 244.6153846153846 220.0 244.6153846153846 C 217.45099346231942 244.6153846153846 215.3846153846154 242.54900653768058 215.3846153846154 240.0 C 215.3846153846154 237.45099346231942 217.45099346231942 235.3846153846154 220.0 235.3846153846154 C 222.54900653768058 235.3846153846154 224.6153846153846 237.45099346231942 224.6153846153846 240.0 z "
                fill="#0033cc" stroke-linecap="square"
                stroke-linejoin="butt" stroke-width="0.625"
                stroke-miterlimit="10.0" stroke-dashoffset="0.0" stroke="#0033cc"/>
        </g>
        <g latexdraw:type="dot" id="id1047966270" latexdraw:size="10.0"
            latexdraw:dotShape="*" latexdraw:position="200.0 240.0">
            <path
                d="M 204.6153846153846 240.0 C 204.6153846153846 242.54900653768058 202.54900653768058 244.6153846153846 200.0 244.6153846153846 C 197.45099346231942 244.6153846153846 195.3846153846154 242.54900653768058 195.3846153846154 240.0 C 195.3846153846154 237.45099346231942 197.45099346231942 235.3846153846154 200.0 235.3846153846154 C 202.54900653768058 235.3846153846154 204.6153846153846 237.45099346231942 204.6153846153846 240.0 z "
                fill="#0033cc" stroke-linecap="square"
                stroke-linejoin="butt" stroke-width="0.625"
                stroke-miterlimit="10.0" stroke-dashoffset="0.0" stroke="#0033cc"/>
        </g>
        <g latexdraw:type="dot" id="id1593885570" latexdraw:size="10.0"
            latexdraw:dotShape="*" latexdraw:position="280.0 200.0">
            <path
                d="M 284.6153846153846 200.0 C 284.6153846153846 202.54900653768058 282.54900653768055 204.6153846153846 280.0 204.6153846153846 C 277.4509934623194 204.6153846153846 275.38461538461536 202.54900653768058 275.38461538461536 200.0 C 275.38461538461536 197.45099346231942 277.4509934623194 195.3846153846154 280.0 195.3846153846154 C 282.54900653768055 195.3846153846154 284.6153846153846 197.45099346231942 284.6153846153846 200.0 z "
                fill="#00ff99" stroke-linecap="square"
                stroke-linejoin="butt" stroke-width="0.625"
                stroke-miterlimit="10.0" stroke-dashoffset="0.0" stroke="#00ff99"/>
        </g>
        <g latexdraw:type="dot" id="id2095730093" latexdraw:size="10.0"
            latexdraw:dotShape="*" latexdraw:position="280.0 240.0">
            <path
                d="M 284.6153846153846 240.0 C 284.6153846153846 242.54900653768058 282.54900653768055 244.6153846153846 280.0 244.6153846153846 C 277.4509934623194 244.6153846153846 275.38461538461536 242.54900653768058 275.38461538461536 240.0 C 275.38461538461536 237.45099346231942 277.4509934623194 235.3846153846154 280.0 235.3846153846154 C 282.54900653768055 235.3846153846154 284.6153846153846 237.45099346231942 284.6153846153846 240.0 z "
                fill="#00ff99" stroke-linecap="square"
                stroke-linejoin="butt" stroke-width="0.625"
                stroke-miterlimit="10.0" stroke-dashoffset="0.0" stroke="#00ff99"/>
        </g>
        <g latexdraw:type="dot" id="id731196074" latexdraw:size="10.0"
            latexdraw:dotShape="*" latexdraw:position="280.0 220.0">
            <path
                d="M 284.6153846153846 220.0 C 284.6153846153846 222.54900653768058 282.54900653768055 224.6153846153846 280.0 224.6153846153846 C 277.4509934623194 224.6153846153846 275.38461538461536 222.54900653768058 275.38461538461536 220.0 C 275.38461538461536 217.45099346231942 277.4509934623194 215.3846153846154 280.0 215.3846153846154 C 282.54900653768055 215.3846153846154 284.6153846153846 217.45099346231942 284.6153846153846 220.0 z "
                fill="#00ff99" stroke-linecap="square"
                stroke-linejoin="butt" stroke-width="0.625"
                stroke-miterlimit="10.0" stroke-dashoffset="0.0" stroke="#00ff99"/>
        </g>
        <g latexdraw:type="dot" id="id1220133689" latexdraw:size="10.0"
            latexdraw:dotShape="*" latexdraw:position="300.0 200.0">
            <path
                d="M 304.6153846153846 200.0 C 304.6153846153846 202.54900653768058 302.54900653768055 204.6153846153846 300.0 204.6153846153846 C 297.4509934623194 204.6153846153846 295.38461538461536 202.54900653768058 295.38461538461536 200.0 C 295.38461538461536 197.45099346231942 297.4509934623194 195.3846153846154 300.0 195.3846153846154 C 302.54900653768055 195.3846153846154 304.6153846153846 197.45099346231942 304.6153846153846 200.0 z "
                fill="#00ff99" stroke-linecap="square"
                stroke-linejoin="butt" stroke-width="0.625"
                stroke-miterlimit="10.0" stroke-dashoffset="0.0" stroke="#00ff99"/>
        </g>
        <g latexdraw:type="dot" id="id112933211" latexdraw:size="10.0"
            latexdraw:dotShape="*" latexdraw:position="320.0 200.0">
            <path
                d="M 324.6153846153846 200.0 C 324.6153846153846 202.54900653768058 322.54900653768055 204.6153846153846 320.0 204.6153846153846 C 317.4509934623194 204.6153846153846 315.38461538461536 202.54900653768058 315.38461538461536 200.0 C 315.38461538461536 197.45099346231942 317.4509934623194 195.3846153846154 320.0 195.3846153846154 C 322.54900653768055 195.3846153846154 324.6153846153846 197.45099346231942 324.6153846153846 200.0 z "
                fill="#00ff99" stroke-linecap="square"
                stroke-linejoin="butt" stroke-width="0.625"
                stroke-miterlimit="10.0" stroke-dashoffset="0.0" stroke="#00ff99"/>
        </g>
        <g latexdraw:type="dot" id="id421738684" latexdraw:size="10.0"
            latexdraw:dotShape="*" latexdraw:position="300.0 240.0">
            <path
                d="M 304.6153846153846 240.0 C 304.6153846153846 242.54900653768058 302.54900653768055 244.6153846153846 300.0 244.6153846153846 C 297.4509934623194 244.6153846153846 295.38461538461536 242.54900653768058 295.38461538461536 240.0 C 295.38461538461536 237.45099346231942 297.4509934623194 235.3846153846154 300.0 235.3846153846154 C 302.54900653768055 235.3846153846154 304.6153846153846 237.45099346231942 304.6153846153846 240.0 z "
                fill="#ff9900" stroke-linecap="square"
                stroke-linejoin="butt" stroke-width="0.625"
                stroke-miterlimit="10.0" stroke-dashoffset="0.0" stroke="#ff9900"/>
        </g>
        <g latexdraw:type="dot" id="id1261810497" latexdraw:size="10.0"
            latexdraw:dotShape="*" latexdraw:position="300.0 220.0">
            <path
                d="M 304.6153846153846 220.0 C 304.6153846153846 222.54900653768058 302.54900653768055 224.6153846153846 300.0 224.6153846153846 C 297.4509934623194 224.6153846153846 295.38461538461536 222.54900653768058 295.38461538461536 220.0 C 295.38461538461536 217.45099346231942 297.4509934623194 215.3846153846154 300.0 215.3846153846154 C 302.54900653768055 215.3846153846154 304.6153846153846 217.45099346231942 304.6153846153846 220.0 z "
                fill="#ff9900" stroke-linecap="square"
                stroke-linejoin="butt" stroke-width="0.625"
                stroke-miterlimit="10.0" stroke-dashoffset="0.0" stroke="#ff9900"/>
        </g>
        <g latexdraw:type="dot" id="id2035843110" latexdraw:size="10.0"
            latexdraw:dotShape="*" latexdraw:position="320.0 220.0">
            <path
                d="M 324.6153846153846 220.0 C 324.6153846153846 222.54900653768058 322.54900653768055 224.6153846153846 320.0 224.6153846153846 C 317.4509934623194 224.6153846153846 315.38461538461536 222.54900653768058 315.38461538461536 220.0 C 315.38461538461536 217.45099346231942 317.4509934623194 215.3846153846154 320.0 215.3846153846154 C 322.54900653768055 215.3846153846154 324.6153846153846 217.45099346231942 324.6153846153846 220.0 z "
                fill="#ff9900" stroke-linecap="square"
                stroke-linejoin="butt" stroke-width="0.625"
                stroke-miterlimit="10.0" stroke-dashoffset="0.0" stroke="#ff9900"/>
        </g>
        <g latexdraw:type="dot" id="id1316810494" latexdraw:size="10.0"
            latexdraw:dotShape="*" latexdraw:position="320.0 240.0">
            <path
                d="M 324.6153846153846 240.0 C 324.6153846153846 242.54900653768058 322.54900653768055 244.6153846153846 320.0 244.6153846153846 C 317.4509934623194 244.6153846153846 315.38461538461536 242.54900653768058 315.38461538461536 240.0 C 315.38461538461536 237.45099346231942 317.4509934623194 235.3846153846154 320.0 235.3846153846154 C 322.54900653768055 235.3846153846154 324.6153846153846 237.45099346231942 324.6153846153846 240.0 z "
                fill="#ff9900" stroke-linecap="square"
                stroke-linejoin="butt" stroke-width="0.625"
                stroke-miterlimit="10.0" stroke-dashoffset="0.0" stroke="#ff9900"/>
        </g>
        <g latexdraw:type="dot" id="id1350204277" latexdraw:size="10.0"
            latexdraw:dotShape="*" latexdraw:position="420.0 80.0">
            <path
                d="M 424.6153846153846 80.0 C 424.6153846153846 82.54900653768058 422.54900653768055 84.61538461538461 420.0 84.61538461538461 C 417.4509934623194 84.61538461538461 415.38461538461536 82.54900653768058 415.38461538461536 80.0 C 415.38461538461536 77.45099346231942 417.4509934623194 75.38461538461539 420.0 75.38461538461539 C 422.54900653768055 75.38461538461539 424.6153846153846 77.45099346231942 424.6153846153846 80.0 z "
                fill="#0000cc" stroke-linecap="square"
                stroke-linejoin="butt" stroke-width="0.625"
                stroke-miterlimit="10.0" stroke-dashoffset="0.0" stroke="#0000cc"/>
        </g>
        <g latexdraw:type="dot" id="id280272791" latexdraw:size="10.0"
            latexdraw:dotShape="*" latexdraw:position="440.0 100.0">
            <path
                d="M 444.6153846153846 100.0 C 444.6153846153846 102.54900653768058 442.54900653768055 104.61538461538461 440.0 104.61538461538461 C 437.4509934623194 104.61538461538461 435.38461538461536 102.54900653768058 435.38461538461536 100.0 C 435.38461538461536 97.45099346231942 437.4509934623194 95.38461538461539 440.0 95.38461538461539 C 442.54900653768055 95.38461538461539 444.6153846153846 97.45099346231942 444.6153846153846 100.0 z "
                fill="#0000cc" stroke-linecap="square"
                stroke-linejoin="butt" stroke-width="0.625"
                stroke-miterlimit="10.0" stroke-dashoffset="0.0" stroke="#0000cc"/>
        </g>
        <g latexdraw:type="dot" id="id1353128844" latexdraw:size="10.0"
            latexdraw:dotShape="*" latexdraw:position="460.0 120.0">
            <path
                d="M 464.6153846153846 120.0 C 464.6153846153846 122.54900653768058 462.54900653768055 124.61538461538461 460.0 124.61538461538461 C 457.4509934623194 124.61538461538461 455.38461538461536 122.54900653768058 455.38461538461536 120.0 C 455.38461538461536 117.45099346231942 457.4509934623194 115.38461538461539 460.0 115.38461538461539 C 462.54900653768055 115.38461538461539 464.6153846153846 117.45099346231942 464.6153846153846 120.0 z "
                fill="#0000cc" stroke-linecap="square"
                stroke-linejoin="butt" stroke-width="0.625"
                stroke-miterlimit="10.0" stroke-dashoffset="0.0" stroke="#0000cc"/>
        </g>
        <g latexdraw:type="dot" id="id237280472" latexdraw:size="10.0"
            latexdraw:dotShape="*" latexdraw:position="480.0 140.0">
            <path
                d="M 484.6153846153846 140.0 C 484.6153846153846 142.54900653768058 482.54900653768055 144.6153846153846 480.0 144.6153846153846 C 477.4509934623194 144.6153846153846 475.38461538461536 142.54900653768058 475.38461538461536 140.0 C 475.38461538461536 137.45099346231942 477.4509934623194 135.3846153846154 480.0 135.3846153846154 C 482.54900653768055 135.3846153846154 484.6153846153846 137.45099346231942 484.6153846153846 140.0 z "
                fill="#0000cc" stroke-linecap="square"
                stroke-linejoin="butt" stroke-width="0.625"
                stroke-miterlimit="10.0" stroke-dashoffset="0.0" stroke="#0000cc"/>
        </g>
        <g latexdraw:type="dot" id="id1830233356" latexdraw:size="10.0"
            latexdraw:dotShape="*" latexdraw:position="500.0 160.0">
            <path
                d="M 504.6153846153846 160.0 C 504.6153846153846 162.54900653768058 502.54900653768055 164.6153846153846 500.0 164.6153846153846 C 497.4509934623194 164.6153846153846 495.38461538461536 162.54900653768058 495.38461538461536 160.0 C 495.38461538461536 157.45099346231942 497.4509934623194 155.3846153846154 500.0 155.3846153846154 C 502.54900653768055 155.3846153846154 504.6153846153846 157.45099346231942 504.6153846153846 160.0 z "
                fill="#00ff99" stroke-linecap="square"
                stroke-linejoin="butt" stroke-width="0.625"
                stroke-miterlimit="10.0" stroke-dashoffset="0.0" stroke="#00ff99"/>
        </g>
        <g latexdraw:type="dot" id="id562470902" latexdraw:size="10.0"
            latexdraw:dotShape="*" latexdraw:position="520.0 180.0">
            <path
                d="M 524.6153846153846 180.0 C 524.6153846153846 182.54900653768058 522.5490065376806 184.6153846153846 520.0 184.6153846153846 C 517.4509934623194 184.6153846153846 515.3846153846154 182.54900653768058 515.3846153846154 180.0 C 515.3846153846154 177.45099346231942 517.4509934623194 175.3846153846154 520.0 175.3846153846154 C 522.5490065376806 175.3846153846154 524.6153846153846 177.45099346231942 524.6153846153846 180.0 z "
                fill="#00ff99" stroke-linecap="square"
                stroke-linejoin="butt" stroke-width="0.625"
                stroke-miterlimit="10.0" stroke-dashoffset="0.0" stroke="#00ff99"/>
        </g>
        <g latexdraw:type="dot" id="id994478841" latexdraw:size="10.0"
            latexdraw:dotShape="*" latexdraw:position="540.0 200.0">
            <path
                d="M 544.6153846153846 200.0 C 544.6153846153846 202.54900653768058 542.5490065376806 204.6153846153846 540.0 204.6153846153846 C 537.4509934623194 204.6153846153846 535.3846153846154 202.54900653768058 535.3846153846154 200.0 C 535.3846153846154 197.45099346231942 537.4509934623194 195.3846153846154 540.0 195.3846153846154 C 542.5490065376806 195.3846153846154 544.6153846153846 197.45099346231942 544.6153846153846 200.0 z "
                fill="#00ff99" stroke-linecap="square"
                stroke-linejoin="butt" stroke-width="0.625"
                stroke-miterlimit="10.0" stroke-dashoffset="0.0" stroke="#00ff99"/>
        </g>
        <g latexdraw:type="dot" id="id996473401" latexdraw:size="10.0"
            latexdraw:dotShape="*" latexdraw:position="560.0 220.0">
            <path
                d="M 564.6153846153846 220.0 C 564.6153846153846 222.54900653768058 562.5490065376806 224.6153846153846 560.0 224.6153846153846 C 557.4509934623194 224.6153846153846 555.3846153846154 222.54900653768058 555.3846153846154 220.0 C 555.3846153846154 217.45099346231942 557.4509934623194 215.3846153846154 560.0 215.3846153846154 C 562.5490065376806 215.3846153846154 564.6153846153846 217.45099346231942 564.6153846153846 220.0 z "
                fill="#00ff99" stroke-linecap="square"
                stroke-linejoin="butt" stroke-width="0.625"
                stroke-miterlimit="10.0" stroke-dashoffset="0.0" stroke="#00ff99"/>
        </g>
        <g latexdraw:type="dot" id="id2115759855" latexdraw:size="10.0"
            latexdraw:dotShape="*" latexdraw:position="580.0 240.0">
            <path
                d="M 584.6153846153846 240.0 C 584.6153846153846 242.54900653768058 582.5490065376806 244.6153846153846 580.0 244.6153846153846 C 577.4509934623194 244.6153846153846 575.3846153846154 242.54900653768058 575.3846153846154 240.0 C 575.3846153846154 237.45099346231942 577.4509934623194 235.3846153846154 580.0 235.3846153846154 C 582.5490065376806 235.3846153846154 584.6153846153846 237.45099346231942 584.6153846153846 240.0 z "
                fill="#ff9900" stroke-linecap="square"
                stroke-linejoin="butt" stroke-width="0.625"
                stroke-miterlimit="10.0" stroke-dashoffset="0.0" stroke="#ff9900"/>
        </g>
        <g latexdraw:type="dot" id="id1341383699" latexdraw:size="10.0"
            latexdraw:dotShape="*" latexdraw:position="600.0 260.0">
            <path
                d="M 604.6153846153846 260.0 C 604.6153846153846 262.5490065376806 602.5490065376806 264.61538461538464 600.0 264.61538461538464 C 597.4509934623194 264.61538461538464 595.3846153846154 262.5490065376806 595.3846153846154 260.0 C 595.3846153846154 257.4509934623194 597.4509934623194 255.3846153846154 600.0 255.3846153846154 C 602.5490065376806 255.3846153846154 604.6153846153846 257.4509934623194 604.6153846153846 260.0 z "
                fill="#ff9900" stroke-linecap="square"
                stroke-linejoin="butt" stroke-width="0.625"
                stroke-miterlimit="10.0" stroke-dashoffset="0.0" stroke="#ff9900"/>
        </g>
        <g latexdraw:type="dot" id="id2094550385" latexdraw:size="10.0"
            latexdraw:dotShape="*" latexdraw:position="620.0 280.0">
            <path
                d="M 624.6153846153846 280.0 C 624.6153846153846 282.54900653768055 622.5490065376806 284.6153846153846 620.0 284.6153846153846 C 617.4509934623194 284.6153846153846 615.3846153846154 282.54900653768055 615.3846153846154 280.0 C 615.3846153846154 277.4509934623194 617.4509934623194 275.38461538461536 620.0 275.38461538461536 C 622.5490065376806 275.38461538461536 624.6153846153846 277.4509934623194 624.6153846153846 280.0 z "
                fill="#ff9900" stroke-linecap="square"
                stroke-linejoin="butt" stroke-width="0.625"
                stroke-miterlimit="10.0" stroke-dashoffset="0.0" stroke="#ff9900"/>
        </g>
        <g latexdraw:type="dot" id="id1542874464" latexdraw:size="10.0"
            latexdraw:dotShape="*" latexdraw:position="640.0 300.0">
            <path
                d="M 644.6153846153846 300.0 C 644.6153846153846 302.54900653768055 642.5490065376806 304.6153846153846 640.0 304.6153846153846 C 637.4509934623194 304.6153846153846 635.3846153846154 302.54900653768055 635.3846153846154 300.0 C 635.3846153846154 297.4509934623194 637.4509934623194 295.38461538461536 640.0 295.38461538461536 C 642.5490065376806 295.38461538461536 644.6153846153846 297.4509934623194 644.6153846153846 300.0 z "
                fill="#ff9900" stroke-linecap="square"
                stroke-linejoin="butt" stroke-width="0.625"
                stroke-miterlimit="10.0" stroke-dashoffset="0.0" stroke="#ff9900"/>
        </g>
        <g latexdraw:type="dot" id="id1272601144" latexdraw:size="10.0"
            latexdraw:dotShape="*" latexdraw:position="660.0 320.0">
            <path
                d="M 664.6153846153846 320.0 C 664.6153846153846 322.54900653768055 662.5490065376806 324.6153846153846 660.0 324.6153846153846 C 657.4509934623194 324.6153846153846 655.3846153846154 322.54900653768055 655.3846153846154 320.0 C 655.3846153846154 317.4509934623194 657.4509934623194 315.38461538461536 660.0 315.38461538461536 C 662.5490065376806 315.38461538461536 664.6153846153846 317.4509934623194 664.6153846153846 320.0 z "
                fill="#00ff99" stroke-linecap="square"
                stroke-linejoin="butt" stroke-width="0.625"
                stroke-miterlimit="10.0" stroke-dashoffset="0.0" stroke="#00ff99"/>
        </g>
        <g latexdraw:type="dot" id="id1461000987" latexdraw:size="10.0"
            latexdraw:dotShape="*" latexdraw:position="680.0 340.0">
            <path
                d="M 684.6153846153846 340.0 C 684.6153846153846 342.54900653768055 682.5490065376806 344.6153846153846 680.0 344.6153846153846 C 677.4509934623194 344.6153846153846 675.3846153846154 342.54900653768055 675.3846153846154 340.0 C 675.3846153846154 337.4509934623194 677.4509934623194 335.38461538461536 680.0 335.38461538461536 C 682.5490065376806 335.38461538461536 684.6153846153846 337.4509934623194 684.6153846153846 340.0 z "
                fill="#00ff99" stroke-linecap="square"
                stroke-linejoin="butt" stroke-width="0.625"
                stroke-miterlimit="10.0" stroke-dashoffset="0.0" stroke="#00ff99"/>
        </g>
        <g latexdraw:type="dot" id="id111183047" latexdraw:size="10.0"
            latexdraw:dotShape="*" latexdraw:position="700.0 360.0">
            <path
                d="M 704.6153846153846 360.0 C 704.6153846153846 362.54900653768055 702.5490065376806 364.6153846153846 700.0 364.6153846153846 C 697.4509934623194 364.6153846153846 695.3846153846154 362.54900653768055 695.3846153846154 360.0 C 695.3846153846154 357.4509934623194 697.4509934623194 355.38461538461536 700.0 355.38461538461536 C 702.5490065376806 355.38461538461536 704.6153846153846 357.4509934623194 704.6153846153846 360.0 z "
                fill="#00cc00" stroke-linecap="square"
                stroke-linejoin="butt" stroke-width="0.625"
                stroke-miterlimit="10.0" stroke-dashoffset="0.0" stroke="#00cc00"/>
        </g>
        <g latexdraw:type="dot" id="id1422822646" latexdraw:size="10.0"
            latexdraw:dotShape="*" latexdraw:position="720.0 380.0">
            <path
                d="M 724.6153846153846 380.0 C 724.6153846153846 382.54900653768055 722.5490065376806 384.6153846153846 720.0 384.6153846153846 C 717.4509934623194 384.6153846153846 715.3846153846154 382.54900653768055 715.3846153846154 380.0 C 715.3846153846154 377.4509934623194 717.4509934623194 375.38461538461536 720.0 375.38461538461536 C 722.5490065376806 375.38461538461536 724.6153846153846 377.4509934623194 724.6153846153846 380.0 z "
                fill="#00cc00" stroke-linecap="square"
                stroke-linejoin="butt" stroke-width="0.625"
                stroke-miterlimit="10.0" stroke-dashoffset="0.0" stroke="#00cc00"/>
        </g>
        <g latexdraw:type="dot" id="id646934620" latexdraw:size="10.0"
            latexdraw:dotShape="*" latexdraw:position="740.0 400.0">
            <path
                d="M 744.6153846153846 400.0 C 744.6153846153846 402.54900653768055 742.5490065376806 404.6153846153846 740.0 404.6153846153846 C 737.4509934623194 404.6153846153846 735.3846153846154 402.54900653768055 735.3846153846154 400.0 C 735.3846153846154 397.4509934623194 737.4509934623194 395.38461538461536 740.0 395.38461538461536 C 742.5490065376806 395.38461538461536 744.6153846153846 397.4509934623194 744.6153846153846 400.0 z "
                fill="#00cc00" stroke-linecap="square"
                stroke-linejoin="butt" stroke-width="0.625"
                stroke-miterlimit="10.0" stroke-dashoffset="0.0" stroke="#00cc00"/>
        </g>
        <g latexdraw:type="dot" id="id452611126" latexdraw:size="10.0"
            latexdraw:dotShape="*" latexdraw:position="760.0 420.0">
            <path
                d="M 764.6153846153846 420.0 C 764.6153846153846 422.54900653768055 762.5490065376806 424.6153846153846 760.0 424.6153846153846 C 757.4509934623194 424.6153846153846 755.3846153846154 422.54900653768055 755.3846153846154 420.0 C 755.3846153846154 417.4509934623194 757.4509934623194 415.38461538461536 760.0 415.38461538461536 C 762.5490065376806 415.38461538461536 764.6153846153846 417.4509934623194 764.6153846153846 420.0 z "
                fill="#00cc00" stroke-linecap="square"
                stroke-linejoin="butt" stroke-width="0.625"
                stroke-miterlimit="10.0" stroke-dashoffset="0.0" stroke="#00cc00"/>
        </g>
        <g latexdraw:type="dot" id="id751156551" latexdraw:size="10.0"
            latexdraw:dotShape="*" latexdraw:position="780.0 440.0">
            <path
                d="M 784.6153846153846 440.0 C 784.6153846153846 442.54900653768055 782.5490065376806 444.6153846153846 780.0 444.6153846153846 C 777.4509934623194 444.6153846153846 775.3846153846154 442.54900653768055 775.3846153846154 440.0 C 775.3846153846154 437.4509934623194 777.4509934623194 435.38461538461536 780.0 435.38461538461536 C 782.5490065376806 435.38461538461536 784.6153846153846 437.4509934623194 784.6153846153846 440.0 z "
                fill="#00ff99" stroke-linecap="square"
                stroke-linejoin="butt" stroke-width="0.625"
                stroke-miterlimit="10.0" stroke-dashoffset="0.0" stroke="#00ff99"/>
        </g>
        <g latexdraw:type="dot" id="id1431610931" latexdraw:size="10.0"
            latexdraw:dotShape="*" latexdraw:position="800.0 460.0">
            <path
                d="M 804.6153846153846 460.0 C 804.6153846153846 462.54900653768055 802.5490065376806 464.6153846153846 800.0 464.6153846153846 C 797.4509934623194 464.6153846153846 795.3846153846154 462.54900653768055 795.3846153846154 460.0 C 795.3846153846154 457.4509934623194 797.4509934623194 455.38461538461536 800.0 455.38461538461536 C 802.5490065376806 455.38461538461536 804.6153846153846 457.4509934623194 804.6153846153846 460.0 z "
                fill="#00ff99" stroke-linecap="square"
                stroke-linejoin="butt" stroke-width="0.625"
                stroke-miterlimit="10.0" stroke-dashoffset="0.0" stroke="#00ff99"/>
        </g>
        <g latexdraw:type="dot" id="id404515637" latexdraw:size="10.0"
            latexdraw:dotShape="*" latexdraw:position="820.0 480.0">
            <path
                d="M 824.6153846153846 480.0 C 824.6153846153846 482.54900653768055 822.5490065376806 484.6153846153846 820.0 484.6153846153846 C 817.4509934623194 484.6153846153846 815.3846153846154 482.54900653768055 815.3846153846154 480.0 C 815.3846153846154 477.4509934623194 817.4509934623194 475.38461538461536 820.0 475.38461538461536 C 822.5490065376806 475.38461538461536 824.6153846153846 477.4509934623194 824.6153846153846 480.0 z "
                fill="#cc0000" stroke-linecap="square"
                stroke-linejoin="butt" stroke-width="0.625"
                stroke-miterlimit="10.0" stroke-dashoffset="0.0" stroke="#cc0000"/>
        </g>
        <g latexdraw:type="dot" id="id1309094922" latexdraw:size="10.0"
            latexdraw:dotShape="*" latexdraw:position="840.0 500.0">
            <path
                d="M 844.6153846153846 500.0 C 844.6153846153846 502.54900653768055 842.5490065376806 504.6153846153846 840.0 504.6153846153846 C 837.4509934623194 504.6153846153846 835.3846153846154 502.54900653768055 835.3846153846154 500.0 C 835.3846153846154 497.4509934623194 837.4509934623194 495.38461538461536 840.0 495.38461538461536 C 842.5490065376806 495.38461538461536 844.6153846153846 497.4509934623194 844.6153846153846 500.0 z "
                fill="#cc0000" stroke-linecap="square"
                stroke-linejoin="butt" stroke-width="0.625"
                stroke-miterlimit="10.0" stroke-dashoffset="0.0" stroke="#cc0000"/>
        </g>
        <g latexdraw:type="dot" id="id440257821" latexdraw:size="10.0"
            latexdraw:dotShape="*" latexdraw:position="860.0 520.0">
            <path
                d="M 864.6153846153846 520.0 C 864.6153846153846 522.5490065376806 862.5490065376806 524.6153846153846 860.0 524.6153846153846 C 857.4509934623194 524.6153846153846 855.3846153846154 522.5490065376806 855.3846153846154 520.0 C 855.3846153846154 517.4509934623194 857.4509934623194 515.3846153846154 860.0 515.3846153846154 C 862.5490065376806 515.3846153846154 864.6153846153846 517.4509934623194 864.6153846153846 520.0 z "
                fill="#cc0000" stroke-linecap="square"
                stroke-linejoin="butt" stroke-width="0.625"
                stroke-miterlimit="10.0" stroke-dashoffset="0.0" stroke="#cc0000"/>
        </g>
        <g latexdraw:type="dot" id="id403978837" latexdraw:size="10.0"
            latexdraw:dotShape="*" latexdraw:position="880.0 540.0">
            <path
                d="M 884.6153846153846 540.0 C 884.6153846153846 542.5490065376806 882.5490065376806 544.6153846153846 880.0 544.6153846153846 C 877.4509934623194 544.6153846153846 875.3846153846154 542.5490065376806 875.3846153846154 540.0 C 875.3846153846154 537.4509934623194 877.4509934623194 535.3846153846154 880.0 535.3846153846154 C 882.5490065376806 535.3846153846154 884.6153846153846 537.4509934623194 884.6153846153846 540.0 z "
                fill="#cc0000" stroke-linecap="square"
                stroke-linejoin="butt" stroke-width="0.625"
                stroke-miterlimit="10.0" stroke-dashoffset="0.0" stroke="#cc0000"/>
        </g>
        <g latexdraw:type="rectangle" id="id650518949">
            <rect x="409.0" y="69.0" width="121.0" height="121.0"
                latexdraw:borderPos="outer" stroke-width="2.0"
                stroke="#0000cc" fill="none"/>
        </g>
        <g latexdraw:type="rectangle" id="id1395306400">
            <rect x="535.0" y="193.0" width="133.0" height="135.0"
                latexdraw:borderPos="outer" stroke-width="2.0"
                stroke="#ff9900" fill="none"/>
        </g>
        <g latexdraw:type="rectangle" id="id871589594">
            <rect x="670.0" y="331.0" width="118.0" height="120.0"
                latexdraw:borderPos="outer" stroke-width="2.0"
                stroke="#009900" fill="none"/>
        </g>
        <g latexdraw:type="rectangle" id="id1672875049">
            <rect x="792.0" y="454.0" width="101.0" height="98.0"
                latexdraw:borderPos="outer" stroke-width="2.0"
                stroke="#cc0000" fill="none"/>
        </g>
    </g>
    <defs/>
    <metadata>
        <latexdraw:metadata>
            <latexdraw:latexIncludes/>
            <latexdraw:displayXScale>true</latexdraw:displayXScale>
            <latexdraw:displayYScale>true</latexdraw:displayYScale>
            <latexdraw:unit>CM</latexdraw:unit>
            <latexdraw:zoom>1.0</latexdraw:zoom>
            <latexdraw:magneticGridStyle>CUSTOMISED</latexdraw:magneticGridStyle>
            <latexdraw:gridGap>20</latexdraw:gridGap>
            <latexdraw:magneticGrid>false</latexdraw:magneticGrid>
            <latexdraw:version>3.3.8</latexdraw:version>
            <latexdraw:size>
                <latexdraw:width>1680</latexdraw:width>
                <latexdraw:height>960</latexdraw:height>
            </latexdraw:size>
            <latexdraw:position>
                <latexdraw:x>0.0</latexdraw:x>
                <latexdraw:y>23.0</latexdraw:y>
            </latexdraw:position>
        </latexdraw:metadata>
    </metadata>
</svg>
