<?xml version="1.1" encoding="UTF-8"?>
<svg xmlns="http://www.w3.org/2000/svg"
    xmlns:latexdraw="http://latexdraw.sourceforge.net/namespaces/latexdraw"
    version="1.1" baseProfile="full">
    <g>
        <g latexdraw:type="joinedLines" id="id695350828">
            <polyline
                points="237.0,93.0 297.0,33.0 397.0,33.0 477.0,93.0 437.0,133.0 317.0,153.0 237.0,93.0 "
                stroke-width="2.0" stroke="black" fill="none" latexdraw:rotationAngle="0.0"/>
        </g>
        <g latexdraw:type="dot" id="id77563472" latexdraw:size="10.0"
            latexdraw:dotShape="*" latexdraw:position="237.0 233.0">
            <path
                d="M 241.6153846153846 233.0 C 241.6153846153846 235.54900653768058 239.54900653768058 237.6153846153846 237.0 237.6153846153846 C 234.45099346231942 237.6153846153846 232.3846153846154 235.54900653768058 232.3846153846154 233.0 C 232.3846153846154 230.45099346231942 234.45099346231942 228.3846153846154 237.0 228.3846153846154 C 239.54900653768058 228.3846153846154 241.6153846153846 230.45099346231942 241.6153846153846 233.0 z "
                fill="black" stroke-linecap="square"
                stroke-linejoin="butt" stroke-width="0.625"
                stroke-miterlimit="10.0" stroke-dashoffset="0.0" stroke="black"/>
        </g>
        <g latexdraw:type="dot" id="id536535121" latexdraw:size="10.0"
            latexdraw:dotShape="*" latexdraw:position="477.0 233.0">
            <path
                d="M 481.6153846153846 233.0 C 481.6153846153846 235.54900653768058 479.54900653768055 237.6153846153846 477.0 237.6153846153846 C 474.4509934623194 237.6153846153846 472.38461538461536 235.54900653768058 472.38461538461536 233.0 C 472.38461538461536 230.45099346231942 474.4509934623194 228.3846153846154 477.0 228.3846153846154 C 479.54900653768055 228.3846153846154 481.6153846153846 230.45099346231942 481.6153846153846 233.0 z "
                fill="black" stroke-linecap="square"
                stroke-linejoin="butt" stroke-width="0.625"
                stroke-miterlimit="10.0" stroke-dashoffset="0.0" stroke="black"/>
        </g>
        <g latexdraw:type="dot" id="id1226535341" latexdraw:size="10.0"
            latexdraw:dotShape="*" latexdraw:position="437.0 273.0">
            <path
                d="M 441.6153846153846 273.0 C 441.6153846153846 275.54900653768055 439.54900653768055 277.6153846153846 437.0 277.6153846153846 C 434.4509934623194 277.6153846153846 432.38461538461536 275.54900653768055 432.38461538461536 273.0 C 432.38461538461536 270.4509934623194 434.4509934623194 268.38461538461536 437.0 268.38461538461536 C 439.54900653768055 268.38461538461536 441.6153846153846 270.4509934623194 441.6153846153846 273.0 z "
                fill="black" stroke-linecap="square"
                stroke-linejoin="butt" stroke-width="0.625"
                stroke-miterlimit="10.0" stroke-dashoffset="0.0" stroke="black"/>
        </g>
        <g latexdraw:type="dot" id="id2028151093" latexdraw:size="10.0"
            latexdraw:dotShape="*" latexdraw:position="297.0 173.0">
            <path
                d="M 301.6153846153846 173.0 C 301.6153846153846 175.54900653768058 299.54900653768055 177.6153846153846 297.0 177.6153846153846 C 294.4509934623194 177.6153846153846 292.38461538461536 175.54900653768058 292.38461538461536 173.0 C 292.38461538461536 170.45099346231942 294.4509934623194 168.3846153846154 297.0 168.3846153846154 C 299.54900653768055 168.3846153846154 301.6153846153846 170.45099346231942 301.6153846153846 173.0 z "
                fill="black" stroke-linecap="square"
                stroke-linejoin="butt" stroke-width="0.625"
                stroke-miterlimit="10.0" stroke-dashoffset="0.0" stroke="black"/>
        </g>
        <g latexdraw:type="dot" id="id888868282" latexdraw:size="10.0"
            latexdraw:dotShape="*" latexdraw:position="397.0 173.0">
            <path
                d="M 401.6153846153846 173.0 C 401.6153846153846 175.54900653768058 399.54900653768055 177.6153846153846 397.0 177.6153846153846 C 394.4509934623194 177.6153846153846 392.38461538461536 175.54900653768058 392.38461538461536 173.0 C 392.38461538461536 170.45099346231942 394.4509934623194 168.3846153846154 397.0 168.3846153846154 C 399.54900653768055 168.3846153846154 401.6153846153846 170.45099346231942 401.6153846153846 173.0 z "
                fill="black" stroke-linecap="square"
                stroke-linejoin="butt" stroke-width="0.625"
                stroke-miterlimit="10.0" stroke-dashoffset="0.0" stroke="black"/>
        </g>
        <g latexdraw:type="dot" id="id39769701" latexdraw:size="10.0"
            latexdraw:dotShape="*" latexdraw:position="317.0 153.0">
            <path
                d="M 321.6153846153846 153.0 C 321.6153846153846 155.54900653768058 319.54900653768055 157.6153846153846 317.0 157.6153846153846 C 314.4509934623194 157.6153846153846 312.38461538461536 155.54900653768058 312.38461538461536 153.0 C 312.38461538461536 150.45099346231942 314.4509934623194 148.3846153846154 317.0 148.3846153846154 C 319.54900653768055 148.3846153846154 321.6153846153846 150.45099346231942 321.6153846153846 153.0 z "
                fill="black" stroke-linecap="square"
                stroke-linejoin="butt" stroke-width="0.625"
                stroke-miterlimit="10.0" stroke-dashoffset="0.0" stroke="black"/>
        </g>
        <g latexdraw:type="dot" id="id1263655636" latexdraw:size="10.0"
            latexdraw:dotShape="*" latexdraw:position="237.0 93.0">
            <path
                d="M 241.6153846153846 93.0 C 241.6153846153846 95.54900653768058 239.54900653768058 97.61538461538461 237.0 97.61538461538461 C 234.45099346231942 97.61538461538461 232.3846153846154 95.54900653768058 232.3846153846154 93.0 C 232.3846153846154 90.45099346231942 234.45099346231942 88.38461538461539 237.0 88.38461538461539 C 239.54900653768058 88.38461538461539 241.6153846153846 90.45099346231942 241.6153846153846 93.0 z "
                fill="black" stroke-linecap="square"
                stroke-linejoin="butt" stroke-width="0.625"
                stroke-miterlimit="10.0" stroke-dashoffset="0.0" stroke="black"/>
        </g>
        <g latexdraw:type="dot" id="id1906206999" latexdraw:size="10.0"
            latexdraw:dotShape="*" latexdraw:position="297.0 33.0">
            <path
                d="M 301.6153846153846 33.0 C 301.6153846153846 35.54900653768058 299.54900653768055 37.61538461538461 297.0 37.61538461538461 C 294.4509934623194 37.61538461538461 292.38461538461536 35.54900653768058 292.38461538461536 33.0 C 292.38461538461536 30.450993462319413 294.4509934623194 28.384615384615383 297.0 28.384615384615383 C 299.54900653768055 28.384615384615383 301.6153846153846 30.450993462319413 301.6153846153846 33.0 z "
                fill="black" stroke-linecap="square"
                stroke-linejoin="butt" stroke-width="0.625"
                stroke-miterlimit="10.0" stroke-dashoffset="0.0" stroke="black"/>
        </g>
        <g latexdraw:type="dot" id="id1336295349" latexdraw:size="10.0"
            latexdraw:dotShape="*" latexdraw:position="397.0 33.0">
            <path
                d="M 401.6153846153846 33.0 C 401.6153846153846 35.54900653768058 399.54900653768055 37.61538461538461 397.0 37.61538461538461 C 394.4509934623194 37.61538461538461 392.38461538461536 35.54900653768058 392.38461538461536 33.0 C 392.38461538461536 30.450993462319413 394.4509934623194 28.384615384615383 397.0 28.384615384615383 C 399.54900653768055 28.384615384615383 401.6153846153846 30.450993462319413 401.6153846153846 33.0 z "
                fill="black" stroke-linecap="square"
                stroke-linejoin="butt" stroke-width="0.625"
                stroke-miterlimit="10.0" stroke-dashoffset="0.0" stroke="black"/>
        </g>
        <g latexdraw:type="dot" id="id1931146136" latexdraw:size="10.0"
            latexdraw:dotShape="*" latexdraw:position="477.0 93.0">
            <path
                d="M 481.6153846153846 93.0 C 481.6153846153846 95.54900653768058 479.54900653768055 97.61538461538461 477.0 97.61538461538461 C 474.4509934623194 97.61538461538461 472.38461538461536 95.54900653768058 472.38461538461536 93.0 C 472.38461538461536 90.45099346231942 474.4509934623194 88.38461538461539 477.0 88.38461538461539 C 479.54900653768055 88.38461538461539 481.6153846153846 90.45099346231942 481.6153846153846 93.0 z "
                fill="black" stroke-linecap="square"
                stroke-linejoin="butt" stroke-width="0.625"
                stroke-miterlimit="10.0" stroke-dashoffset="0.0" stroke="black"/>
        </g>
        <g latexdraw:type="dot" id="id560807708" latexdraw:size="10.0"
            latexdraw:dotShape="*" latexdraw:position="437.0 133.0">
            <path
                d="M 441.6153846153846 133.0 C 441.6153846153846 135.54900653768058 439.54900653768055 137.6153846153846 437.0 137.6153846153846 C 434.4509934623194 137.6153846153846 432.38461538461536 135.54900653768058 432.38461538461536 133.0 C 432.38461538461536 130.45099346231942 434.4509934623194 128.3846153846154 437.0 128.3846153846154 C 439.54900653768055 128.3846153846154 441.6153846153846 130.45099346231942 441.6153846153846 133.0 z "
                fill="black" stroke-linecap="square"
                stroke-linejoin="butt" stroke-width="0.625"
                stroke-miterlimit="10.0" stroke-dashoffset="0.0" stroke="black"/>
        </g>
        <g latexdraw:type="joinedLines" id="id55858513">
            <polyline
                points="237.0,233.0 317.0,293.0 437.0,273.0 477.0,233.0 477.0,93.0 "
                stroke-width="2.0" stroke="black" fill="none" latexdraw:rotationAngle="0.0"/>
        </g>
        <g latexdraw:type="joinedLines" id="id1402950151">
            <polyline points="437.0,133.0 437.0,273.0 "
                stroke-width="2.0" stroke="black" latexdraw:rotationAngle="0.0"/>
        </g>
        <g latexdraw:type="joinedLines" id="id1644622163">
            <polyline points="317.0,153.0 317.0,293.0 "
                stroke-width="2.0" stroke="black" latexdraw:rotationAngle="0.0"/>
        </g>
        <g latexdraw:type="joinedLines" id="id1077178651">
            <polyline points="237.0,93.0 237.0,233.0 "
                stroke-width="2.0" stroke="black" latexdraw:rotationAngle="0.0"/>
        </g>
        <g latexdraw:type="joinedLines" id="id418182111">
            <polyline points="237.0,233.0 297.0,173.0 "
                stroke-width="2.0" stroke="black"
                stroke-dasharray="8.819444444444445, 5.291666666666667" latexdraw:rotationAngle="0.0"/>
        </g>
        <g latexdraw:type="joinedLines" id="id34740404">
            <polyline points="297.0,173.0 397.0,173.0 477.0,233.0 "
                stroke-width="2.0" stroke="black" fill="none"
                stroke-dasharray="8.819444444444445, 5.291666666666667" latexdraw:rotationAngle="0.0"/>
        </g>
        <g latexdraw:type="joinedLines" id="id414528785">
            <polyline points="397.0,173.0 397.0,33.0 "
                stroke-width="2.0" stroke="black"
                stroke-dasharray="8.819444444444445, 5.291666666666667" latexdraw:rotationAngle="0.0"/>
        </g>
        <g latexdraw:type="joinedLines" id="id54355682">
            <polyline points="297.0,173.0 297.0,33.0 "
                stroke-width="2.0" stroke="black"
                stroke-dasharray="8.819444444444445, 5.291666666666667" latexdraw:rotationAngle="0.0"/>
        </g>
        <g latexdraw:type="dot" id="id395164431" latexdraw:size="15.0"
            latexdraw:dotShape="*" latexdraw:position="349.0 138.0">
            <path
                d="M 355.92307692307696 138.0 C 355.92307692307696 141.82350980652086 352.8235098065209 144.9230769230769 349.0 144.9230769230769 C 345.17649019347914 144.9230769230769 342.0769230769231 141.82350980652086 342.0769230769231 138.0 C 342.0769230769231 134.1764901934791 345.17649019347914 131.07692307692307 349.0 131.07692307692307 C 352.8235098065209 131.07692307692307 355.92307692307696 134.1764901934791 355.92307692307696 138.0 z "
                fill="#666666" stroke-linecap="square"
                stroke-linejoin="butt" stroke-width="0.9375"
                stroke-miterlimit="10.0" stroke-dashoffset="0.0" stroke="#666666"/>
        </g>
        <g latexdraw:type="dot" id="id2123990517" latexdraw:size="10.0"
            latexdraw:dotShape="*" latexdraw:position="379.0 215.0">
            <path
                d="M 383.6153846153846 215.0 C 383.6153846153846 217.54900653768058 381.54900653768055 219.6153846153846 379.0 219.6153846153846 C 376.4509934623194 219.6153846153846 374.38461538461536 217.54900653768058 374.38461538461536 215.0 C 374.38461538461536 212.45099346231942 376.4509934623194 210.3846153846154 379.0 210.3846153846154 C 381.54900653768055 210.3846153846154 383.6153846153846 212.45099346231942 383.6153846153846 215.0 z "
                fill="#00cc00" stroke-linecap="square"
                stroke-linejoin="butt" stroke-width="0.625"
                stroke-miterlimit="10.0" stroke-dashoffset="0.0" stroke="#00cc00"/>
        </g>
        <g latexdraw:type="joinedLines" id="id1045227322">
            <polyline
                points="379.0,214.0 348.0,140.0 319.0,154.0 318.0,289.0 378.0,215.0 319.0,154.0 "
                stroke-width="2.0" stroke="#00cc00" fill="none" latexdraw:rotationAngle="0.0"/>
        </g>
        <g latexdraw:type="joinedLines" id="id779744544">
            <polyline points="317.0,291.0 348.0,142.0 "
                stroke-width="2.0" stroke="#00cc00"
                stroke-dasharray="8.819444444444445, 5.291666666666667" latexdraw:rotationAngle="0.0"/>
        </g>
        <g latexdraw:type="text" id="id1075461640" fill="#009900" latexdraw:position="bl">
            <text x="377.0" y="315.0">Face</text>
        </g>
        <g latexdraw:type="bezierCurve" id="id221317623">
            <path
                d="M 390.0 294.0 C 377.0 245.0 403.0 265.0 403.0 225.0 "
                stroke-width="1.0" stroke="black" fill="none" latexdraw:rotationAngle="0.0"/>
        </g>
        <g latexdraw:type="dot" id="id1714230890" latexdraw:size="15.0"
            latexdraw:dotShape="*" latexdraw:position="308.0 358.0">
            <path
                d="M 314.92307692307696 358.0 C 314.92307692307696 361.8235098065209 311.8235098065209 364.92307692307696 308.0 364.92307692307696 C 304.17649019347914 364.92307692307696 301.0769230769231 361.8235098065209 301.0769230769231 358.0 C 301.0769230769231 354.17649019347914 304.17649019347914 351.0769230769231 308.0 351.0769230769231 C 311.8235098065209 351.0769230769231 314.92307692307696 354.17649019347914 314.92307692307696 358.0 z "
                fill="#666666" stroke-linecap="square"
                stroke-linejoin="butt" stroke-width="0.9375"
                stroke-miterlimit="10.0" stroke-dashoffset="0.0" stroke="#666666"/>
        </g>
        <g latexdraw:type="text" id="id693277576" fill="black" latexdraw:position="bl">
            <text x="322.0" y="364.0">Cell center</text>
        </g>
        <g latexdraw:type="dot" id="id1324829400" latexdraw:size="10.0"
            latexdraw:dotShape="*" latexdraw:position="306.0 339.0">
            <path
                d="M 310.6153846153846 339.0 C 310.6153846153846 341.54900653768055 308.54900653768055 343.6153846153846 306.0 343.6153846153846 C 303.4509934623194 343.6153846153846 301.38461538461536 341.54900653768055 301.38461538461536 339.0 C 301.38461538461536 336.4509934623194 303.4509934623194 334.38461538461536 306.0 334.38461538461536 C 308.54900653768055 334.38461538461536 310.6153846153846 336.4509934623194 310.6153846153846 339.0 z "
                fill="#00cc00" stroke-linecap="square"
                stroke-linejoin="butt" stroke-width="0.625"
                stroke-miterlimit="10.0" stroke-dashoffset="0.0" stroke="#00cc00"/>
        </g>
        <g latexdraw:type="text" id="id2105235571" fill="black" latexdraw:position="bl">
            <text x="322.0" y="344.0">Face center</text>
        </g>
        <g latexdraw:type="rectangle" id="id1943548462">
            <rect x="165.5" y="26.5" width="675.0" height="359.0"
                latexdraw:borderPos="outer" stroke-width="1.0"
                stroke="white" fill="none"/>
        </g>
        <g latexdraw:type="dot" id="id1720785761" latexdraw:size="10.0"
            latexdraw:dotShape="*" latexdraw:position="317.0 293.0">
            <path
                d="M 321.6153846153846 293.0 C 321.6153846153846 295.54900653768055 319.54900653768055 297.6153846153846 317.0 297.6153846153846 C 314.4509934623194 297.6153846153846 312.38461538461536 295.54900653768055 312.38461538461536 293.0 C 312.38461538461536 290.4509934623194 314.4509934623194 288.38461538461536 317.0 288.38461538461536 C 319.54900653768055 288.38461538461536 321.6153846153846 290.4509934623194 321.6153846153846 293.0 z "
                fill="#0000cc" stroke-linecap="square"
                stroke-linejoin="butt" stroke-width="0.625"
                stroke-miterlimit="10.0" stroke-dashoffset="0.0" stroke="#0000cc"/>
        </g>
        <g latexdraw:type="joinedLines" id="id504744671">
            <polyline points="310.0,160.0 312.0,277.0 "
                stroke-width="1.0999999999999999" stroke="black"
                latexdraw:rotationAngle="0.0" marker-end="url(#arrow1-504744671)"/>
        </g>
        <g latexdraw:type="bezierCurve" id="id693891944">
            <path
                d="M 234.0 257.0 C 246.0 225.0 282.0 227.0 307.0 218.0 "
                stroke-width="1.0" stroke="black" fill="none" latexdraw:rotationAngle="0.0"/>
        </g>
        <g latexdraw:type="text" id="id1917191344" fill="black" latexdraw:position="bl">
            <text x="176.0" y="274.0">Face edge</text>
        </g>
        <g latexdraw:type="text" id="id1894009730" fill="black" latexdraw:position="bl">
            <text x="335.0" y="99.0">Edge vertex 0</text>
        </g>
        <g latexdraw:type="text" id="id818180289" fill="black" latexdraw:position="bl">
            <text x="215.0" y="317.0">Edge vertex 1</text>
        </g>
        <g latexdraw:type="bezierCurve" id="id679304758">
            <path
                d="M 317.0 145.0 C 328.0 100.0 350.0 142.0 350.0 102.0 "
                stroke-width="1.0" stroke="black" fill="none" latexdraw:rotationAngle="0.0"/>
        </g>
        <g latexdraw:type="joinedLines" id="id1381653564">
            <polyline points="626.0,240.0 626.0,60.0 "
                stroke-width="2.0" stroke="black"
                latexdraw:rotationAngle="0.0" marker-end="url(#arrow1-1381653564)"/>
        </g>
        <g latexdraw:type="joinedLines" id="id129950979">
            <polyline points="626.0,240.0 786.0,280.0 "
                stroke-width="2.0" stroke="black"
                latexdraw:rotationAngle="0.0" marker-end="url(#arrow1-129950979)"/>
        </g>
        <g latexdraw:type="joinedLines" id="id2060321167">
            <polyline points="626.0,240.0 746.0,160.0 "
                stroke-width="2.0" stroke="black"
                latexdraw:rotationAngle="0.0" marker-end="url(#arrow1-2060321167)"/>
        </g>
        <g latexdraw:type="text" id="id728352756" fill="black" latexdraw:position="bl">
            <text x="782.0" y="300.0">$\xi$</text>
        </g>
        <g latexdraw:type="text" id="id877282400" fill="black" latexdraw:position="bl">
            <text x="746.0" y="160.0">$\eta$</text>
        </g>
        <g latexdraw:type="text" id="id1418877021" fill="black" latexdraw:position="bl">
            <text x="630.0" y="66.0">$\zeta$</text>
        </g>
        <g latexdraw:type="dot" id="id155501131" latexdraw:size="10.0"
            latexdraw:dotShape="*" latexdraw:position="626.0 240.0">
            <path
                d="M 630.6153846153846 240.0 C 630.6153846153846 242.54900653768058 628.5490065376806 244.6153846153846 626.0 244.6153846153846 C 623.4509934623194 244.6153846153846 621.3846153846154 242.54900653768058 621.3846153846154 240.0 C 621.3846153846154 237.45099346231942 623.4509934623194 235.3846153846154 626.0 235.3846153846154 C 628.5490065376806 235.3846153846154 630.6153846153846 237.45099346231942 630.6153846153846 240.0 z "
                fill="black" stroke-linecap="square"
                stroke-linejoin="butt" stroke-width="0.625"
                stroke-miterlimit="10.0" stroke-dashoffset="0.0" stroke="black"/>
        </g>
        <g latexdraw:type="dot" id="id1604085043" latexdraw:size="10.0"
            latexdraw:dotShape="*" latexdraw:position="746.0 270.0">
            <path
                d="M 750.6153846153846 270.0 C 750.6153846153846 272.54900653768055 748.5490065376806 274.6153846153846 746.0 274.6153846153846 C 743.4509934623194 274.6153846153846 741.3846153846154 272.54900653768055 741.3846153846154 270.0 C 741.3846153846154 267.4509934623194 743.4509934623194 265.38461538461536 746.0 265.38461538461536 C 748.5490065376806 265.38461538461536 750.6153846153846 267.4509934623194 750.6153846153846 270.0 z "
                fill="#00cc00" stroke-linecap="square"
                stroke-linejoin="butt" stroke-width="0.625"
                stroke-miterlimit="10.0" stroke-dashoffset="0.0" stroke="#00cc00"/>
        </g>
        <g latexdraw:type="dot" id="id1254833360" latexdraw:size="10.0"
            latexdraw:dotShape="*" latexdraw:position="713.0 181.0">
            <path
                d="M 717.6153846153846 181.0 C 717.6153846153846 183.54900653768058 715.5490065376806 185.6153846153846 713.0 185.6153846153846 C 710.4509934623194 185.6153846153846 708.3846153846154 183.54900653768058 708.3846153846154 181.0 C 708.3846153846154 178.45099346231942 710.4509934623194 176.3846153846154 713.0 176.3846153846154 C 715.5490065376806 176.3846153846154 717.6153846153846 178.45099346231942 717.6153846153846 181.0 z "
                fill="#0000cc" stroke-linecap="square"
                stroke-linejoin="butt" stroke-width="0.625"
                stroke-miterlimit="10.0" stroke-dashoffset="0.0" stroke="#0000cc"/>
        </g>
        <g latexdraw:type="dot" id="id1689292317" latexdraw:size="15.0"
            latexdraw:dotShape="*" latexdraw:position="626.0 106.0">
            <path
                d="M 632.9230769230769 106.0 C 632.9230769230769 109.82350980652089 629.8235098065209 112.92307692307693 626.0 112.92307692307693 C 622.1764901934791 112.92307692307693 619.0769230769231 109.82350980652089 619.0769230769231 106.0 C 619.0769230769231 102.17649019347913 622.1764901934791 99.07692307692308 626.0 99.07692307692308 C 629.8235098065209 99.07692307692308 632.9230769230769 102.17649019347913 632.9230769230769 106.0 z "
                fill="#666666" stroke-linecap="square"
                stroke-linejoin="butt" stroke-width="0.9375"
                stroke-miterlimit="10.0" stroke-dashoffset="0.0" stroke="#666666"/>
        </g>
        <g latexdraw:type="joinedLines" id="id800840588">
            <polyline
                points="627.0,107.0 744.0,267.0 712.0,183.0 627.0,108.0 "
                stroke-width="1.5" stroke="black" fill="none"
                stroke-dasharray="8.819444444444445, 5.291666666666667" latexdraw:rotationAngle="0.0"/>
        </g>
        <g latexdraw:type="text" id="id995467304" fill="black" latexdraw:position="bl">
            <text x="724.0" y="193.0">Edge vertex 1</text>
        </g>
        <g latexdraw:type="text" id="id85449278" fill="black" latexdraw:position="bl">
            <text x="513.0" y="261.0">Edge vertex 0</text>
        </g>
        <g latexdraw:type="text" id="id1646666317" fill="black" latexdraw:position="bl">
            <text x="657.0" y="292.0">Face center</text>
        </g>
        <g latexdraw:type="text" id="id1185346686" fill="black" latexdraw:position="bl">
            <text x="532.0" y="117.0">Cell center</text>
        </g>
    </g>
    <defs>
        <marker overflow="visible" orient="auto" id="arrow1-504744671">
            <path
                d="M 0.0 0.0 L -6.167424242424243 2.2026515151515156 L -6.167424242424243 0.0 L -6.167424242424243 -2.2026515151515156 z "
                latexdraw:arrSizeNum="2.0" fill="black"/>
        </marker>
        <marker overflow="visible" orient="auto" id="arrow1-1381653564">
            <path
                d="M 0.0 0.0 L -4.652083333333334 1.6614583333333335 L -4.652083333333334 0.0 L -4.652083333333334 -1.6614583333333335 z "
                latexdraw:arrSizeNum="2.0" fill="black"/>
        </marker>
        <marker overflow="visible" orient="auto" id="arrow1-129950979">
            <path
                d="M 0.0 0.0 L -4.652083333333334 1.6614583333333335 L -4.652083333333334 0.0 L -4.652083333333334 -1.6614583333333335 z "
                latexdraw:arrSizeNum="2.0" fill="black"/>
        </marker>
        <marker overflow="visible" orient="auto" id="arrow1-2060321167">
            <path
                d="M 0.0 0.0 L -4.652083333333334 1.6614583333333335 L -4.652083333333334 0.0 L -4.652083333333334 -1.6614583333333335 z "
                latexdraw:arrSizeNum="2.0" fill="black"/>
        </marker>
    </defs>
    <metadata>
        <latexdraw:metadata>
            <latexdraw:latexIncludes/>
            <latexdraw:displayXScale>true</latexdraw:displayXScale>
            <latexdraw:displayYScale>true</latexdraw:displayYScale>
            <latexdraw:unit>CM</latexdraw:unit>
            <latexdraw:zoom>1.0</latexdraw:zoom>
            <latexdraw:magneticGridStyle>CUSTOMISED</latexdraw:magneticGridStyle>
            <latexdraw:gridGap>20</latexdraw:gridGap>
            <latexdraw:magneticGrid>false</latexdraw:magneticGrid>
            <latexdraw:version>3.3.8</latexdraw:version>
            <latexdraw:size>
                <latexdraw:width>1680</latexdraw:width>
                <latexdraw:height>958</latexdraw:height>
            </latexdraw:size>
            <latexdraw:position>
                <latexdraw:x>0.0</latexdraw:x>
                <latexdraw:y>23.0</latexdraw:y>
            </latexdraw:position>
        </latexdraw:metadata>
    </metadata>
</svg>
