# Blender v2.79 (sub 0) OBJ File: ''
# www.blender.org
o Cylinder.000_Cylinder.002
v -0.000000 1.100000 1.000000
v 0.477272 0.991065 -1.000000
v -0.000000 1.100000 -1.000000
v 0.477272 0.991065 1.000000
v 0.860015 0.685838 -1.000000
v 0.860015 0.685838 1.000000
v 1.072421 0.244772 -1.000000
v 1.072421 0.244772 1.000000
v 1.072421 -0.244773 -1.000000
v 1.072421 -0.244773 1.000000
v 0.860015 -0.685839 -1.000000
v 0.860015 -0.685839 1.000000
v 0.477272 -0.991066 -1.000000
v 0.477272 -0.991066 1.000000
v -0.000000 -1.100000 -1.000000
v -0.000000 -1.100000 1.000000
v -0.477273 -0.991066 -1.000000
v -0.477273 -0.991066 1.000000
v -0.860014 -0.685839 -1.000000
v -0.860014 -0.685839 1.000000
v -1.072421 -0.244773 -1.000000
v -1.072421 -0.244773 1.000000
v -1.072421 0.244773 -1.000000
v -1.072421 0.244773 1.000000
v -0.860014 0.685839 -1.000000
v -0.860014 0.685839 1.000000
v -0.477272 0.991066 -1.000000
v -0.477272 0.991066 1.000000
v -0.414161 0.905470 1.000000
v -0.433883 0.900969 1.000000
v -0.039146 0.991065 -1.000000
v -0.336390 0.923221 -1.000000
v -0.433883 0.900969 -1.000000
v -0.019722 0.995499 -1.000000
v -0.449699 0.888356 -1.000000
v -0.750441 0.648522 -1.000000
v -0.781831 0.623490 -1.000000
v -0.766015 0.636103 1.000000
v -0.781831 0.623490 1.000000
v -0.799251 0.587317 -1.000000
v -0.964212 0.244773 -1.000000
v -0.790608 0.605264 -1.000000
v -0.966151 0.240747 1.000000
v -0.974928 0.222521 1.000000
v -0.974928 0.222521 -1.000000
v -0.703648 0.685839 1.000000
v -0.762521 0.638889 1.000000
v -0.974928 0.182371 1.000000
v -0.974928 -0.202292 1.000000
v -0.974928 0.202292 -1.000000
v -0.974928 -0.222521 1.000000
v -0.799250 -0.587319 1.000000
v -0.974928 -0.222521 -1.000000
v -0.966151 -0.240747 -1.000000
v -0.790608 -0.605264 1.000000
v -0.750443 -0.648522 1.000000
v -0.512067 -0.838620 1.000000
v -0.449700 -0.888356 1.000000
v -0.781831 -0.623490 -1.000000
v -0.766015 -0.636103 -1.000000
v -0.781831 -0.623490 1.000000
v -0.433884 -0.900969 1.000000
v -0.336391 -0.923221 1.000000
v -0.433884 -0.900969 -1.000000
v -0.414162 -0.905470 -1.000000
v -0.019722 -0.995499 1.000000
v 0.966151 -0.240747 1.000000
v 0.974928 -0.222521 1.000000
v 0.974928 -0.222521 -1.000000
v 0.957508 -0.258694 -1.000000
v 0.790609 -0.605264 -1.000000
v 0.781832 -0.623490 -1.000000
v 0.465275 -0.875936 -1.000000
v 0.766016 -0.636103 1.000000
v 0.781832 -0.623490 1.000000
v 0.449700 -0.888356 -1.000000
v -0.974928 0.042327 -1.000000
v -0.974928 0.122521 -1.000000
v -0.974928 -0.182371 -1.000000
v -0.574766 -0.788619 -1.000000
v 0.974928 0.202291 1.000000
v 0.974928 0.222520 1.000000
v 0.974928 -0.202292 -1.000000
v 0.974928 -0.182372 -1.000000
v 0.974928 0.122520 -1.000000
v 0.974928 0.222520 -1.000000
v -0.097493 -0.977748 -1.000000
v 0.000000 -1.000000 1.000000
v 0.000000 -1.000000 -1.000000
v 0.799253 0.587313 -1.000000
v 0.931540 0.312617 -1.000000
v 0.964212 0.244772 -1.000000
v 0.781832 0.623489 -1.000000
v 0.790609 0.605263 1.000000
v 0.781832 0.623489 1.000000
v 0.966151 0.240746 -1.000000
v 0.394740 -0.909903 -1.000000
v 0.097493 -0.977748 -1.000000
v 0.019722 -0.995499 -1.000000
v 0.414162 -0.905470 1.000000
v 0.433884 -0.900969 1.000000
v 0.433884 -0.900969 -1.000000
v -0.258208 0.941066 1.000000
v 0.000000 1.000000 1.000000
v 0.000000 1.000000 -1.000000
v 0.957508 0.258693 1.000000
v 0.974928 -0.197823 1.000000
v 0.974928 0.182370 1.000000
v -0.957507 0.258695 1.000000
v -0.825220 0.533393 1.000000
v 0.449700 0.888355 1.000000
v 0.465273 0.875936 1.000000
v 0.640951 0.735838 1.000000
v 0.703649 0.685838 1.000000
v 0.766016 0.636102 -1.000000
v -0.957507 -0.258695 -1.000000
v 0.433884 0.900968 1.000000
v 0.394742 0.909902 1.000000
v 0.019722 0.995498 1.000000
v 0.433884 0.900968 -1.000000
v 0.414162 0.905469 -1.000000
v 0.931540 -0.312618 1.000000
v 0.896745 -0.384870 1.000000
v 0.799253 -0.587314 1.000000
v 0.750440 -0.648525 1.000000
v 0.039146 0.991065 -1.000000
v 0.750440 0.648523 -1.000000
v 0.175676 -0.959903 1.000000
vn 0.2225 0.9749 0.0000
vn 0.6235 0.7818 0.0000
vn 0.9010 0.4339 0.0000
vn 1.0000 0.0000 0.0000
vn 0.9010 -0.4339 0.0000
vn 0.6235 -0.7818 0.0000
vn 0.2225 -0.9749 0.0000
vn -0.2225 -0.9749 0.0000
vn -0.6235 -0.7818 0.0000
vn -0.9010 -0.4339 0.0000
vn -1.0000 0.0000 0.0000
vn -0.9010 0.4339 0.0000
vn 0.0000 -0.0000 1.0000
vn -0.6235 0.7818 0.0000
vn -0.2225 0.9749 0.0000
vn 0.0000 -0.0000 -1.0000
s off
f 1//1 2//1 3//1
f 4//2 5//2 2//2
f 6//3 7//3 5//3
f 8//4 9//4 7//4
f 10//5 11//5 9//5
f 12//6 13//6 11//6
f 14//7 15//7 13//7
f 16//8 17//8 15//8
f 18//9 19//9 17//9
f 20//10 21//10 19//10
f 22//11 23//11 21//11
f 24//12 25//12 23//12
f 26//13 38//13 47//13
f 26//14 27//14 25//14
f 28//15 3//15 27//15
f 7//16 86//16 96//16
f 1//1 4//1 2//1
f 4//2 6//2 5//2
f 6//3 8//3 7//3
f 8//4 10//4 9//4
f 10//5 12//5 11//5
f 12//6 14//6 13//6
f 14//7 16//7 15//7
f 16//8 18//8 17//8
f 18//9 20//9 19//9
f 20//10 22//10 21//10
f 22//11 24//11 23//11
f 24//12 26//12 25//12
f 4//13 111//13 112//13
f 1//13 119//13 118//13
f 24//13 43//13 109//13
f 20//13 55//13 52//13
f 16//13 66//13 63//13
f 12//13 74//13 125//13
f 8//13 81//13 108//13
f 6//13 113//13 114//13
f 26//13 109//13 110//13
f 14//13 101//13 100//13
f 10//13 108//13 107//13
f 26//14 28//14 27//14
f 28//15 1//15 3//15
f 3//16 34//16 31//16
f 5//16 115//16 127//16
f 9//16 83//16 84//16
f 13//16 102//16 76//16
f 17//16 64//16 65//16
f 21//16 54//16 116//16
f 25//16 37//16 42//16
f 27//16 31//16 32//16
f 7//16 84//16 85//16
f 19//16 59//16 60//16
f 23//16 40//16 41//16
f 34//7 104//7 103//7
f 73//14 76//14 74//14
f 32//7 31//7 29//7
f 87//1 65//1 66//1
f 42//5 110//5 109//5
f 92//16 91//16 7//16
f 33//16 35//16 27//16
f 99//15 88//15 128//15
f 85//11 84//11 81//11
f 116//3 54//3 55//3
f 126//8 121//8 119//8
f 115//9 114//9 113//9
f 57//13 56//13 18//13
f 51//13 49//13 22//13
f 121//8 117//8 118//8
f 77//16 79//16 23//16
f 91//16 90//16 7//16
f 121//16 126//16 2//16
f 71//12 124//12 123//12
f 30//13 29//13 28//13
f 98//16 97//16 15//16
f 72//16 71//16 11//16
f 123//13 124//13 10//13
f 112//13 113//13 6//13
f 83//11 107//11 108//11
f 45//16 50//16 23//16
f 99//16 98//16 15//16
f 54//3 51//3 52//3
f 127//9 115//9 111//9
f 78//16 77//16 23//16
f 76//14 101//14 125//14
f 97//15 98//15 100//15
f 70//12 71//12 67//12
f 77//4 78//4 49//4
f 41//5 40//5 43//5
f 60//2 61//2 56//2
f 36//6 35//6 38//6
f 80//2 60//2 58//2
f 50//4 44//4 48//4
f 91//10 92//10 94//10
f 96//10 82//10 106//10
f 35//6 46//6 47//6
f 68//13 67//13 10//13
f 58//13 57//13 18//13
f 65//1 62//1 63//1
f 47//13 46//13 26//13
f 95//13 94//13 6//13
f 122//13 123//13 10//13
f 26//13 110//13 39//13
f 39//13 38//13 26//13
f 7//16 85//16 86//16
f 96//16 92//16 7//16
f 112//13 6//13 4//13
f 4//13 1//13 118//13
f 117//13 111//13 4//13
f 4//13 118//13 117//13
f 1//13 28//13 103//13
f 104//13 119//13 1//13
f 1//13 103//13 104//13
f 109//13 26//13 24//13
f 24//13 22//13 48//13
f 44//13 43//13 24//13
f 24//13 48//13 44//13
f 52//13 22//13 20//13
f 20//13 18//13 56//13
f 61//13 55//13 20//13
f 20//13 56//13 61//13
f 63//13 18//13 16//13
f 16//13 128//13 88//13
f 88//13 66//13 16//13
f 125//13 14//13 12//13
f 12//13 10//13 124//13
f 75//13 74//13 12//13
f 12//13 124//13 75//13
f 108//13 10//13 8//13
f 8//13 6//13 106//13
f 82//13 81//13 8//13
f 8//13 106//13 82//13
f 128//13 16//13 14//13
f 14//13 125//13 101//13
f 100//13 128//13 14//13
f 31//16 27//16 3//16
f 3//16 2//16 126//16
f 105//16 34//16 3//16
f 3//16 126//16 105//16
f 127//16 2//16 5//16
f 5//16 7//16 90//16
f 93//16 115//16 5//16
f 5//16 90//16 93//16
f 84//16 7//16 9//16
f 9//16 11//16 70//16
f 69//16 83//16 9//16
f 9//16 70//16 69//16
f 73//16 11//16 13//16
f 13//16 15//16 97//16
f 13//16 97//16 102//16
f 76//16 73//16 13//16
f 87//16 15//16 17//16
f 17//16 80//16 64//16
f 65//16 87//16 17//16
f 116//16 19//16 21//16
f 21//16 23//16 79//16
f 53//16 54//16 21//16
f 21//16 79//16 53//16
f 40//16 23//16 25//16
f 25//16 27//16 36//16
f 25//16 36//16 37//16
f 42//16 40//16 25//16
f 80//16 17//16 19//16
f 19//16 116//16 59//16
f 60//16 80//16 19//16
f 103//7 29//7 34//7
f 34//7 105//7 104//7
f 74//14 75//14 72//14
f 72//14 73//14 74//14
f 29//7 30//7 33//7
f 33//7 32//7 29//7
f 31//7 34//7 29//7
f 66//1 88//1 89//1
f 89//1 87//1 66//1
f 109//5 43//5 42//5
f 42//5 37//5 39//5
f 39//5 110//5 42//5
f 27//16 32//16 33//16
f 35//16 36//16 27//16
f 128//15 100//15 99//15
f 99//15 89//15 88//15
f 81//11 82//11 86//11
f 86//11 85//11 81//11
f 84//11 83//11 81//11
f 55//3 61//3 59//3
f 59//3 116//3 55//3
f 119//8 104//8 105//8
f 105//8 126//8 119//8
f 112//9 111//9 115//9
f 115//9 93//9 95//9
f 95//9 114//9 115//9
f 113//9 112//9 115//9
f 22//13 52//13 51//13
f 49//13 48//13 22//13
f 118//8 119//8 121//8
f 121//8 120//8 117//8
f 2//16 127//16 120//16
f 120//16 121//16 2//16
f 122//12 67//12 71//12
f 71//12 72//12 75//12
f 75//12 124//12 71//12
f 123//12 122//12 71//12
f 26//13 46//13 28//13
f 29//13 103//13 28//13
f 28//13 46//13 30//13
f 11//16 73//16 72//16
f 71//16 70//16 11//16
f 108//11 81//11 83//11
f 83//11 69//11 68//11
f 68//11 107//11 83//11
f 23//16 41//16 45//16
f 50//16 78//16 23//16
f 15//16 87//16 89//16
f 89//16 99//16 15//16
f 52//3 55//3 54//3
f 54//3 53//3 51//3
f 111//9 117//9 120//9
f 120//9 127//9 111//9
f 125//14 74//14 76//14
f 76//14 102//14 101//14
f 100//15 101//15 102//15
f 102//15 97//15 100//15
f 98//15 99//15 100//15
f 67//12 68//12 69//12
f 69//12 70//12 67//12
f 49//4 51//4 53//4
f 53//4 79//4 49//4
f 78//4 50//4 49//4
f 79//4 77//4 49//4
f 43//5 44//5 45//5
f 45//5 41//5 43//5
f 40//5 42//5 43//5
f 57//2 58//2 60//2
f 60//2 59//2 61//2
f 56//2 57//2 60//2
f 38//6 39//6 37//6
f 37//6 36//6 38//6
f 58//2 62//2 64//2
f 64//2 80//2 58//2
f 48//4 49//4 50//4
f 50//4 45//4 44//4
f 94//10 95//10 93//10
f 93//10 90//10 94//10
f 92//10 96//10 94//10
f 90//10 91//10 94//10
f 106//10 94//10 96//10
f 96//10 86//10 82//10
f 47//6 38//6 35//6
f 35//6 33//6 30//6
f 30//6 46//6 35//6
f 10//13 107//13 68//13
f 67//13 122//13 10//13
f 18//13 63//13 62//13
f 62//13 58//13 18//13
f 63//1 66//1 65//1
f 65//1 64//1 62//1
f 6//13 114//13 95//13
f 94//13 106//13 6//13
