# Exported mesh file from Extrusion script
o Mesh/Plane_VM
v -1.000000 -1.000000  0.000000
v  1.000000 -1.000000  0.000000
v -1.000000  1.000000  0.000000
v  1.000000  1.000000  0.000000
v -1.000000  0.000000  0.000000
v  0.000000 -1.000000  0.000000
v  1.000000  0.000000  0.000000
v  0.000000  1.000000  0.000000
v  0.000000  0.000000  0.000000
v -1.000000 -1.000000  1.000000
v  1.000000 -1.000000  1.000000
v -1.000000  1.000000  1.000000
v  1.000000  1.000000  1.000000
v -1.000000  0.000000  1.000000
v  0.000000 -1.000000  1.000000
v  1.000000  0.000000  1.000000
v  0.000000  1.000000  1.000000
v  0.000000  0.000000  1.000000
vn 1.0000 0.0000 0.0000
vn 0.0000 1.0000 0.0000
vn 0.0000 0.0000 -1.0000
vn 0.0000 0.0000 1.0000
vn 0.0000 1.0000 0.0000
vn -1.0000 0.0000 -0.0000
vn 0.0000 0.0000 -1.0000
vn 0.0000 0.0000 1.0000
vn 0.0000 -1.0000 -0.0000
vn -1.0000 0.0000 -0.0000
vn 0.0000 0.0000 -1.0000
vn 0.0000 0.0000 1.0000
vn 0.0000 -1.0000 -0.0000
vn 1.0000 0.0000 0.0000
vn 0.0000 0.0000 -1.0000
vn 0.0000 0.0000 1.0000
f 7//1 4//1 13//1 16//1
f 4//2 8//2 17//2 13//2
f 8//3 4//3 7//3 9//3
f 18//4 16//4 13//4 17//4
f 8//5 3//5 12//5 17//5
f 3//6 5//6 14//6 12//6
f 3//7 8//7 9//7 5//7
f 14//8 18//8 17//8 12//8
f 1//9 6//9 15//9 10//9
f 5//10 1//10 10//10 14//10
f 5//11 9//11 6//11 1//11
f 10//12 15//12 18//12 14//12
f 6//13 2//13 11//13 15//13
f 2//14 7//14 16//14 11//14
f 9//15 7//15 2//15 6//15
f 15//16 11//16 16//16 18//16
