<?xml version="1.1" encoding="UTF-8"?>
<svg xmlns="http://www.w3.org/2000/svg"
    xmlns:latexdraw="http://latexdraw.sourceforge.net/namespaces/latexdraw"
    version="1.1" baseProfile="full">
    <g>
        <g latexdraw:type="joinedLines" id="id2142910406">
            <polyline
                points="139.0,98.0 199.0,38.0 299.0,38.0 379.0,98.0 339.0,138.0 219.0,158.0 139.0,98.0 "
                stroke-width="2.0" stroke="black" fill="none" latexdraw:rotationAngle="0.0"/>
        </g>
        <g latexdraw:type="dot" id="id430674622" latexdraw:size="10.0"
            latexdraw:dotShape="*" latexdraw:position="139.0 238.0">
            <path
                d="M 143.6153846153846 238.0 C 143.6153846153846 240.54900653768058 141.54900653768058 242.6153846153846 139.0 242.6153846153846 C 136.45099346231942 242.6153846153846 134.3846153846154 240.54900653768058 134.3846153846154 238.0 C 134.3846153846154 235.45099346231942 136.45099346231942 233.3846153846154 139.0 233.3846153846154 C 141.54900653768058 233.3846153846154 143.6153846153846 235.45099346231942 143.6153846153846 238.0 z "
                fill="black" stroke-linecap="square"
                stroke-linejoin="butt" stroke-width="0.625"
                stroke-miterlimit="10.0" stroke-dashoffset="0.0" stroke="black"/>
        </g>
        <g latexdraw:type="dot" id="id142873468" latexdraw:size="10.0"
            latexdraw:dotShape="*" latexdraw:position="379.0 238.0">
            <path
                d="M 383.6153846153846 238.0 C 383.6153846153846 240.54900653768058 381.54900653768055 242.6153846153846 379.0 242.6153846153846 C 376.4509934623194 242.6153846153846 374.38461538461536 240.54900653768058 374.38461538461536 238.0 C 374.38461538461536 235.45099346231942 376.4509934623194 233.3846153846154 379.0 233.3846153846154 C 381.54900653768055 233.3846153846154 383.6153846153846 235.45099346231942 383.6153846153846 238.0 z "
                fill="black" stroke-linecap="square"
                stroke-linejoin="butt" stroke-width="0.625"
                stroke-miterlimit="10.0" stroke-dashoffset="0.0" stroke="black"/>
        </g>
        <g latexdraw:type="dot" id="id706568770" latexdraw:size="10.0"
            latexdraw:dotShape="*" latexdraw:position="339.0 278.0">
            <path
                d="M 343.6153846153846 278.0 C 343.6153846153846 280.54900653768055 341.54900653768055 282.6153846153846 339.0 282.6153846153846 C 336.4509934623194 282.6153846153846 334.38461538461536 280.54900653768055 334.38461538461536 278.0 C 334.38461538461536 275.4509934623194 336.4509934623194 273.38461538461536 339.0 273.38461538461536 C 341.54900653768055 273.38461538461536 343.6153846153846 275.4509934623194 343.6153846153846 278.0 z "
                fill="black" stroke-linecap="square"
                stroke-linejoin="butt" stroke-width="0.625"
                stroke-miterlimit="10.0" stroke-dashoffset="0.0" stroke="black"/>
        </g>
        <g latexdraw:type="dot" id="id1146559010" latexdraw:size="10.0"
            latexdraw:dotShape="*" latexdraw:position="219.0 298.0">
            <path
                d="M 223.6153846153846 298.0 C 223.6153846153846 300.54900653768055 221.54900653768058 302.6153846153846 219.0 302.6153846153846 C 216.45099346231942 302.6153846153846 214.3846153846154 300.54900653768055 214.3846153846154 298.0 C 214.3846153846154 295.4509934623194 216.45099346231942 293.38461538461536 219.0 293.38461538461536 C 221.54900653768058 293.38461538461536 223.6153846153846 295.4509934623194 223.6153846153846 298.0 z "
                fill="#ff6600" stroke-linecap="square"
                stroke-linejoin="butt" stroke-width="0.625"
                stroke-miterlimit="10.0" stroke-dashoffset="0.0" stroke="#ff6600"/>
        </g>
        <g latexdraw:type="dot" id="id1538961927" latexdraw:size="10.0"
            latexdraw:dotShape="*" latexdraw:position="199.0 178.0">
            <path
                d="M 203.6153846153846 178.0 C 203.6153846153846 180.54900653768058 201.54900653768058 182.6153846153846 199.0 182.6153846153846 C 196.45099346231942 182.6153846153846 194.3846153846154 180.54900653768058 194.3846153846154 178.0 C 194.3846153846154 175.45099346231942 196.45099346231942 173.3846153846154 199.0 173.3846153846154 C 201.54900653768058 173.3846153846154 203.6153846153846 175.45099346231942 203.6153846153846 178.0 z "
                fill="black" stroke-linecap="square"
                stroke-linejoin="butt" stroke-width="0.625"
                stroke-miterlimit="10.0" stroke-dashoffset="0.0" stroke="black"/>
        </g>
        <g latexdraw:type="dot" id="id1276279175" latexdraw:size="10.0"
            latexdraw:dotShape="*" latexdraw:position="299.0 178.0">
            <path
                d="M 303.6153846153846 178.0 C 303.6153846153846 180.54900653768058 301.54900653768055 182.6153846153846 299.0 182.6153846153846 C 296.4509934623194 182.6153846153846 294.38461538461536 180.54900653768058 294.38461538461536 178.0 C 294.38461538461536 175.45099346231942 296.4509934623194 173.3846153846154 299.0 173.3846153846154 C 301.54900653768055 173.3846153846154 303.6153846153846 175.45099346231942 303.6153846153846 178.0 z "
                fill="black" stroke-linecap="square"
                stroke-linejoin="butt" stroke-width="0.625"
                stroke-miterlimit="10.0" stroke-dashoffset="0.0" stroke="black"/>
        </g>
        <g latexdraw:type="dot" id="id2115853682" latexdraw:size="10.0"
            latexdraw:dotShape="*" latexdraw:position="219.0 158.0">
            <path
                d="M 223.6153846153846 158.0 C 223.6153846153846 160.54900653768058 221.54900653768058 162.6153846153846 219.0 162.6153846153846 C 216.45099346231942 162.6153846153846 214.3846153846154 160.54900653768058 214.3846153846154 158.0 C 214.3846153846154 155.45099346231942 216.45099346231942 153.3846153846154 219.0 153.3846153846154 C 221.54900653768058 153.3846153846154 223.6153846153846 155.45099346231942 223.6153846153846 158.0 z "
                fill="black" stroke-linecap="square"
                stroke-linejoin="butt" stroke-width="0.625"
                stroke-miterlimit="10.0" stroke-dashoffset="0.0" stroke="black"/>
        </g>
        <g latexdraw:type="dot" id="id1453218325" latexdraw:size="10.0"
            latexdraw:dotShape="*" latexdraw:position="139.0 98.0">
            <path
                d="M 143.6153846153846 98.0 C 143.6153846153846 100.54900653768058 141.54900653768058 102.61538461538461 139.0 102.61538461538461 C 136.45099346231942 102.61538461538461 134.3846153846154 100.54900653768058 134.3846153846154 98.0 C 134.3846153846154 95.45099346231942 136.45099346231942 93.38461538461539 139.0 93.38461538461539 C 141.54900653768058 93.38461538461539 143.6153846153846 95.45099346231942 143.6153846153846 98.0 z "
                fill="black" stroke-linecap="square"
                stroke-linejoin="butt" stroke-width="0.625"
                stroke-miterlimit="10.0" stroke-dashoffset="0.0" stroke="black"/>
        </g>
        <g latexdraw:type="dot" id="id2112217986" latexdraw:size="10.0"
            latexdraw:dotShape="*" latexdraw:position="199.0 38.0">
            <path
                d="M 203.6153846153846 38.0 C 203.6153846153846 40.54900653768058 201.54900653768058 42.61538461538461 199.0 42.61538461538461 C 196.45099346231942 42.61538461538461 194.3846153846154 40.54900653768058 194.3846153846154 38.0 C 194.3846153846154 35.45099346231942 196.45099346231942 33.38461538461539 199.0 33.38461538461539 C 201.54900653768058 33.38461538461539 203.6153846153846 35.45099346231942 203.6153846153846 38.0 z "
                fill="black" stroke-linecap="square"
                stroke-linejoin="butt" stroke-width="0.625"
                stroke-miterlimit="10.0" stroke-dashoffset="0.0" stroke="black"/>
        </g>
        <g latexdraw:type="dot" id="id775994808" latexdraw:size="10.0"
            latexdraw:dotShape="*" latexdraw:position="299.0 38.0">
            <path
                d="M 303.6153846153846 38.0 C 303.6153846153846 40.54900653768058 301.54900653768055 42.61538461538461 299.0 42.61538461538461 C 296.4509934623194 42.61538461538461 294.38461538461536 40.54900653768058 294.38461538461536 38.0 C 294.38461538461536 35.45099346231942 296.4509934623194 33.38461538461539 299.0 33.38461538461539 C 301.54900653768055 33.38461538461539 303.6153846153846 35.45099346231942 303.6153846153846 38.0 z "
                fill="black" stroke-linecap="square"
                stroke-linejoin="butt" stroke-width="0.625"
                stroke-miterlimit="10.0" stroke-dashoffset="0.0" stroke="black"/>
        </g>
        <g latexdraw:type="dot" id="id731099014" latexdraw:size="10.0"
            latexdraw:dotShape="*" latexdraw:position="379.0 98.0">
            <path
                d="M 383.6153846153846 98.0 C 383.6153846153846 100.54900653768058 381.54900653768055 102.61538461538461 379.0 102.61538461538461 C 376.4509934623194 102.61538461538461 374.38461538461536 100.54900653768058 374.38461538461536 98.0 C 374.38461538461536 95.45099346231942 376.4509934623194 93.38461538461539 379.0 93.38461538461539 C 381.54900653768055 93.38461538461539 383.6153846153846 95.45099346231942 383.6153846153846 98.0 z "
                fill="black" stroke-linecap="square"
                stroke-linejoin="butt" stroke-width="0.625"
                stroke-miterlimit="10.0" stroke-dashoffset="0.0" stroke="black"/>
        </g>
        <g latexdraw:type="dot" id="id1516604999" latexdraw:size="10.0"
            latexdraw:dotShape="*" latexdraw:position="339.0 138.0">
            <path
                d="M 343.6153846153846 138.0 C 343.6153846153846 140.54900653768058 341.54900653768055 142.6153846153846 339.0 142.6153846153846 C 336.4509934623194 142.6153846153846 334.38461538461536 140.54900653768058 334.38461538461536 138.0 C 334.38461538461536 135.45099346231942 336.4509934623194 133.3846153846154 339.0 133.3846153846154 C 341.54900653768055 133.3846153846154 343.6153846153846 135.45099346231942 343.6153846153846 138.0 z "
                fill="black" stroke-linecap="square"
                stroke-linejoin="butt" stroke-width="0.625"
                stroke-miterlimit="10.0" stroke-dashoffset="0.0" stroke="black"/>
        </g>
        <g latexdraw:type="joinedLines" id="id1357819198">
            <polyline
                points="139.0,238.0 219.0,298.0 339.0,278.0 379.0,238.0 379.0,98.0 "
                stroke-width="2.0" stroke="black" fill="none" latexdraw:rotationAngle="0.0"/>
        </g>
        <g latexdraw:type="joinedLines" id="id1300416304">
            <polyline points="339.0,138.0 339.0,278.0 "
                stroke-width="2.0" stroke="black" latexdraw:rotationAngle="0.0"/>
        </g>
        <g latexdraw:type="joinedLines" id="id809527271">
            <polyline points="219.0,158.0 219.0,298.0 "
                stroke-width="2.0" stroke="black" latexdraw:rotationAngle="0.0"/>
        </g>
        <g latexdraw:type="joinedLines" id="id1273919533">
            <polyline points="139.0,98.0 139.0,238.0 "
                stroke-width="2.0" stroke="black" latexdraw:rotationAngle="0.0"/>
        </g>
        <g latexdraw:type="joinedLines" id="id2017049665">
            <polyline points="139.0,238.0 199.0,178.0 "
                stroke-width="2.0" stroke="black"
                stroke-dasharray="8.819444444444445, 5.291666666666667" latexdraw:rotationAngle="0.0"/>
        </g>
        <g latexdraw:type="joinedLines" id="id620129762">
            <polyline points="199.0,178.0 299.0,178.0 379.0,238.0 "
                stroke-width="2.0" stroke="black" fill="none"
                stroke-dasharray="8.819444444444445, 5.291666666666667" latexdraw:rotationAngle="0.0"/>
        </g>
        <g latexdraw:type="joinedLines" id="id1990650442">
            <polyline points="299.0,178.0 299.0,38.0 "
                stroke-width="2.0" stroke="black"
                stroke-dasharray="8.819444444444445, 5.291666666666667" latexdraw:rotationAngle="0.0"/>
        </g>
        <g latexdraw:type="joinedLines" id="id2002103936">
            <polyline points="199.0,178.0 199.0,38.0 "
                stroke-width="2.0" stroke="black"
                stroke-dasharray="8.819444444444445, 5.291666666666667" latexdraw:rotationAngle="0.0"/>
        </g>
        <g latexdraw:type="dot" id="id826375151" latexdraw:size="15.0"
            latexdraw:dotShape="*" latexdraw:position="251.0 143.0">
            <path
                d="M 257.9230769230769 143.0 C 257.9230769230769 146.82350980652086 254.82350980652086 149.9230769230769 251.0 149.9230769230769 C 247.1764901934791 149.9230769230769 244.07692307692307 146.82350980652086 244.07692307692307 143.0 C 244.07692307692307 139.1764901934791 247.1764901934791 136.07692307692307 251.0 136.07692307692307 C 254.82350980652086 136.07692307692307 257.9230769230769 139.1764901934791 257.9230769230769 143.0 z "
                fill="#666666" stroke-linecap="square"
                stroke-linejoin="butt" stroke-width="0.9375"
                stroke-miterlimit="10.0" stroke-dashoffset="0.0" stroke="#666666"/>
        </g>
        <g latexdraw:type="dot" id="id1366027897" latexdraw:size="10.0"
            latexdraw:dotShape="*" latexdraw:position="309.0 370.0">
            <path
                d="M 313.6153846153846 370.0 C 313.6153846153846 372.54900653768055 311.54900653768055 374.6153846153846 309.0 374.6153846153846 C 306.4509934623194 374.6153846153846 304.38461538461536 372.54900653768055 304.38461538461536 370.0 C 304.38461538461536 367.4509934623194 306.4509934623194 365.38461538461536 309.0 365.38461538461536 C 311.54900653768055 365.38461538461536 313.6153846153846 367.4509934623194 313.6153846153846 370.0 z "
                fill="#ff9900" stroke-linecap="square"
                stroke-linejoin="butt" stroke-width="0.625"
                stroke-miterlimit="10.0" stroke-dashoffset="0.0" stroke="#ff9900"/>
        </g>
        <g latexdraw:type="dot" id="id984807048" latexdraw:size="15.0"
            latexdraw:dotShape="*" latexdraw:position="217.0 298.0">
            <path
                d="M 223.9230769230769 298.0 C 223.9230769230769 301.8235098065209 220.82350980652086 304.92307692307696 217.0 304.92307692307696 C 213.1764901934791 304.92307692307696 210.07692307692307 301.8235098065209 210.07692307692307 298.0 C 210.07692307692307 294.17649019347914 213.1764901934791 291.0769230769231 217.0 291.0769230769231 C 220.82350980652086 291.0769230769231 223.9230769230769 294.17649019347914 223.9230769230769 298.0 z "
                fill="#ff9900" stroke-linecap="square"
                stroke-linejoin="butt" stroke-width="0.9375"
                stroke-miterlimit="10.0" stroke-dashoffset="0.0" stroke="#ff9900"/>
        </g>
        <g latexdraw:type="dot" id="id1019052201" latexdraw:size="15.0"
            latexdraw:dotShape="*" latexdraw:position="159.0 358.0">
            <path
                d="M 165.9230769230769 358.0 C 165.9230769230769 361.8235098065209 162.82350980652086 364.92307692307696 159.0 364.92307692307696 C 155.1764901934791 364.92307692307696 152.07692307692307 361.8235098065209 152.07692307692307 358.0 C 152.07692307692307 354.17649019347914 155.1764901934791 351.0769230769231 159.0 351.0769230769231 C 162.82350980652086 351.0769230769231 165.9230769230769 354.17649019347914 165.9230769230769 358.0 z "
                fill="#666666" stroke-linecap="square"
                stroke-linejoin="butt" stroke-width="0.9375"
                stroke-miterlimit="10.0" stroke-dashoffset="0.0" stroke="#666666"/>
        </g>
        <g latexdraw:type="text" id="id430208150" fill="black" latexdraw:position="bl">
            <text x="168.0" y="365.0">Cell center</text>
        </g>
        <g latexdraw:type="dot" id="id1844920411" latexdraw:size="10.0"
            latexdraw:dotShape="*" latexdraw:position="309.0 343.0">
            <path
                d="M 313.6153846153846 343.0 C 313.6153846153846 345.54900653768055 311.54900653768055 347.6153846153846 309.0 347.6153846153846 C 306.4509934623194 347.6153846153846 304.38461538461536 345.54900653768055 304.38461538461536 343.0 C 304.38461538461536 340.4509934623194 306.4509934623194 338.38461538461536 309.0 338.38461538461536 C 311.54900653768055 338.38461538461536 313.6153846153846 340.4509934623194 313.6153846153846 343.0 z "
                fill="#cc0000" stroke-linecap="square"
                stroke-linejoin="butt" stroke-width="0.625"
                stroke-miterlimit="10.0" stroke-dashoffset="0.0" stroke="#cc0000"/>
        </g>
        <g latexdraw:type="dot" id="id982428667" latexdraw:size="10.0"
            latexdraw:dotShape="*" latexdraw:position="309.0 356.0">
            <path
                d="M 313.6153846153846 356.0 C 313.6153846153846 358.54900653768055 311.54900653768055 360.6153846153846 309.0 360.6153846153846 C 306.4509934623194 360.6153846153846 304.38461538461536 358.54900653768055 304.38461538461536 356.0 C 304.38461538461536 353.4509934623194 306.4509934623194 351.38461538461536 309.0 351.38461538461536 C 311.54900653768055 351.38461538461536 313.6153846153846 353.4509934623194 313.6153846153846 356.0 z "
                fill="#0000cc" stroke-linecap="square"
                stroke-linejoin="butt" stroke-width="0.625"
                stroke-miterlimit="10.0" stroke-dashoffset="0.0" stroke="#0000cc"/>
        </g>
        <g latexdraw:type="joinedLines" id="id155741278">
            <polyline points="221.0,295.0 250.0,146.0 337.0,278.0 "
                stroke-width="2.0" stroke="black" fill="none"
                stroke-dasharray="8.819444444444445, 5.291666666666667" latexdraw:rotationAngle="0.0"/>
        </g>
        <g latexdraw:type="dot" id="id2112714791" latexdraw:size="10.0"
            latexdraw:dotShape="*" latexdraw:position="254.0 233.0">
            <path
                d="M 258.61538461538464 233.0 C 258.61538461538464 235.54900653768058 256.5490065376806 237.6153846153846 254.0 237.6153846153846 C 251.45099346231942 237.6153846153846 249.3846153846154 235.54900653768058 249.3846153846154 233.0 C 249.3846153846154 230.45099346231942 251.45099346231942 228.3846153846154 254.0 228.3846153846154 C 256.5490065376806 228.3846153846154 258.61538461538464 230.45099346231942 258.61538461538464 233.0 z "
                fill="black" stroke-linecap="square"
                stroke-linejoin="butt" stroke-width="0.625"
                stroke-miterlimit="10.0" stroke-dashoffset="0.0" stroke="black"/>
        </g>
        <g latexdraw:type="joinedLines" id="id960200185">
            <polyline
                points="220.0,296.0 254.0,235.0 253.0,150.0 253.0,151.0 "
                stroke-width="2.0" stroke="black" fill="none"
                stroke-dasharray="8.819444444444445, 5.291666666666667" latexdraw:rotationAngle="0.0"/>
        </g>
        <g latexdraw:type="joinedLines" id="id62506172">
            <polyline points="256.0,235.0 338.0,279.0 "
                stroke-width="2.0" stroke="black"
                stroke-dasharray="8.819444444444445, 5.291666666666667" latexdraw:rotationAngle="0.0"/>
        </g>
        <g latexdraw:type="joinedLines" id="id1478093212">
            <polyline points="221.0,295.0 256.0,273.0 "
                stroke-width="2.0" stroke="#ff9900"
                latexdraw:rotationAngle="0.0" marker-end="url(#arrow1-1478093212)"/>
        </g>
        <g latexdraw:type="joinedLines" id="id403227584">
            <polyline points="256.0,237.0 269.0,267.0 "
                stroke-width="2.0" stroke="#ff9900"
                latexdraw:rotationAngle="0.0" marker-end="url(#arrow1-403227584)"/>
        </g>
        <g latexdraw:type="joinedLines" id="id1624249958">
            <polyline points="253.0,149.0 266.0,227.0 "
                stroke-width="2.0" stroke="#ff9900"
                latexdraw:rotationAngle="0.0" marker-end="url(#arrow1-1624249958)"/>
        </g>
        <g latexdraw:type="joinedLines" id="id1906497519">
            <polyline
                points="419.0,98.0 479.0,38.0 579.0,38.0 659.0,98.0 619.0,138.0 499.0,158.0 419.0,98.0 "
                stroke-width="2.0" stroke="black" fill="none" latexdraw:rotationAngle="0.0"/>
        </g>
        <g latexdraw:type="dot" id="id1962340568" latexdraw:size="10.0"
            latexdraw:dotShape="*" latexdraw:position="419.0 238.0">
            <path
                d="M 423.6153846153846 238.0 C 423.6153846153846 240.54900653768058 421.54900653768055 242.6153846153846 419.0 242.6153846153846 C 416.4509934623194 242.6153846153846 414.38461538461536 240.54900653768058 414.38461538461536 238.0 C 414.38461538461536 235.45099346231942 416.4509934623194 233.3846153846154 419.0 233.3846153846154 C 421.54900653768055 233.3846153846154 423.6153846153846 235.45099346231942 423.6153846153846 238.0 z "
                fill="#cc0000" stroke-linecap="square"
                stroke-linejoin="butt" stroke-width="0.625"
                stroke-miterlimit="10.0" stroke-dashoffset="0.0" stroke="#cc0000"/>
        </g>
        <g latexdraw:type="dot" id="id1814106227" latexdraw:size="10.0"
            latexdraw:dotShape="*" latexdraw:position="659.0 238.0">
            <path
                d="M 663.6153846153846 238.0 C 663.6153846153846 240.54900653768058 661.5490065376806 242.6153846153846 659.0 242.6153846153846 C 656.4509934623194 242.6153846153846 654.3846153846154 240.54900653768058 654.3846153846154 238.0 C 654.3846153846154 235.45099346231942 656.4509934623194 233.3846153846154 659.0 233.3846153846154 C 661.5490065376806 233.3846153846154 663.6153846153846 235.45099346231942 663.6153846153846 238.0 z "
                fill="black" stroke-linecap="square"
                stroke-linejoin="butt" stroke-width="0.625"
                stroke-miterlimit="10.0" stroke-dashoffset="0.0" stroke="black"/>
        </g>
        <g latexdraw:type="dot" id="id384175540" latexdraw:size="10.0"
            latexdraw:dotShape="*" latexdraw:position="619.0 278.0">
            <path
                d="M 623.6153846153846 278.0 C 623.6153846153846 280.54900653768055 621.5490065376806 282.6153846153846 619.0 282.6153846153846 C 616.4509934623194 282.6153846153846 614.3846153846154 280.54900653768055 614.3846153846154 278.0 C 614.3846153846154 275.4509934623194 616.4509934623194 273.38461538461536 619.0 273.38461538461536 C 621.5490065376806 273.38461538461536 623.6153846153846 275.4509934623194 623.6153846153846 278.0 z "
                fill="black" stroke-linecap="square"
                stroke-linejoin="butt" stroke-width="0.625"
                stroke-miterlimit="10.0" stroke-dashoffset="0.0" stroke="black"/>
        </g>
        <g latexdraw:type="dot" id="id615980838" latexdraw:size="10.0"
            latexdraw:dotShape="*" latexdraw:position="499.0 298.0">
            <path
                d="M 503.6153846153846 298.0 C 503.6153846153846 300.54900653768055 501.54900653768055 302.6153846153846 499.0 302.6153846153846 C 496.4509934623194 302.6153846153846 494.38461538461536 300.54900653768055 494.38461538461536 298.0 C 494.38461538461536 295.4509934623194 496.4509934623194 293.38461538461536 499.0 293.38461538461536 C 501.54900653768055 293.38461538461536 503.6153846153846 295.4509934623194 503.6153846153846 298.0 z "
                fill="#ff6600" stroke-linecap="square"
                stroke-linejoin="butt" stroke-width="0.625"
                stroke-miterlimit="10.0" stroke-dashoffset="0.0" stroke="#ff6600"/>
        </g>
        <g latexdraw:type="dot" id="id2106538972" latexdraw:size="10.0"
            latexdraw:dotShape="*" latexdraw:position="479.0 178.0">
            <path
                d="M 483.6153846153846 178.0 C 483.6153846153846 180.54900653768058 481.54900653768055 182.6153846153846 479.0 182.6153846153846 C 476.4509934623194 182.6153846153846 474.38461538461536 180.54900653768058 474.38461538461536 178.0 C 474.38461538461536 175.45099346231942 476.4509934623194 173.3846153846154 479.0 173.3846153846154 C 481.54900653768055 173.3846153846154 483.6153846153846 175.45099346231942 483.6153846153846 178.0 z "
                fill="black" stroke-linecap="square"
                stroke-linejoin="butt" stroke-width="0.625"
                stroke-miterlimit="10.0" stroke-dashoffset="0.0" stroke="black"/>
        </g>
        <g latexdraw:type="dot" id="id680261913" latexdraw:size="10.0"
            latexdraw:dotShape="*" latexdraw:position="579.0 178.0">
            <path
                d="M 583.6153846153846 178.0 C 583.6153846153846 180.54900653768058 581.5490065376806 182.6153846153846 579.0 182.6153846153846 C 576.4509934623194 182.6153846153846 574.3846153846154 180.54900653768058 574.3846153846154 178.0 C 574.3846153846154 175.45099346231942 576.4509934623194 173.3846153846154 579.0 173.3846153846154 C 581.5490065376806 173.3846153846154 583.6153846153846 175.45099346231942 583.6153846153846 178.0 z "
                fill="black" stroke-linecap="square"
                stroke-linejoin="butt" stroke-width="0.625"
                stroke-miterlimit="10.0" stroke-dashoffset="0.0" stroke="black"/>
        </g>
        <g latexdraw:type="dot" id="id1728246746" latexdraw:size="10.0"
            latexdraw:dotShape="*" latexdraw:position="499.0 158.0">
            <path
                d="M 503.6153846153846 158.0 C 503.6153846153846 160.54900653768058 501.54900653768055 162.6153846153846 499.0 162.6153846153846 C 496.4509934623194 162.6153846153846 494.38461538461536 160.54900653768058 494.38461538461536 158.0 C 494.38461538461536 155.45099346231942 496.4509934623194 153.3846153846154 499.0 153.3846153846154 C 501.54900653768055 153.3846153846154 503.6153846153846 155.45099346231942 503.6153846153846 158.0 z "
                fill="black" stroke-linecap="square"
                stroke-linejoin="butt" stroke-width="0.625"
                stroke-miterlimit="10.0" stroke-dashoffset="0.0" stroke="black"/>
        </g>
        <g latexdraw:type="dot" id="id1759737125" latexdraw:size="10.0"
            latexdraw:dotShape="*" latexdraw:position="419.0 98.0">
            <path
                d="M 423.6153846153846 98.0 C 423.6153846153846 100.54900653768058 421.54900653768055 102.61538461538461 419.0 102.61538461538461 C 416.4509934623194 102.61538461538461 414.38461538461536 100.54900653768058 414.38461538461536 98.0 C 414.38461538461536 95.45099346231942 416.4509934623194 93.38461538461539 419.0 93.38461538461539 C 421.54900653768055 93.38461538461539 423.6153846153846 95.45099346231942 423.6153846153846 98.0 z "
                fill="black" stroke-linecap="square"
                stroke-linejoin="butt" stroke-width="0.625"
                stroke-miterlimit="10.0" stroke-dashoffset="0.0" stroke="black"/>
        </g>
        <g latexdraw:type="dot" id="id1085105842" latexdraw:size="10.0"
            latexdraw:dotShape="*" latexdraw:position="479.0 38.0">
            <path
                d="M 483.6153846153846 38.0 C 483.6153846153846 40.54900653768058 481.54900653768055 42.61538461538461 479.0 42.61538461538461 C 476.4509934623194 42.61538461538461 474.38461538461536 40.54900653768058 474.38461538461536 38.0 C 474.38461538461536 35.45099346231942 476.4509934623194 33.38461538461539 479.0 33.38461538461539 C 481.54900653768055 33.38461538461539 483.6153846153846 35.45099346231942 483.6153846153846 38.0 z "
                fill="black" stroke-linecap="square"
                stroke-linejoin="butt" stroke-width="0.625"
                stroke-miterlimit="10.0" stroke-dashoffset="0.0" stroke="black"/>
        </g>
        <g latexdraw:type="dot" id="id348334571" latexdraw:size="10.0"
            latexdraw:dotShape="*" latexdraw:position="579.0 38.0">
            <path
                d="M 583.6153846153846 38.0 C 583.6153846153846 40.54900653768058 581.5490065376806 42.61538461538461 579.0 42.61538461538461 C 576.4509934623194 42.61538461538461 574.3846153846154 40.54900653768058 574.3846153846154 38.0 C 574.3846153846154 35.45099346231942 576.4509934623194 33.38461538461539 579.0 33.38461538461539 C 581.5490065376806 33.38461538461539 583.6153846153846 35.45099346231942 583.6153846153846 38.0 z "
                fill="black" stroke-linecap="square"
                stroke-linejoin="butt" stroke-width="0.625"
                stroke-miterlimit="10.0" stroke-dashoffset="0.0" stroke="black"/>
        </g>
        <g latexdraw:type="dot" id="id24493163" latexdraw:size="10.0"
            latexdraw:dotShape="*" latexdraw:position="659.0 98.0">
            <path
                d="M 663.6153846153846 98.0 C 663.6153846153846 100.54900653768058 661.5490065376806 102.61538461538461 659.0 102.61538461538461 C 656.4509934623194 102.61538461538461 654.3846153846154 100.54900653768058 654.3846153846154 98.0 C 654.3846153846154 95.45099346231942 656.4509934623194 93.38461538461539 659.0 93.38461538461539 C 661.5490065376806 93.38461538461539 663.6153846153846 95.45099346231942 663.6153846153846 98.0 z "
                fill="black" stroke-linecap="square"
                stroke-linejoin="butt" stroke-width="0.625"
                stroke-miterlimit="10.0" stroke-dashoffset="0.0" stroke="black"/>
        </g>
        <g latexdraw:type="dot" id="id984345732" latexdraw:size="10.0"
            latexdraw:dotShape="*" latexdraw:position="619.0 138.0">
            <path
                d="M 623.6153846153846 138.0 C 623.6153846153846 140.54900653768058 621.5490065376806 142.6153846153846 619.0 142.6153846153846 C 616.4509934623194 142.6153846153846 614.3846153846154 140.54900653768058 614.3846153846154 138.0 C 614.3846153846154 135.45099346231942 616.4509934623194 133.3846153846154 619.0 133.3846153846154 C 621.5490065376806 133.3846153846154 623.6153846153846 135.45099346231942 623.6153846153846 138.0 z "
                fill="black" stroke-linecap="square"
                stroke-linejoin="butt" stroke-width="0.625"
                stroke-miterlimit="10.0" stroke-dashoffset="0.0" stroke="black"/>
        </g>
        <g latexdraw:type="joinedLines" id="id175116175">
            <polyline
                points="419.0,238.0 499.0,298.0 619.0,278.0 659.0,238.0 659.0,98.0 "
                stroke-width="2.0" stroke="black" fill="none" latexdraw:rotationAngle="0.0"/>
        </g>
        <g latexdraw:type="joinedLines" id="id145283613">
            <polyline points="619.0,138.0 619.0,278.0 "
                stroke-width="2.0" stroke="black" latexdraw:rotationAngle="0.0"/>
        </g>
        <g latexdraw:type="joinedLines" id="id2002721315">
            <polyline points="499.0,158.0 499.0,298.0 "
                stroke-width="2.0" stroke="black" latexdraw:rotationAngle="0.0"/>
        </g>
        <g latexdraw:type="joinedLines" id="id1110902382">
            <polyline points="419.0,98.0 419.0,238.0 "
                stroke-width="2.0" stroke="black" latexdraw:rotationAngle="0.0"/>
        </g>
        <g latexdraw:type="joinedLines" id="id2074761346">
            <polyline points="419.0,238.0 479.0,178.0 "
                stroke-width="2.0" stroke="black"
                stroke-dasharray="8.819444444444445, 5.291666666666667" latexdraw:rotationAngle="0.0"/>
        </g>
        <g latexdraw:type="joinedLines" id="id121438419">
            <polyline points="479.0,178.0 579.0,178.0 659.0,238.0 "
                stroke-width="2.0" stroke="black" fill="none"
                stroke-dasharray="8.819444444444445, 5.291666666666667" latexdraw:rotationAngle="0.0"/>
        </g>
        <g latexdraw:type="joinedLines" id="id69907359">
            <polyline points="579.0,178.0 579.0,38.0 "
                stroke-width="2.0" stroke="black"
                stroke-dasharray="8.819444444444445, 5.291666666666667" latexdraw:rotationAngle="0.0"/>
        </g>
        <g latexdraw:type="joinedLines" id="id229659035">
            <polyline points="479.0,178.0 479.0,38.0 "
                stroke-width="2.0" stroke="black"
                stroke-dasharray="8.819444444444445, 5.291666666666667" latexdraw:rotationAngle="0.0"/>
        </g>
        <g latexdraw:type="dot" id="id494706242" latexdraw:size="15.0"
            latexdraw:dotShape="*" latexdraw:position="531.0 143.0">
            <path
                d="M 537.9230769230769 143.0 C 537.9230769230769 146.82350980652086 534.8235098065209 149.9230769230769 531.0 149.9230769230769 C 527.1764901934791 149.9230769230769 524.0769230769231 146.82350980652086 524.0769230769231 143.0 C 524.0769230769231 139.1764901934791 527.1764901934791 136.07692307692307 531.0 136.07692307692307 C 534.8235098065209 136.07692307692307 537.9230769230769 139.1764901934791 537.9230769230769 143.0 z "
                fill="#666666" stroke-linecap="square"
                stroke-linejoin="butt" stroke-width="0.9375"
                stroke-miterlimit="10.0" stroke-dashoffset="0.0" stroke="#666666"/>
        </g>
        <g latexdraw:type="dot" id="id1461333368" latexdraw:size="15.0"
            latexdraw:dotShape="*" latexdraw:position="497.0 298.0">
            <path
                d="M 503.92307692307696 298.0 C 503.92307692307696 301.8235098065209 500.8235098065209 304.92307692307696 497.0 304.92307692307696 C 493.17649019347914 304.92307692307696 490.0769230769231 301.8235098065209 490.0769230769231 298.0 C 490.0769230769231 294.17649019347914 493.17649019347914 291.0769230769231 497.0 291.0769230769231 C 500.8235098065209 291.0769230769231 503.92307692307696 294.17649019347914 503.92307692307696 298.0 z "
                fill="#ff9900" stroke-linecap="square"
                stroke-linejoin="butt" stroke-width="0.9375"
                stroke-miterlimit="10.0" stroke-dashoffset="0.0" stroke="#ff9900"/>
        </g>
        <g latexdraw:type="joinedLines" id="id967915016">
            <polyline points="501.0,295.0 530.0,146.0 617.0,278.0 "
                stroke-width="2.0" stroke="black" fill="none"
                stroke-dasharray="8.819444444444445, 5.291666666666667" latexdraw:rotationAngle="0.0"/>
        </g>
        <g latexdraw:type="dot" id="id736162061" latexdraw:size="10.0"
            latexdraw:dotShape="*" latexdraw:position="534.0 233.0">
            <path
                d="M 538.6153846153846 233.0 C 538.6153846153846 235.54900653768058 536.5490065376806 237.6153846153846 534.0 237.6153846153846 C 531.4509934623194 237.6153846153846 529.3846153846154 235.54900653768058 529.3846153846154 233.0 C 529.3846153846154 230.45099346231942 531.4509934623194 228.3846153846154 534.0 228.3846153846154 C 536.5490065376806 228.3846153846154 538.6153846153846 230.45099346231942 538.6153846153846 233.0 z "
                fill="black" stroke-linecap="square"
                stroke-linejoin="butt" stroke-width="0.625"
                stroke-miterlimit="10.0" stroke-dashoffset="0.0" stroke="black"/>
        </g>
        <g latexdraw:type="joinedLines" id="id1779492553">
            <polyline
                points="500.0,296.0 534.0,235.0 533.0,150.0 533.0,151.0 "
                stroke-width="2.0" stroke="black" fill="none"
                stroke-dasharray="8.819444444444445, 5.291666666666667" latexdraw:rotationAngle="0.0"/>
        </g>
        <g latexdraw:type="joinedLines" id="id1351904151">
            <polyline points="536.0,235.0 618.0,279.0 "
                stroke-width="2.0" stroke="black"
                stroke-dasharray="8.819444444444445, 5.291666666666667" latexdraw:rotationAngle="0.0"/>
        </g>
        <g latexdraw:type="joinedLines" id="id1811881429">
            <polyline points="536.0,237.0 549.0,267.0 "
                stroke-width="2.0" stroke="#cc0000"
                latexdraw:rotationAngle="0.0" marker-end="url(#arrow1-1811881429)"/>
        </g>
        <g latexdraw:type="joinedLines" id="id1614821573">
            <polyline points="533.0,149.0 546.0,227.0 "
                stroke-width="2.0" stroke="#cc0000"
                latexdraw:rotationAngle="0.0" marker-end="url(#arrow1-1614821573)"/>
        </g>
        <g latexdraw:type="joinedLines" id="id1375707827">
            <polyline
                points="699.0,98.0 759.0,38.0 859.0,38.0 939.0,98.0 899.0,138.0 779.0,158.0 699.0,98.0 "
                stroke-width="2.0" stroke="black" fill="none" latexdraw:rotationAngle="0.0"/>
        </g>
        <g latexdraw:type="dot" id="id2057734174" latexdraw:size="10.0"
            latexdraw:dotShape="*" latexdraw:position="699.0 238.0">
            <path
                d="M 703.6153846153846 238.0 C 703.6153846153846 240.54900653768058 701.5490065376806 242.6153846153846 699.0 242.6153846153846 C 696.4509934623194 242.6153846153846 694.3846153846154 240.54900653768058 694.3846153846154 238.0 C 694.3846153846154 235.45099346231942 696.4509934623194 233.3846153846154 699.0 233.3846153846154 C 701.5490065376806 233.3846153846154 703.6153846153846 235.45099346231942 703.6153846153846 238.0 z "
                fill="black" stroke-linecap="square"
                stroke-linejoin="butt" stroke-width="0.625"
                stroke-miterlimit="10.0" stroke-dashoffset="0.0" stroke="black"/>
        </g>
        <g latexdraw:type="dot" id="id2084776609" latexdraw:size="10.0"
            latexdraw:dotShape="*" latexdraw:position="939.0 238.0">
            <path
                d="M 943.6153846153846 238.0 C 943.6153846153846 240.54900653768058 941.5490065376806 242.6153846153846 939.0 242.6153846153846 C 936.4509934623194 242.6153846153846 934.3846153846154 240.54900653768058 934.3846153846154 238.0 C 934.3846153846154 235.45099346231942 936.4509934623194 233.3846153846154 939.0 233.3846153846154 C 941.5490065376806 233.3846153846154 943.6153846153846 235.45099346231942 943.6153846153846 238.0 z "
                fill="black" stroke-linecap="square"
                stroke-linejoin="butt" stroke-width="0.625"
                stroke-miterlimit="10.0" stroke-dashoffset="0.0" stroke="black"/>
        </g>
        <g latexdraw:type="dot" id="id559161238" latexdraw:size="10.0"
            latexdraw:dotShape="*" latexdraw:position="899.0 278.0">
            <path
                d="M 903.6153846153846 278.0 C 903.6153846153846 280.54900653768055 901.5490065376806 282.6153846153846 899.0 282.6153846153846 C 896.4509934623194 282.6153846153846 894.3846153846154 280.54900653768055 894.3846153846154 278.0 C 894.3846153846154 275.4509934623194 896.4509934623194 273.38461538461536 899.0 273.38461538461536 C 901.5490065376806 273.38461538461536 903.6153846153846 275.4509934623194 903.6153846153846 278.0 z "
                fill="black" stroke-linecap="square"
                stroke-linejoin="butt" stroke-width="0.625"
                stroke-miterlimit="10.0" stroke-dashoffset="0.0" stroke="black"/>
        </g>
        <g latexdraw:type="dot" id="id1004310626" latexdraw:size="10.0"
            latexdraw:dotShape="*" latexdraw:position="779.0 298.0">
            <path
                d="M 783.6153846153846 298.0 C 783.6153846153846 300.54900653768055 781.5490065376806 302.6153846153846 779.0 302.6153846153846 C 776.4509934623194 302.6153846153846 774.3846153846154 300.54900653768055 774.3846153846154 298.0 C 774.3846153846154 295.4509934623194 776.4509934623194 293.38461538461536 779.0 293.38461538461536 C 781.5490065376806 293.38461538461536 783.6153846153846 295.4509934623194 783.6153846153846 298.0 z "
                fill="#ff6600" stroke-linecap="square"
                stroke-linejoin="butt" stroke-width="0.625"
                stroke-miterlimit="10.0" stroke-dashoffset="0.0" stroke="#ff6600"/>
        </g>
        <g latexdraw:type="dot" id="id836955714" latexdraw:size="10.0"
            latexdraw:dotShape="*" latexdraw:position="759.0 178.0">
            <path
                d="M 763.6153846153846 178.0 C 763.6153846153846 180.54900653768058 761.5490065376806 182.6153846153846 759.0 182.6153846153846 C 756.4509934623194 182.6153846153846 754.3846153846154 180.54900653768058 754.3846153846154 178.0 C 754.3846153846154 175.45099346231942 756.4509934623194 173.3846153846154 759.0 173.3846153846154 C 761.5490065376806 173.3846153846154 763.6153846153846 175.45099346231942 763.6153846153846 178.0 z "
                fill="black" stroke-linecap="square"
                stroke-linejoin="butt" stroke-width="0.625"
                stroke-miterlimit="10.0" stroke-dashoffset="0.0" stroke="black"/>
        </g>
        <g latexdraw:type="dot" id="id1301802213" latexdraw:size="10.0"
            latexdraw:dotShape="*" latexdraw:position="859.0 178.0">
            <path
                d="M 863.6153846153846 178.0 C 863.6153846153846 180.54900653768058 861.5490065376806 182.6153846153846 859.0 182.6153846153846 C 856.4509934623194 182.6153846153846 854.3846153846154 180.54900653768058 854.3846153846154 178.0 C 854.3846153846154 175.45099346231942 856.4509934623194 173.3846153846154 859.0 173.3846153846154 C 861.5490065376806 173.3846153846154 863.6153846153846 175.45099346231942 863.6153846153846 178.0 z "
                fill="black" stroke-linecap="square"
                stroke-linejoin="butt" stroke-width="0.625"
                stroke-miterlimit="10.0" stroke-dashoffset="0.0" stroke="black"/>
        </g>
        <g latexdraw:type="dot" id="id83771567" latexdraw:size="10.0"
            latexdraw:dotShape="*" latexdraw:position="779.0 158.0">
            <path
                d="M 783.6153846153846 158.0 C 783.6153846153846 160.54900653768058 781.5490065376806 162.6153846153846 779.0 162.6153846153846 C 776.4509934623194 162.6153846153846 774.3846153846154 160.54900653768058 774.3846153846154 158.0 C 774.3846153846154 155.45099346231942 776.4509934623194 153.3846153846154 779.0 153.3846153846154 C 781.5490065376806 153.3846153846154 783.6153846153846 155.45099346231942 783.6153846153846 158.0 z "
                fill="black" stroke-linecap="square"
                stroke-linejoin="butt" stroke-width="0.625"
                stroke-miterlimit="10.0" stroke-dashoffset="0.0" stroke="black"/>
        </g>
        <g latexdraw:type="dot" id="id1573545380" latexdraw:size="10.0"
            latexdraw:dotShape="*" latexdraw:position="699.0 98.0">
            <path
                d="M 703.6153846153846 98.0 C 703.6153846153846 100.54900653768058 701.5490065376806 102.61538461538461 699.0 102.61538461538461 C 696.4509934623194 102.61538461538461 694.3846153846154 100.54900653768058 694.3846153846154 98.0 C 694.3846153846154 95.45099346231942 696.4509934623194 93.38461538461539 699.0 93.38461538461539 C 701.5490065376806 93.38461538461539 703.6153846153846 95.45099346231942 703.6153846153846 98.0 z "
                fill="black" stroke-linecap="square"
                stroke-linejoin="butt" stroke-width="0.625"
                stroke-miterlimit="10.0" stroke-dashoffset="0.0" stroke="black"/>
        </g>
        <g latexdraw:type="dot" id="id1212074604" latexdraw:size="10.0"
            latexdraw:dotShape="*" latexdraw:position="759.0 38.0">
            <path
                d="M 763.6153846153846 38.0 C 763.6153846153846 40.54900653768058 761.5490065376806 42.61538461538461 759.0 42.61538461538461 C 756.4509934623194 42.61538461538461 754.3846153846154 40.54900653768058 754.3846153846154 38.0 C 754.3846153846154 35.45099346231942 756.4509934623194 33.38461538461539 759.0 33.38461538461539 C 761.5490065376806 33.38461538461539 763.6153846153846 35.45099346231942 763.6153846153846 38.0 z "
                fill="#0033cc" stroke-linecap="square"
                stroke-linejoin="butt" stroke-width="0.625"
                stroke-miterlimit="10.0" stroke-dashoffset="0.0" stroke="#0033cc"/>
        </g>
        <g latexdraw:type="dot" id="id726776549" latexdraw:size="10.0"
            latexdraw:dotShape="*" latexdraw:position="859.0 38.0">
            <path
                d="M 863.6153846153846 38.0 C 863.6153846153846 40.54900653768058 861.5490065376806 42.61538461538461 859.0 42.61538461538461 C 856.4509934623194 42.61538461538461 854.3846153846154 40.54900653768058 854.3846153846154 38.0 C 854.3846153846154 35.45099346231942 856.4509934623194 33.38461538461539 859.0 33.38461538461539 C 861.5490065376806 33.38461538461539 863.6153846153846 35.45099346231942 863.6153846153846 38.0 z "
                fill="black" stroke-linecap="square"
                stroke-linejoin="butt" stroke-width="0.625"
                stroke-miterlimit="10.0" stroke-dashoffset="0.0" stroke="black"/>
        </g>
        <g latexdraw:type="dot" id="id870763812" latexdraw:size="10.0"
            latexdraw:dotShape="*" latexdraw:position="939.0 98.0">
            <path
                d="M 943.6153846153846 98.0 C 943.6153846153846 100.54900653768058 941.5490065376806 102.61538461538461 939.0 102.61538461538461 C 936.4509934623194 102.61538461538461 934.3846153846154 100.54900653768058 934.3846153846154 98.0 C 934.3846153846154 95.45099346231942 936.4509934623194 93.38461538461539 939.0 93.38461538461539 C 941.5490065376806 93.38461538461539 943.6153846153846 95.45099346231942 943.6153846153846 98.0 z "
                fill="black" stroke-linecap="square"
                stroke-linejoin="butt" stroke-width="0.625"
                stroke-miterlimit="10.0" stroke-dashoffset="0.0" stroke="black"/>
        </g>
        <g latexdraw:type="dot" id="id1895734339" latexdraw:size="10.0"
            latexdraw:dotShape="*" latexdraw:position="899.0 138.0">
            <path
                d="M 903.6153846153846 138.0 C 903.6153846153846 140.54900653768058 901.5490065376806 142.6153846153846 899.0 142.6153846153846 C 896.4509934623194 142.6153846153846 894.3846153846154 140.54900653768058 894.3846153846154 138.0 C 894.3846153846154 135.45099346231942 896.4509934623194 133.3846153846154 899.0 133.3846153846154 C 901.5490065376806 133.3846153846154 903.6153846153846 135.45099346231942 903.6153846153846 138.0 z "
                fill="black" stroke-linecap="square"
                stroke-linejoin="butt" stroke-width="0.625"
                stroke-miterlimit="10.0" stroke-dashoffset="0.0" stroke="black"/>
        </g>
        <g latexdraw:type="joinedLines" id="id1354641100">
            <polyline
                points="699.0,238.0 779.0,298.0 899.0,278.0 939.0,238.0 939.0,98.0 "
                stroke-width="2.0" stroke="black" fill="none" latexdraw:rotationAngle="0.0"/>
        </g>
        <g latexdraw:type="joinedLines" id="id1984762179">
            <polyline points="899.0,138.0 899.0,278.0 "
                stroke-width="2.0" stroke="black" latexdraw:rotationAngle="0.0"/>
        </g>
        <g latexdraw:type="joinedLines" id="id550688322">
            <polyline points="779.0,158.0 779.0,298.0 "
                stroke-width="2.0" stroke="black" latexdraw:rotationAngle="0.0"/>
        </g>
        <g latexdraw:type="joinedLines" id="id1614684023">
            <polyline points="699.0,98.0 699.0,238.0 "
                stroke-width="2.0" stroke="black" latexdraw:rotationAngle="0.0"/>
        </g>
        <g latexdraw:type="joinedLines" id="id219149824">
            <polyline points="699.0,238.0 759.0,178.0 "
                stroke-width="2.0" stroke="black"
                stroke-dasharray="8.819444444444445, 5.291666666666667" latexdraw:rotationAngle="0.0"/>
        </g>
        <g latexdraw:type="joinedLines" id="id1569381117">
            <polyline points="759.0,178.0 859.0,178.0 939.0,238.0 "
                stroke-width="2.0" stroke="black" fill="none"
                stroke-dasharray="8.819444444444445, 5.291666666666667" latexdraw:rotationAngle="0.0"/>
        </g>
        <g latexdraw:type="joinedLines" id="id1590740217">
            <polyline points="859.0,178.0 859.0,38.0 "
                stroke-width="2.0" stroke="black"
                stroke-dasharray="8.819444444444445, 5.291666666666667" latexdraw:rotationAngle="0.0"/>
        </g>
        <g latexdraw:type="joinedLines" id="id1709567805">
            <polyline points="759.0,178.0 759.0,38.0 "
                stroke-width="2.0" stroke="black"
                stroke-dasharray="8.819444444444445, 5.291666666666667" latexdraw:rotationAngle="0.0"/>
        </g>
        <g latexdraw:type="dot" id="id2102639935" latexdraw:size="15.0"
            latexdraw:dotShape="*" latexdraw:position="811.0 143.0">
            <path
                d="M 817.9230769230769 143.0 C 817.9230769230769 146.82350980652086 814.8235098065209 149.9230769230769 811.0 149.9230769230769 C 807.1764901934791 149.9230769230769 804.0769230769231 146.82350980652086 804.0769230769231 143.0 C 804.0769230769231 139.1764901934791 807.1764901934791 136.07692307692307 811.0 136.07692307692307 C 814.8235098065209 136.07692307692307 817.9230769230769 139.1764901934791 817.9230769230769 143.0 z "
                fill="#666666" stroke-linecap="square"
                stroke-linejoin="butt" stroke-width="0.9375"
                stroke-miterlimit="10.0" stroke-dashoffset="0.0" stroke="#666666"/>
        </g>
        <g latexdraw:type="dot" id="id1168986057" latexdraw:size="15.0"
            latexdraw:dotShape="*" latexdraw:position="777.0 298.0">
            <path
                d="M 783.9230769230769 298.0 C 783.9230769230769 301.8235098065209 780.8235098065209 304.92307692307696 777.0 304.92307692307696 C 773.1764901934791 304.92307692307696 770.0769230769231 301.8235098065209 770.0769230769231 298.0 C 770.0769230769231 294.17649019347914 773.1764901934791 291.0769230769231 777.0 291.0769230769231 C 780.8235098065209 291.0769230769231 783.9230769230769 294.17649019347914 783.9230769230769 298.0 z "
                fill="#ff9900" stroke-linecap="square"
                stroke-linejoin="butt" stroke-width="0.9375"
                stroke-miterlimit="10.0" stroke-dashoffset="0.0" stroke="#ff9900"/>
        </g>
        <g latexdraw:type="joinedLines" id="id1650404825">
            <polyline points="781.0,295.0 810.0,146.0 897.0,278.0 "
                stroke-width="2.0" stroke="black" fill="none"
                stroke-dasharray="8.819444444444445, 5.291666666666667" latexdraw:rotationAngle="0.0"/>
        </g>
        <g latexdraw:type="dot" id="id480314654" latexdraw:size="10.0"
            latexdraw:dotShape="*" latexdraw:position="814.0 233.0">
            <path
                d="M 818.6153846153846 233.0 C 818.6153846153846 235.54900653768058 816.5490065376806 237.6153846153846 814.0 237.6153846153846 C 811.4509934623194 237.6153846153846 809.3846153846154 235.54900653768058 809.3846153846154 233.0 C 809.3846153846154 230.45099346231942 811.4509934623194 228.3846153846154 814.0 228.3846153846154 C 816.5490065376806 228.3846153846154 818.6153846153846 230.45099346231942 818.6153846153846 233.0 z "
                fill="black" stroke-linecap="square"
                stroke-linejoin="butt" stroke-width="0.625"
                stroke-miterlimit="10.0" stroke-dashoffset="0.0" stroke="black"/>
        </g>
        <g latexdraw:type="joinedLines" id="id724929564">
            <polyline
                points="780.0,296.0 814.0,235.0 813.0,150.0 813.0,151.0 "
                stroke-width="2.0" stroke="black" fill="none"
                stroke-dasharray="8.819444444444445, 5.291666666666667" latexdraw:rotationAngle="0.0"/>
        </g>
        <g latexdraw:type="joinedLines" id="id1645577460">
            <polyline points="816.0,235.0 898.0,279.0 "
                stroke-width="2.0" stroke="black"
                stroke-dasharray="8.819444444444445, 5.291666666666667" latexdraw:rotationAngle="0.0"/>
        </g>
        <g latexdraw:type="joinedLines" id="id795053109">
            <polyline points="813.0,149.0 826.0,227.0 "
                stroke-width="2.0" stroke="#0000cc"
                latexdraw:rotationAngle="0.0" marker-end="url(#arrow1-795053109)"/>
        </g>
        <g latexdraw:type="text" id="id1963369845" fill="black" latexdraw:position="bl">
            <text x="320.0" y="361.0">Vertices of interest</text>
        </g>
        <g latexdraw:type="text" id="id959240250" fill="black" latexdraw:position="bl">
            <text x="348.0" y="328.0">Tetrahedron of interest</text>
        </g>
        <g latexdraw:type="bezierCurve" id="id1749887831">
            <path
                d="M 410.0 314.0 C 453.0 294.0 455.0 253.0 516.0 264.0 "
                stroke-width="1.0" stroke="black" fill="none"
                latexdraw:rotationAngle="0.0" marker-end="url(#arrow1-1749887831)"/>
        </g>
        <g latexdraw:type="rectangle" id="id1776986536">
            <rect x="129.5" y="21.5" width="833.0" height="378.0"
                latexdraw:borderPos="outer" stroke-width="1.0"
                stroke="white" fill="none"/>
        </g>
        <g latexdraw:type="text" id="id1999942618" fill="black" latexdraw:position="bl">
            <text x="232.0" y="315.0">N$_i$</text>
        </g>
        <g latexdraw:type="text" id="id542856882" fill="black" latexdraw:position="bl">
            <text x="270.0" y="276.0">N$_f$</text>
        </g>
        <g latexdraw:type="text" id="id1863280198" fill="black" latexdraw:position="bl">
            <text x="271.0" y="223.0">N$_c$</text>
        </g>
        <g latexdraw:type="text" id="id321058246" fill="black" latexdraw:position="bl">
            <text x="546.0" y="213.0">N$_c$</text>
        </g>
        <g latexdraw:type="text" id="id1144946325" fill="black" latexdraw:position="bl">
            <text x="551.0" y="271.0">N$_f$</text>
        </g>
        <g latexdraw:type="text" id="id1778210774" fill="black" latexdraw:position="bl">
            <text x="826.0" y="218.0">N$_c$</text>
        </g>
    </g>
    <defs>
        <marker overflow="visible" orient="auto" id="arrow1-1478093212">
            <path
                d="M 0.0 0.0 L -4.652083333333334 1.6614583333333335 L -4.652083333333334 0.0 L -4.652083333333334 -1.6614583333333335 z "
                latexdraw:arrSizeNum="2.0" fill="#ff9900"/>
        </marker>
        <marker overflow="visible" orient="auto" id="arrow1-403227584">
            <path
                d="M 0.0 0.0 L -4.652083333333334 1.6614583333333335 L -4.652083333333334 0.0 L -4.652083333333334 -1.6614583333333335 z "
                latexdraw:arrSizeNum="2.0" fill="#ff9900"/>
        </marker>
        <marker overflow="visible" orient="auto" id="arrow1-1624249958">
            <path
                d="M 0.0 0.0 L -4.652083333333334 1.6614583333333335 L -4.652083333333334 0.0 L -4.652083333333334 -1.6614583333333335 z "
                latexdraw:arrSizeNum="2.0" fill="#ff9900"/>
        </marker>
        <marker overflow="visible" orient="auto" id="arrow1-1811881429">
            <path
                d="M 0.0 0.0 L -4.652083333333334 1.6614583333333335 L -4.652083333333334 0.0 L -4.652083333333334 -1.6614583333333335 z "
                latexdraw:arrSizeNum="2.0" fill="#cc0000"/>
        </marker>
        <marker overflow="visible" orient="auto" id="arrow1-1614821573">
            <path
                d="M 0.0 0.0 L -4.652083333333334 1.6614583333333335 L -4.652083333333334 0.0 L -4.652083333333334 -1.6614583333333335 z "
                latexdraw:arrSizeNum="2.0" fill="#cc0000"/>
        </marker>
        <marker overflow="visible" orient="auto" id="arrow1-795053109">
            <path
                d="M 0.0 0.0 L -4.652083333333334 1.6614583333333335 L -4.652083333333334 0.0 L -4.652083333333334 -1.6614583333333335 z "
                latexdraw:arrSizeNum="2.0" fill="#0000cc"/>
        </marker>
        <marker overflow="visible" orient="auto" id="arrow1-1749887831">
            <path
                d="M 0.0 0.0 L -6.504166666666667 2.322916666666667 L -6.504166666666667 0.0 L -6.504166666666667 -2.322916666666667 z "
                latexdraw:arrSizeNum="2.0" fill="black"/>
        </marker>
    </defs>
    <metadata>
        <latexdraw:metadata>
            <latexdraw:latexIncludes/>
            <latexdraw:displayXScale>true</latexdraw:displayXScale>
            <latexdraw:displayYScale>true</latexdraw:displayYScale>
            <latexdraw:unit>CM</latexdraw:unit>
            <latexdraw:zoom>1.0</latexdraw:zoom>
            <latexdraw:magneticGridStyle>CUSTOMISED</latexdraw:magneticGridStyle>
            <latexdraw:gridGap>20</latexdraw:gridGap>
            <latexdraw:magneticGrid>false</latexdraw:magneticGrid>
            <latexdraw:version>3.3.8</latexdraw:version>
            <latexdraw:size>
                <latexdraw:width>1680</latexdraw:width>
                <latexdraw:height>958</latexdraw:height>
            </latexdraw:size>
            <latexdraw:position>
                <latexdraw:x>0.0</latexdraw:x>
                <latexdraw:y>23.0</latexdraw:y>
            </latexdraw:position>
        </latexdraw:metadata>
    </metadata>
</svg>
