# Blender v2.79 (sub 0) OBJ File: ''
# www.blender.org
o Plane
v -1.000000 -1.000000 0.000000
v -0.195811 0.264367 0.000000
v -1.000000 1.000000 0.000000
v -0.165187 0.359023 0.000000
v 0.001058 1.000000 0.000000
v -1.000000 -0.337770 0.000000
v -1.000000 -0.779257 0.000000
v -1.000000 0.103717 0.000000
v -1.000000 0.545204 0.000000
v -1.000000 -0.558513 0.000000
v -1.000000 0.324460 0.000000
v -1.000000 -0.117026 0.000000
v -0.628080 0.744363 0.000000
v -0.723398 0.647343 0.000000
v -0.879992 0.654151 0.000000
v -1.000000 0.765947 0.000000
v -0.722689 0.869467 0.000000
v -0.880947 0.872148 0.000000
v -0.500000 1.000000 0.000000
v -0.204163 0.448111 0.000000
v -0.750000 1.000000 0.000000
v -0.250000 1.000000 0.000000
v -0.173539 0.553903 0.000000
v -0.237571 0.634640 0.000000
v -0.866096 0.452635 0.000000
v -0.733566 0.451298 0.000000
v -0.650825 0.545860 0.000000
v -0.867923 0.227745 0.000000
v -0.729636 0.226403 0.000000
v -0.628942 0.345894 0.000000
v -0.866756 0.011023 0.000000
v -0.705284 0.013807 0.000000
v -0.610628 0.119599 0.000000
v -0.875108 -0.208913 0.000000
v -0.702499 -0.206129 0.000000
v -0.593923 -0.097553 0.000000
v -0.875108 -0.439985 0.000000
v -0.694147 -0.428849 0.000000
v -0.582787 -0.314705 0.000000
v -0.875108 -0.668273 0.000000
v -0.674659 -0.648785 0.000000
v -0.568867 -0.540209 0.000000
v -0.488131 0.729295 0.000000
v -0.460291 0.640207 0.000000
v -0.499267 0.553903 0.000000
v -0.454723 0.453679 0.000000
v -0.496483 0.359023 0.000000
v -0.443587 0.242095 0.000000
v -0.488131 0.114031 0.000000
v -0.424099 0.011023 0.000000
v -0.499267 -0.103121 0.000000
v -0.390691 -0.206129 0.000000
v -0.463075 -0.303569 0.000000
v -0.410411 -0.434417 0.000000
v -0.470731 -0.534177 0.000000
v -0.362851 -0.654353 0.000000
v -0.465859 -0.746225 0.000000
v -0.605059 -0.746225 0.000000
v 0.000000 -1.000000 0.000000
v -0.187459 0.718159 0.000000
v -0.500000 -1.000000 0.000000
v -0.220867 0.807248 0.000000
v -0.250000 -1.000000 0.000000
v -0.392640 0.817270 0.000000
v -0.750000 -1.000000 0.000000
v 0.000000 0.044783 0.000000
v 0.001058 -0.541031 0.000000
v 0.000000 0.540791 0.000000
v 0.000000 -0.773201 0.000000
v 0.000000 0.303093 0.000000
v 0.000000 -0.330027 0.000000
v 0.000000 0.750000 0.000000
v -0.148483 0.119599 0.000000
v -0.223651 0.019375 0.000000
v -0.156835 -0.100337 0.000000
v -0.212515 -0.186641 0.000000
v -0.179107 -0.300785 0.000000
v -0.218083 -0.406577 0.000000
v -0.142915 -0.888210 0.000000
v -0.218083 -0.654354 0.000000
v -0.131779 -0.529073 0.000000
v 0.805247 0.264367 0.000000
v 0.835871 0.359023 0.000000
v 1.001058 1.000000 0.000000
v 0.000126 -0.141268 0.000000
v 0.372978 0.744363 0.000000
v 0.277660 0.647343 0.000000
v 0.121067 0.654151 0.000000
v 0.278369 0.869467 0.000000
v 0.120111 0.872148 0.000000
v 0.501058 1.000000 0.000000
v 0.796895 0.448111 0.000000
v 0.251058 1.000000 0.000000
v 0.751058 1.000000 0.000000
v 0.827519 0.553903 0.000000
v 0.763487 0.634640 0.000000
v 0.134962 0.452635 0.000000
v 0.267492 0.451298 0.000000
v 0.350234 0.545860 0.000000
v 0.133135 0.227745 0.000000
v 0.271422 0.226403 0.000000
v 0.372117 0.345894 0.000000
v 0.134302 0.011023 0.000000
v 0.295775 0.013807 0.000000
v 0.390431 0.119599 0.000000
v 0.125951 -0.208913 0.000000
v 0.298559 -0.206129 0.000000
v 0.407135 -0.097553 0.000000
v 0.125951 -0.439985 0.000000
v 0.306911 -0.428849 0.000000
v 0.418271 -0.314705 0.000000
v 0.125951 -0.668273 0.000000
v 0.326399 -0.648785 0.000000
v 0.432191 -0.540209 0.000000
v 0.512927 0.729295 0.000000
v 0.540767 0.640207 0.000000
v 0.501791 0.553903 0.000000
v 0.546335 0.453679 0.000000
v 0.504575 0.359023 0.000000
v 0.557471 0.242095 0.000000
v 0.512927 0.114031 0.000000
v 0.576959 0.011023 0.000000
v 0.501791 -0.103121 0.000000
v 0.610367 -0.206129 0.000000
v 0.537983 -0.303569 0.000000
v 0.590647 -0.434417 0.000000
v 0.530327 -0.534177 0.000000
v 0.638207 -0.654353 0.000000
v 0.535199 -0.746225 0.000000
v 0.395999 -0.746225 0.000000
v 1.001058 -1.000000 0.000000
v 0.813599 0.718159 0.000000
v 0.501058 -1.000000 0.000000
v 0.780191 0.807248 0.000000
v 0.751058 -1.000000 0.000000
v 0.608419 0.817270 0.000000
v 0.251058 -1.000000 0.000000
v 1.001058 0.000000 0.000000
v 1.001058 -0.500000 0.000000
v 1.001058 0.500000 0.000000
v 1.001058 -0.750000 0.000000
v 1.001058 0.250000 0.000000
v 1.001058 -0.250000 0.000000
v 1.001058 0.750000 0.000000
v 0.852575 0.119599 0.000000
v 0.777407 0.019375 0.000000
v 0.844223 -0.100337 0.000000
v 0.788543 -0.186641 0.000000
v 0.821951 -0.300785 0.000000
v 0.782975 -0.406577 0.000000
v 0.858143 -0.888210 0.000000
v 0.782975 -0.654354 0.000000
v 0.869279 -0.529073 0.000000
vn 0.0000 0.0000 1.0000
s off
f 1//1 65//1 7//1
f 65//1 61//1 58//1
f 7//1 40//1 10//1
f 7//1 65//1 58//1 41//1 40//1
f 10//1 37//1 6//1
f 37//1 10//1 40//1 41//1 42//1 38//1
f 57//1 58//1 61//1 63//1
f 56//1 57//1 79//1 80//1
f 56//1 55//1 42//1 41//1 58//1 57//1
f 55//1 54//1 53//1 39//1 38//1 42//1
f 6//1 34//1 12//1
f 34//1 6//1 37//1 38//1 39//1 35//1
f 39//1 53//1 52//1 51//1 36//1 35//1
f 12//1 31//1 8//1
f 31//1 12//1 34//1 35//1 36//1 32//1
f 36//1 51//1 50//1 49//1 33//1 32//1
f 8//1 28//1 11//1
f 28//1 8//1 31//1 32//1 33//1 29//1
f 33//1 49//1 48//1 47//1 30//1 29//1
f 11//1 25//1 9//1
f 25//1 11//1 28//1 29//1 30//1 26//1
f 30//1 47//1 46//1 45//1 27//1 26//1
f 9//1 15//1 16//1
f 15//1 9//1 25//1 26//1 27//1 14//1
f 43//1 64//1 19//1 13//1
f 43//1 13//1 14//1 27//1 45//1 44//1
f 17//1 13//1 19//1
f 16//1 18//1 3//1
f 17//1 21//1 18//1
f 17//1 18//1 16//1 15//1 14//1 13//1
f 18//1 21//1 3//1
f 21//1 17//1 19//1
f 23//1 20//1 4//1 70//1 68//1
f 23//1 68//1 72//1 60//1 24//1
f 23//1 24//1 44//1 45//1 46//1 20//1
f 60//1 72//1 5//1 22//1 62//1
f 64//1 62//1 22//1 19//1
f 64//1 43//1 44//1 24//1 60//1 62//1
f 72//1 90//1 5//1
f 5//1 90//1 93//1
f 93//1 90//1 89//1
f 89//1 86//1 91//1
f 88//1 72//1 68//1
f 72//1 88//1 87//1 86//1 89//1 90//1
f 97//1 68//1 70//1
f 97//1 98//1 99//1 87//1 88//1 68//1
f 115//1 136//1 91//1 86//1
f 115//1 86//1 87//1 99//1 117//1 116//1
f 117//1 99//1 98//1 102//1 119//1 118//1
f 100//1 70//1 66//1
f 100//1 101//1 102//1 98//1 97//1 70//1
f 101//1 105//1 121//1 120//1 119//1 102//1
f 82//1 145//1 142//1 83//1
f 83//1 142//1 140//1 95//1 92//1
f 83//1 92//1 118//1 119//1 120//1 82//1
f 95//1 140//1 144//1 132//1 96//1
f 95//1 96//1 116//1 117//1 118//1 92//1
f 132//1 144//1 84//1 94//1 134//1
f 136//1 134//1 94//1 91//1
f 136//1 115//1 116//1 96//1 132//1 134//1
f 146//1 147//1 138//1 145//1
f 146//1 145//1 82//1 120//1 121//1 122//1
f 122//1 121//1 105//1 104//1 108//1 123//1
f 103//1 66//1 85//1
f 103//1 104//1 105//1 101//1 100//1 66//1
f 106//1 85//1 71//1
f 106//1 107//1 108//1 104//1 103//1 85//1
f 107//1 111//1 125//1 124//1 123//1 108//1
f 148//1 149//1 143//1 138//1 147//1
f 148//1 147//1 146//1 122//1 123//1 124//1
f 150//1 153//1 139//1 143//1 149//1
f 150//1 149//1 148//1 124//1 125//1 126//1
f 126//1 125//1 111//1 110//1 114//1 127//1
f 109//1 71//1 67//1
f 109//1 110//1 111//1 107//1 106//1 71//1
f 112//1 67//1 69//1
f 112//1 69//1 137//1 130//1 113//1
f 113//1 114//1 110//1 109//1 67//1 112//1
f 129//1 130//1 133//1 135//1
f 128//1 129//1 151//1 152//1
f 128//1 127//1 114//1 113//1 130//1 129//1
f 152//1 141//1 139//1 153//1
f 152//1 153//1 150//1 126//1 127//1 128//1
f 152//1 151//1 141//1
f 151//1 131//1 141//1
f 131//1 151//1 135//1
f 135//1 151//1 129//1
f 133//1 130//1 137//1
f 137//1 69//1 59//1
f 59//1 69//1 79//1
f 79//1 69//1 80//1
f 80//1 69//1 67//1 81//1
f 81//1 67//1 71//1 77//1 78//1
f 75//1 85//1 66//1
f 75//1 76//1 77//1 71//1 85//1
f 77//1 76//1 52//1 53//1 54//1 78//1
f 74//1 75//1 66//1 73//1
f 75//1 74//1 50//1 51//1 52//1 76//1
f 73//1 70//1 4//1 2//1
f 73//1 2//1 48//1 49//1 50//1 74//1
f 48//1 2//1 4//1 20//1 46//1 47//1
f 73//1 66//1 70//1
f 78//1 54//1 55//1 56//1 80//1 81//1
f 59//1 79//1 63//1
f 63//1 79//1 57//1
f 138//1 142//1 145//1
f 91//1 93//1 89//1
