# Blender v2.76 (sub 0) OBJ File: 'SampleConsole.blend'
# www.blender.org
o Plane
v 5.000000 0.000000 16.000036
v 5.000000 0.000000 0.000000
v -5.000000 0.000000 16.000036
v -5.000000 0.000000 0.000000
v -0.500000 0.000000 4.000000
v -2.500000 0.000000 4.000000
v -2.500000 0.000000 2.000000
v -0.500000 0.000000 2.000000
v 0.500000 0.000000 2.000000
v 0.500000 0.000000 4.000000
v 2.500000 0.000000 4.000000
v 2.500000 0.000000 2.000000
v 0.000000 0.000000 0.000000
v -2.500000 0.000000 0.000000
v -0.500000 0.000000 2.000000
v -2.500000 0.000000 0.000000
v 2.500000 0.000000 0.000000
v -5.000000 0.000000 8.000018
v -5.000000 0.000000 4.000009
v 5.000000 0.000000 8.000018
v 5.000000 0.000000 4.000009
v 0.000000 0.000000 8.000018
v 0.500000 1.000000 4.000000
v 0.500000 1.000000 2.000000
v 2.500000 1.000000 2.000000
v 2.500000 1.000000 4.000000
v -0.500000 1.000000 2.000000
v -0.500000 1.000000 4.000000
v -2.500000 1.000000 2.000000
v -2.500000 1.000000 4.000000
v -3.000000 0.500000 11.000000
v 3.000000 0.500000 11.000000
v 3.000000 0.500000 15.000000
v -3.000000 0.500000 15.000000
v -3.000000 0.000000 11.000000
v 3.000000 0.000000 11.000000
v 3.000000 0.000000 15.000000
v -3.000000 0.000000 15.000000
v 2.500000 0.000000 8.000018
v -0.750000 0.000000 11.000000
v 0.750000 0.000000 11.000000
v -0.750000 0.500000 11.000000
v 0.750000 0.500000 11.000000
v 0.000003 0.000000 10.398437
v -0.165816 0.000000 10.247106
v 0.148114 0.000000 10.250326
v -0.001607 0.000000 10.177880
v 0.750000 0.000000 11.000000
v -0.212503 0.000000 10.322772
v -0.094981 0.000000 10.193979
v 0.091767 0.000000 10.193979
v 0.202850 0.000000 10.317942
v 0.202850 0.499999 10.317942
v 0.091767 0.499999 10.193979
v -0.094981 0.500001 10.193979
v -0.212503 0.500000 10.322772
v 0.000003 0.500002 10.398437
v -0.165816 0.500001 10.247106
v 0.148114 0.500000 10.250326
v -0.001607 0.499999 10.177880
v -0.476453 0.000000 10.000000
v 0.408301 0.000000 10.000000
v -0.034076 0.000000 10.000000
v 5.000000 0.000000 12.000028
v -5.000000 0.000000 12.000028
v 0.000000 0.000000 16.000036
v -2.500000 0.000000 16.000036
v 2.500000 0.000000 16.000036
vt 0.369505 0.825062
vt 0.484481 0.917043
vt 0.369505 0.917043
vt 0.277524 0.825062
vt 0.254529 0.917043
vt 0.231534 0.825062
vt 0.231534 0.733081
vt 0.277524 0.733081
vt 0.139553 0.917043
vt 0.139553 0.825062
vt 0.024577 0.917043
vt 0.484481 0.733080
vt 0.369505 0.733081
vt 0.024577 0.733080
vt 0.139553 0.733081
vt 0.484481 0.549118
vt 0.254529 0.549118
vt 0.139553 0.549118
vt 0.243186 0.100999
vt 0.243186 0.145160
vt 0.220185 0.100999
vt 0.220185 0.145160
vt 0.266187 0.100999
vt 0.266187 0.145160
vt 0.174184 0.189322
vt 0.197185 0.189322
vt 0.174184 0.233483
vt 0.197185 0.233483
vt 0.243186 0.189322
vt 0.220185 0.189322
vt 0.151183 0.145160
vt 0.197185 0.145160
vt 0.151183 0.189322
vt 0.266187 0.189322
vt 0.197185 0.100999
vt 0.151183 0.233483
vt 0.289187 0.100999
vt 0.289187 0.145160
vt 0.151183 0.100999
vt 0.231686 0.233483
vt 0.208685 0.189322
vt 0.231686 0.189322
vt 0.208685 0.233483
vt 0.247717 0.445625
vt 0.245200 0.442516
vt 0.254529 0.438814
vt 0.250309 0.448217
vt 0.254603 0.448957
vt 0.220036 0.411148
vt 0.289022 0.411148
vt 0.262155 0.445774
vt 0.264302 0.442294
vt 0.258897 0.448217
vt 0.245037 0.205882
vt 0.243186 0.201403
vt 0.258874 0.189322
vt 0.258874 0.222443
vt 0.243297 0.210574
vt 0.277687 0.145160
vt 0.289187 0.194842
vt 0.277687 0.194842
vt 0.277687 0.209902
vt 0.289187 0.209902
vt 0.277687 0.224856
vt 0.289187 0.224856
vt 0.276441 0.457138
vt 0.256096 0.457138
vt 0.235751 0.457138
vt 0.392500 0.411148
vt 0.024577 0.549118
vt 0.116558 0.411148
vt 0.243186 0.239003
vt 0.231686 0.239003
vt 0.024577 0.365156
vt 0.116558 0.227186
vt 0.024577 0.181194
vt 0.484481 0.365156
vt 0.392500 0.227186
vt 0.484481 0.181194
vt 0.369505 0.181194
vt 0.254529 0.181194
vt 0.139553 0.181194
vt 0.277687 0.233483
vt 0.266187 0.233483
vt 0.208685 0.100999
vt 0.594802 0.930679
vt 0.594802 0.725367
vt 0.902770 0.930679
vt 0.902770 0.725367
vt 0.000000 0.000000
vn 0.000000 -1.000000 0.000000
vn 1.000000 0.000000 0.000000
vn -1.000000 0.000000 0.000000
vn 0.000000 0.000000 1.000000
vn 0.000000 0.000000 -1.000000
vn 0.783300 0.000000 0.621700
vn -0.780000 0.000000 0.625700
vn 0.851000 0.000000 0.525100
vn 0.600000 0.000000 0.800000
vn 0.169900 0.000000 0.985500
vn -0.169900 0.000000 0.985500
vn -0.707100 0.000000 0.707100
vn -0.777200 0.000000 0.629200
s off
f 7/1/1 4/2/1 16/3/1
f 16/3/1 15/4/1 7/1/1
f 15/4/1 16/3/1 13/5/1
f 15/4/1 13/5/1 9/6/1
f 10/7/1 5/8/1 15/4/1
f 9/6/1 10/7/1 15/4/1
f 13/5/1 17/9/1 9/6/1
f 9/6/1 17/9/1 12/10/1
f 17/9/1 2/11/1 12/10/1
f 7/1/1 19/12/1 4/2/1
f 7/1/1 6/13/1 19/12/1
f 2/11/1 21/14/1 12/10/1
f 12/10/1 21/14/1 11/15/1
f 18/16/1 19/12/1 22/17/1
f 19/12/1 6/13/1 22/17/1
f 6/13/1 5/8/1 22/17/1
f 5/8/1 10/7/1 22/17/1
f 39/18/1 22/17/1 21/14/1
f 22/17/1 10/7/1 21/14/1
f 10/19/2 9/20/2 23/21/2
f 23/21/2 9/20/2 24/22/2
f 11/19/3 26/23/3 12/20/3
f 25/24/3 12/20/3 26/23/3
f 12/25/4 25/26/4 9/27/4
f 24/28/4 9/27/4 25/26/4
f 11/20/5 10/29/5 26/22/5
f 23/30/5 26/22/5 10/29/5
f 26/31/1 23/32/1 25/33/1
f 23/32/1 24/26/1 25/33/1
f 28/24/3 27/34/3 5/20/3
f 5/20/3 27/34/3 15/29/3
f 29/32/1 27/31/1 30/35/1
f 7/25/4 27/36/4 29/33/4
f 7/25/4 15/27/4 27/36/4
f 7/23/2 29/37/2 6/24/2
f 29/37/2 30/38/2 6/24/2
f 28/39/1 30/35/1 27/31/1
f 6/40/5 28/41/5 5/42/5
f 30/43/5 28/41/5 6/40/5
f 46/44/1 52/45/1 44/46/1
f 46/44/1 44/46/1 51/47/1
f 47/48/1 51/47/1 44/46/1
f 41/49/1 40/50/1 44/46/1
f 45/51/1 44/46/1 49/52/1
f 52/45/1 41/49/1 44/46/1
f 49/52/1 44/46/1 40/50/1
f 47/48/1 44/46/1 50/53/1
f 45/51/1 50/53/1 44/46/1
f 57/54/1 53/55/1 43/56/1
f 43/56/1 42/57/1 57/54/1
f 57/54/1 42/57/1 56/58/1
f 40/59/4 42/38/4 31/60/4
f 40/59/4 31/60/4 35/61/4
f 49/62/6 56/63/6 40/64/6
f 42/65/6 40/64/6 56/63/6
f 43/62/7 53/61/7 52/60/7
f 52/60/7 48/63/7 43/62/7
f 49/52/1 61/66/1 45/51/1
f 50/53/1 45/51/1 61/66/1
f 61/66/1 63/67/1 50/53/1
f 50/53/1 63/67/1 47/48/1
f 51/47/1 47/48/1 63/67/1
f 63/67/1 62/68/1 51/47/1
f 51/47/1 62/68/1 46/44/1
f 46/44/1 62/68/1 52/45/1
f 61/66/1 49/52/1 40/50/1
f 48/49/1 52/45/1 62/68/1
f 22/17/1 61/66/1 18/16/1
f 61/66/1 35/69/1 18/16/1
f 35/69/1 61/66/1 40/50/1
f 62/68/1 61/66/1 22/17/1
f 62/68/1 22/17/1 20/70/1
f 36/71/1 62/68/1 20/70/1
f 62/68/1 36/71/1 48/49/1
f 43/72/4 48/73/4 36/42/4
f 32/29/4 43/72/4 36/42/4
f 20/70/1 64/74/1 36/71/1
f 36/71/1 64/74/1 37/75/1
f 64/74/1 1/76/1 37/75/1
f 18/16/1 35/69/1 65/77/1
f 38/78/1 65/77/1 35/69/1
f 65/77/1 38/78/1 3/79/1
f 38/78/1 67/80/1 3/79/1
f 67/80/1 38/78/1 66/81/1
f 38/78/1 37/75/1 66/81/1
f 66/81/1 37/75/1 68/82/1
f 1/76/1 68/82/1 37/75/1
f 34/83/2 38/84/2 35/24/2
f 31/59/2 34/83/2 35/24/2
f 36/41/3 37/85/3 32/30/3
f 32/30/3 37/85/3 33/21/3
f 34/86/1 31/87/1 33/88/1
f 33/88/1 31/87/1 32/89/1
f 34/28/5 33/35/5 37/85/5
f 37/85/5 38/43/5 34/28/5
f 20/70/1 39/18/1 21/14/1
f 57/90/1 56/90/1 58/90/1
f 55/90/1 57/90/1 58/90/1
f 54/90/1 57/90/1 60/90/1
f 60/90/1 57/90/1 55/90/1
f 53/90/1 57/90/1 59/90/1
f 59/90/1 57/90/1 54/90/1
f 49/90/8 45/90/8 56/90/8
f 56/90/8 45/90/8 58/90/8
f 58/90/9 45/90/9 55/90/9
f 45/90/9 50/90/9 55/90/9
f 55/90/10 50/90/10 60/90/10
f 50/90/10 47/90/10 60/90/10
f 60/90/11 47/90/11 54/90/11
f 47/90/11 51/90/11 54/90/11
f 54/90/12 51/90/12 59/90/12
f 51/90/12 46/90/12 59/90/12
f 46/90/13 52/90/13 59/90/13
f 59/90/13 52/90/13 53/90/13
l 14 4
l 7 8
l 5 8
l 13 14
l 7 14
l 8 15
l 14 16
l 41 36
