# Blender v2.79 (sub 0) OBJ File: ''
# www.blender.org
o Plane_Plane.003
v -4.000000 -4.000000 1.000000
v 4.000000 -4.000000 1.000000
v -4.000000 4.000000 1.000000
v 4.000000 4.000000 1.000000
v -3.000000 -3.000000 1.000000
v 3.000000 -3.000000 1.000000
v -3.000000 3.000000 1.000000
v 3.000000 3.000000 1.000000
v -4.000000 0.000000 1.000000
v 0.000000 -4.000000 1.000000
v 4.000000 0.000000 1.000000
v 0.000000 4.000000 1.000000
v 3.500000 -3.500000 1.000000
v 0.000000 -3.000000 1.000000
v -3.000000 0.000000 1.000000
v 3.000000 0.000000 1.000000
v 0.000000 3.000000 1.000000
v -3.500000 3.500000 1.000000
v -0.500000 -3.500000 1.000000
v -3.500000 0.500000 1.000000
v -3.500000 -3.500000 1.000000
v 3.500000 0.500000 1.000000
v 0.500000 3.500000 1.000000
v 3.500000 3.500000 1.000000
v -4.000000 -2.000000 1.000000
v 2.000000 -4.000000 1.000000
v 4.000000 2.000000 1.000000
v -2.000000 4.000000 1.000000
v 3.750000 -3.750000 1.000000
v -1.500000 -3.000000 1.000000
v -3.000000 1.500000 1.000000
v 3.000000 -1.500000 1.000000
v 1.500000 3.000000 1.000000
v -3.250000 3.250000 1.000000
v -2.250000 -3.750000 1.000000
v -3.250000 -1.250000 1.000000
v -3.750000 -3.750000 1.000000
v 3.250000 -1.250000 1.000000
v 2.250000 3.750000 1.000000
v 3.250000 3.250000 1.000000
v -4.000000 2.000000 1.000000
v -2.000000 -4.000000 1.000000
v 4.000000 -2.000000 1.000000
v 2.000000 4.000000 1.000000
v 3.250000 -3.250000 1.000000
v 1.500000 -3.000000 1.000000
v -3.000000 -1.500000 1.000000
v 3.000000 1.500000 1.000000
v -1.500000 3.000000 1.000000
v -3.750000 3.750000 1.000000
v 1.250000 -3.250000 1.000000
v -3.750000 2.250000 1.000000
v -3.250000 -3.250000 1.000000
v 3.750000 2.250000 1.000000
v -1.250000 3.250000 1.000000
v 3.750000 3.750000 1.000000
v 3.500000 2.000000 1.000000
v 3.250000 1.750000 1.000000
v 3.250000 0.250000 1.000000
v -1.500000 3.500000 1.000000
v 0.250000 3.750000 1.000000
v -1.750000 3.750000 1.000000
v 3.750000 0.250000 1.000000
v 3.500000 -1.500000 1.000000
v 3.750000 -1.750000 1.000000
v -1.750000 -3.250000 1.000000
v -2.000000 -3.500000 1.000000
v -0.250000 -3.250000 1.000000
v -3.500000 2.000000 1.000000
v -3.250000 0.250000 1.000000
v -3.250000 1.750000 1.000000
v 1.500000 -3.500000 1.000000
v -0.250000 -3.750000 1.000000
v 1.750000 -3.750000 1.000000
v 1.750000 3.250000 1.000000
v 2.000000 3.500000 1.000000
v 0.250000 3.250000 1.000000
v -3.750000 -1.750000 1.000000
v -3.500000 -1.500000 1.000000
v -3.750000 0.250000 1.000000
vn 0.0000 0.0000 1.0000
s off
f 5//1 36//1 53//1
f 4//1 39//1 56//1
f 1//1 42//1 35//1
f 5//1 47//1 36//1
f 1//1 35//1 37//1
f 6//1 45//1 38//1
f 4//1 44//1 39//1
f 8//1 48//1 40//1
f 24//1 57//1 56//1
f 24//1 58//1 57//1
f 16//1 32//1 59//1
f 23//1 60//1 55//1
f 23//1 61//1 60//1
f 12//1 28//1 62//1
f 22//1 63//1 54//1
f 22//1 64//1 63//1
f 13//1 29//1 65//1
f 21//1 66//1 53//1
f 21//1 67//1 66//1
f 19//1 51//1 68//1
f 20//1 69//1 52//1
f 20//1 70//1 69//1
f 15//1 31//1 71//1
f 19//1 72//1 51//1
f 19//1 73//1 72//1
f 10//1 26//1 74//1
f 24//1 75//1 40//1
f 24//1 76//1 75//1
f 23//1 55//1 77//1
f 21//1 78//1 37//1
f 21//1 79//1 78//1
f 20//1 52//1 80//1
f 80//1 41//1 9//1
f 80//1 52//1 41//1
f 52//1 3//1 41//1
f 78//1 80//1 9//1
f 78//1 79//1 80//1
f 79//1 20//1 80//1
f 37//1 25//1 1//1
f 37//1 78//1 25//1
f 78//1 9//1 25//1
f 77//1 49//1 17//1
f 77//1 55//1 49//1
f 55//1 7//1 49//1
f 75//1 77//1 17//1
f 75//1 76//1 77//1
f 76//1 23//1 77//1
f 40//1 33//1 8//1
f 40//1 75//1 33//1
f 75//1 17//1 33//1
f 74//1 29//1 13//1
f 74//1 26//1 29//1
f 26//1 2//1 29//1
f 72//1 74//1 13//1
f 72//1 73//1 74//1
f 73//1 10//1 74//1
f 51//1 45//1 6//1
f 51//1 72//1 45//1
f 72//1 13//1 45//1
f 71//1 34//1 18//1
f 71//1 31//1 34//1
f 31//1 7//1 34//1
f 69//1 71//1 18//1
f 69//1 70//1 71//1
f 70//1 15//1 71//1
f 52//1 50//1 3//1
f 52//1 69//1 50//1
f 69//1 18//1 50//1
f 68//1 46//1 14//1
f 68//1 51//1 46//1
f 51//1 6//1 46//1
f 66//1 68//1 14//1
f 66//1 67//1 68//1
f 67//1 19//1 68//1
f 53//1 30//1 5//1
f 53//1 66//1 30//1
f 66//1 14//1 30//1
f 65//1 43//1 11//1
f 65//1 29//1 43//1
f 29//1 2//1 43//1
f 63//1 65//1 11//1
f 63//1 64//1 65//1
f 64//1 13//1 65//1
f 54//1 27//1 4//1
f 54//1 63//1 27//1
f 63//1 11//1 27//1
f 62//1 50//1 18//1
f 62//1 28//1 50//1
f 28//1 3//1 50//1
f 60//1 62//1 18//1
f 60//1 61//1 62//1
f 61//1 12//1 62//1
f 55//1 34//1 7//1
f 55//1 60//1 34//1
f 60//1 18//1 34//1
f 59//1 38//1 22//1
f 59//1 32//1 38//1
f 32//1 6//1 38//1
f 57//1 59//1 22//1
f 57//1 58//1 59//1
f 58//1 16//1 59//1
f 56//1 54//1 4//1
f 56//1 57//1 54//1
f 57//1 22//1 54//1
f 40//1 58//1 24//1
f 40//1 48//1 58//1
f 48//1 16//1 58//1
f 39//1 61//1 23//1
f 39//1 44//1 61//1
f 44//1 12//1 61//1
f 38//1 64//1 22//1
f 38//1 45//1 64//1
f 45//1 13//1 64//1
f 37//1 67//1 21//1
f 37//1 35//1 67//1
f 35//1 19//1 67//1
f 36//1 70//1 20//1
f 36//1 47//1 70//1
f 47//1 15//1 70//1
f 35//1 73//1 19//1
f 35//1 42//1 73//1
f 42//1 10//1 73//1
f 56//1 76//1 24//1
f 56//1 39//1 76//1
f 39//1 23//1 76//1
f 53//1 79//1 21//1
f 53//1 36/55/1 79//1
f 36//1 20//1 79//1
