# Blender v2.79 (sub 0) OBJ File: ''
# www.blender.org
o Plane_Plane.000
v -1.581972 -3.839747 2.020172
v -2.522976 -2.466939 1.424430
v -1.704624 -4.160524 2.104187
v 1.852298 5.142006 -0.332252
v 0.379966 4.166757 -0.253964
v 1.729645 4.821229 -0.248237
v -2.072582 -5.122855 2.356233
v -0.273010 -4.250225 2.363868
v -0.600250 -4.147605 2.277944
v -2.195736 -2.569559 1.510355
v -1.949929 -4.802078 2.272217
v 3.816744 -1.221857 2.043079
v 4.143984 -1.324476 2.129003
v 3.325632 0.369109 1.449246
v 0.052726 4.269376 -0.339888
v 1.361688 3.858898 0.003809
v 1.975452 2.588709 0.513626
v 1.484340 4.179675 -0.080207
v 1.606993 4.500452 -0.164222
v 2.220757 3.230263 0.345596
v 2.098104 2.909486 0.429611
v 2.589216 1.318521 1.023444
v 3.202980 0.048332 1.533261
v 2.711868 1.639297 0.939428
v -1.092365 3.191507 -0.175675
v -2.891937 2.318877 -0.183311
v -2.564697 2.216258 -0.097387
v -1.419606 3.294126 -0.261599
v -1.746846 3.396746 -0.347523
v -3.546418 2.524116 -0.355159
v -3.219177 2.421496 -0.269235
v 2.834521 1.960074 0.855413
v 3.161761 1.857455 0.941337
v 2.343409 3.551040 0.261581
v 3.652873 0.266489 1.535170
v 4.471225 -1.427096 2.214927
v 4.798465 -1.529715 2.300851
v 3.980113 0.163870 1.621094
v -1.827277 -4.481301 2.188202
v -0.354945 -3.506052 2.109914
v -0.477598 -3.826829 2.193929
v 0.872081 -3.172356 2.199655
v 2.344412 -2.197107 2.121367
v 0.994734 -2.851579 2.115640
v -3.463981 -1.094131 0.828689
v -4.077745 0.176058 0.318871
v -4.404985 0.278677 0.232947
v -3.136740 -1.196750 0.914613
v -2.809500 -1.299370 1.000537
v -3.423264 -0.029181 0.490719
v -3.750504 0.073439 0.404795
v 2.671653 -2.299726 2.207291
v 1.199321 -3.274975 2.285580
v 1.526562 -3.377595 2.371504
v 3.326134 -2.504965 2.379139
v 2.998893 -2.402345 2.293215
v 0.134661 3.525203 -0.085933
v 0.257314 3.845980 -0.169948
v -1.215018 2.870730 -0.091660
v -2.768281 -3.108493 1.592461
v -2.645629 -2.787716 1.508446
v -3.586633 -1.414908 0.912704
v -4.527637 -0.042099 0.316962
v -3.709286 -1.735685 0.996719
v -5.345990 1.651485 -0.362794
v -2.890934 -3.429270 1.676476
v -2.687349 1.895481 -0.013372
v -1.337670 2.549953 -0.007645
v -4.037028 1.241008 -0.019098
v 0.012009 3.204426 -0.001918
v 5.125706 -1.632335 2.386775
v -4.364268 1.343627 -0.105022
v -4.691509 1.446247 -0.190946
v -5.018749 1.548866 -0.276870
v 2.467065 -1.876330 2.037352
v 1.117386 -2.530802 2.031625
v -0.232293 -3.185275 2.025899
v 4.307354 0.061250 1.707018
v 3.489002 1.754836 1.027261
v 2.670650 3.448421 0.347505
vn -0.1515 0.3043 0.9405
s 1
f 1//1 2//1 3//1
f 4//1 5//1 6//1
f 7//1 8//1 9//1
f 1//1 10//1 2//1
f 7//1 9//1 11//1
f 12//1 13//1 14//1
f 4//1 15//1 5//1
f 16//1 17//1 18//1
f 19//1 20//1 6//1
f 19//1 21//1 20//1
f 22//1 23//1 24//1
f 25//1 26//1 27//1
f 25//1 28//1 26//1
f 29//1 30//1 31//1
f 32//1 33//1 34//1
f 32//1 35//1 33//1
f 36//1 37//1 38//1
f 39//1 40//1 3//1
f 39//1 41//1 40//1
f 42//1 43//1 44//1
f 45//1 46//1 47//1
f 45//1 48//1 46//1
f 49//1 50//1 51//1
f 42//1 52//1 43//1
f 42//1 53//1 52//1
f 54//1 55//1 56//1
f 19//1 57//1 18//1
f 19//1 58//1 57//1
f 25//1 27//1 59//1
f 39//1 60//1 11//1
f 39//1 61//1 60//1
f 45//1 47//1 62//1
f 62//1 63//1 64//1
f 62//1 47//1 63//1
f 47//1 65//1 63//1
f 60//1 62//1 64//1
f 60//1 61//1 62//1
f 61//1 45//1 62//1
f 11//1 66//1 7//1
f 11//1 60//1 66//1
f 60//1 64//1 66//1
f 59//1 67//1 68//1
f 59//1 27//1 67//1
f 27//1 69//1 67//1
f 57//1 59//1 68//1
f 57//1 58//1 59//1
f 58//1 25//1 59//1
f 18//1 70//1 16//1
f 18//1 57//1 70//1
f 57//1 68//1 70//1
f 56//1 37//1 36//1
f 56//1 55//1 37//1
f 55//1 71//1 37//1
f 52//1 56//1 36//1
f 52//1 53//1 56//1
f 53//1 54//1 56//1
f 43//1 13//1 12//1
f 43//1 52//1 13//1
f 52//1 36//1 13//1
f 51//1 72//1 73//1
f 51//1 50//1 72//1
f 50//1 69//1 72//1
f 46//1 51//1 73//1
f 46//1 48//1 51//1
f 48//1 49//1 51//1
f 47//1 74//1 65//1
f 47//1 46//1 74//1
f 46//1 73//1 74//1
f 44//1 75//1 76//1
f 44//1 43//1 75//1
f 43//1 12//1 75//1
f 40//1 44//1 76//1
f 40//1 41//1 44//1
f 41//1 42//1 44//1
f 3//1 77//1 1//1
f 3//1 40//1 77//1
f 40//1 76//1 77//1
f 38//1 78//1 79//1
f 38//1 37//1 78//1
f 37//1 71//1 78//1
f 33//1 38//1 79//1
f 33//1 35//1 38//1
f 35//1 36//1 38//1
f 34//1 80//1 4//1
f 34//1 33//1 80//1
f 33//1 79//1 80//1
f 31//1 74//1 73//1
f 31//1 30//1 74//1
f 30//1 65//1 74//1
f 26//1 31//1 73//1
f 26//1 28//1 31//1
f 28//1 29//1 31//1
f 27//1 72//1 69//1
f 27//1 26//1 72//1
f 26//1 73//1 72//1
f 24//1 14//1 32//1
f 24//1 23//1 14//1
f 23//1 12//1 14//1
f 20//1 24//1 32//1
f 20//1 21//1 24//1
f 21//1 22//1 24//1
f 6//1 34//1 4//1
f 6//1 20//1 34//1
f 20//1 32//1 34//1
f 18//1 21//1 19//1
f 18//1 17//1 21//1
f 17//1 22//1 21//1
f 5//1 28//1 25//1
f 5//1 15//1 28//1
f 15//1 29//1 28//1
f 14//1 35//1 32//1
f 14//1 13//1 35//1
f 13//1 36//1 35//1
f 11//1 41//1 39//1
f 11//1 9//1 41//1
f 9//1 42//1 41//1
f 2//1 48//1 45//1
f 2//1 10//1 48//1
f 10//1 49//1 48//1
f 9//1 53//1 42//1
f 9//1 8//1 53//1
f 8//1 54//1 53//1
f 6//1 58//1 19//1
f 6//1 5//1 58//1
f 5//1 25//1 58//1
f 3//1 61//1 39//1
f 3//1 2//1 61//1
f 2//1 45//1 61//1
