# Blender v2.76 (sub 0) OBJ File: 'TestSurface1.blend'
# www.blender.org
mtllib TestSurface1.mtl
o Plane
v -4.000000 -4.000000 0.000000
v 4.000000 -4.000000 0.000000
v -4.000000 4.000000 0.000000
v 4.000000 4.000000 0.000000
v -4.000000 -6.000000 -2.000000
v 4.000000 -6.000000 -2.000000
v 4.000000 6.000000 2.000000
v -4.000000 6.000000 2.000000
vn 0.000000 0.000000 1.000000
vn 0.000000 -0.707100 0.707100
usemtl None
s off
f 4//1 1//1 2//1
f 3//1 1//1 4//1
f 2//2 5//2 6//2
f 2//2 1//2 5//2
f 3//2 4//2 7//2
f 7//2 8//2 3//2
