# Blender v2.79 (sub 0) OBJ File: ''
# www.blender.org
o Plane
v -20.000000 -20.000000 0.000000
v 20.000000 -20.000000 0.000000
v -20.000000 20.000000 0.000000
v 20.000000 20.000000 0.000000
v -10.567614 -10.341662 0.000004
v -10.706662 12.253562 0.000008
v -4.520560 12.392611 0.000008
v -4.172941 -10.411185 0.000008
v -4.346750 8.585411 0.000008
v -4.259846 -7.279806 0.000008
v 10.011423 -7.491186 0.000008
v 9.733327 8.568805 0.000008
v -10.637138 8.531524 0.000006
v -10.602377 -7.402124 0.000005
v -20.000000 -7.435355 0.000000
v -20.000000 -10.273048 0.000000
v -20.000000 8.474646 0.000000
v -20.000000 12.417519 0.000000
v -4.595316 20.000000 0.000000
v -10.695234 20.000000 0.000000
v 10.000000 20.000000 0.000000
v 9.866663 12.372454 0.000004
v 9.733326 -10.758802 0.000008
v -10.706663 -19.796896 0.000004
v -3.893331 -19.866419 0.000004
v 10.219995 -19.727369 0.000004
v 20.161896 -10.341662 0.000000
v 19.883802 -7.421662 0.000000
v 19.814276 8.499281 0.000004
v 19.466656 12.462135 0.000004
v -20.000000 -15.136524 0.000000
v -15.353332 -19.898449 0.000002
v 20.080948 -15.170832 0.000000
v -15.347616 20.000000 0.000000
v -10.671900 10.392543 0.000007
v -7.613611 12.323086 0.000008
v -4.433655 10.489011 0.000008
v -7.370277 -10.376424 0.000006
v -4.216393 -8.845495 0.000008
v -4.303298 0.652803 0.000008
v 2.875789 -7.385496 0.000008
v 9.872375 0.538809 0.000008
v 2.693288 8.577108 0.000008
v -10.619757 0.564700 0.000005
v -10.584995 -8.871893 0.000004
v -7.491944 8.558468 0.000007
v -7.431111 -7.340965 0.000006
v -20.000000 0.519645 0.000000
v -20.000000 -8.854202 0.000000
v -20.000000 10.446082 0.000000
v -15.283806 -10.307355 0.000002
v -15.301188 -7.418740 0.000002
v -15.318569 8.503085 0.000003
v -20.000000 16.208759 0.000000
v -15.353332 12.335541 0.000004
v 2.702342 20.000000 0.000000
v -7.645276 20.000000 0.000000
v 15.000000 20.000000 0.000000
v -10.700949 16.126781 0.000004
v -4.557938 16.196306 0.000004
v 9.933331 16.186226 0.000002
v 9.799995 10.470629 0.000006
v 2.673052 12.382531 0.000006
v 2.780193 -10.584993 0.000008
v 9.872375 -9.124994 0.000008
v -7.299997 -19.831657 0.000004
v 3.163332 -19.796894 0.000004
v -10.637138 -15.069280 0.000004
v -4.033136 -15.138803 0.000006
v 9.976661 -15.243087 0.000006
v 15.109997 -19.863684 0.000002
v 20.022850 -8.881662 0.000000
v 19.849039 0.538809 0.000002
v 19.640467 10.480708 0.000004
v 19.733330 16.231068 0.000002
v 14.666660 12.417295 0.000004
v 14.773800 8.534042 0.000006
v 14.947613 -7.456424 0.000004
v 14.947611 -10.550232 0.000004
v -15.309878 0.542172 0.000003
v 2.784539 0.595806 0.000008
v -7.461528 0.608751 0.000006
v -7.629443 16.161543 0.000004
v -15.350474 16.167770 0.000002
v -15.318569 -15.102901 0.000002
v -15.292497 -8.863048 0.000002
v 14.860706 0.538809 0.000005
v -7.400694 -8.858694 0.000006
v -15.335951 10.419312 0.000003
v 15.028803 -15.206958 0.000003
v -7.335137 -15.104041 0.000005
v 14.720230 10.475669 0.000005
v 2.971762 -15.190944 0.000006
v 14.947613 -9.003328 0.000004
v 2.687697 16.191265 0.000003
v 14.833330 16.208647 0.000002
v 2.827991 -8.985245 0.000008
v 2.683170 10.479820 0.000007
v -7.552777 10.440777 0.000007
vn -0.0000 -0.0000 1.0000
s off
f 99//1 37//1 7//1 36//1
f 98//1 62//1 22//1 63//1
f 97//1 41//1 10//1 39//1
f 96//1 76//1 30//1 75//1
f 52//1 80//1 48//1 15//1
f 95//1 63//1 22//1 61//1
f 94//1 78//1 11//1 65//1
f 93//1 69//1 25//1 67//1
f 92//1 74//1 30//1 76//1
f 91//1 68//1 24//1 66//1
f 90//1 70//1 26//1 71//1
f 89//1 50//1 17//1 53//1
f 88//1 39//1 10//1 47//1
f 87//1 73//1 29//1 77//1
f 86//1 49//1 16//1 51//1
f 85//1 32//1 24//1 68//1
f 84//1 54//1 18//1 55//1
f 83//1 57//1 20//1 59//1
f 82//1 47//1 10//1 40//1
f 81//1 42//1 12//1 43//1
f 59//1 84//1 55//1 6//1
f 44//1 14//1 47//1 82//1
f 10//1 41//1 81//1 40//1
f 46//1 82//1 40//1 9//1
f 14//1 44//1 80//1 52//1
f 51//1 85//1 68//1 5//1
f 44//1 13//1 53//1 80//1
f 41//1 11//1 42//1 81//1
f 40//1 81//1 43//1 9//1
f 36//1 83//1 59//1 6//1
f 13//1 44//1 82//1 46//1
f 34//1 3//1 54//1 84//1
f 60//1 19//1 57//1 83//1
f 16//1 31//1 85//1 51//1
f 14//1 52//1 86//1 45//1
f 20//1 34//1 84//1 59//1
f 52//1 15//1 49//1 86//1
f 31//1 1//1 32//1 85//1
f 45//1 86//1 51//1 5//1
f 7//1 60//1 83//1 36//1
f 80//1 53//1 17//1 48//1
f 42//1 87//1 77//1 12//1
f 11//1 78//1 87//1 42//1
f 78//1 28//1 73//1 87//1
f 45//1 88//1 47//1 14//1
f 5//1 38//1 88//1 45//1
f 38//1 8//1 39//1 88//1
f 35//1 89//1 53//1 13//1
f 6//1 55//1 89//1 35//1
f 55//1 18//1 50//1 89//1
f 33//1 90//1 71//1 2//1
f 27//1 79//1 90//1 33//1
f 79//1 23//1 70//1 90//1
f 69//1 91//1 66//1 25//1
f 8//1 38//1 91//1 69//1
f 38//1 5//1 68//1 91//1
f 62//1 92//1 76//1 22//1
f 12//1 77//1 92//1 62//1
f 77//1 29//1 74//1 92//1
f 70//1 93//1 67//1 26//1
f 23//1 64//1 93//1 70//1
f 64//1 8//1 69//1 93//1
f 79//1 94//1 65//1 23//1
f 27//1 72//1 94//1 79//1
f 72//1 28//1 78//1 94//1
f 56//1 95//1 61//1 21//1
f 19//1 60//1 95//1 56//1
f 60//1 7//1 63//1 95//1
f 58//1 96//1 75//1 4//1
f 21//1 61//1 96//1 58//1
f 61//1 22//1 76//1 96//1
f 64//1 97//1 39//1 8//1
f 23//1 65//1 97//1 64//1
f 65//1 11//1 41//1 97//1
f 37//1 98//1 63//1 7//1
f 9//1 43//1 98//1 37//1
f 43//1 12//1 62//1 98//1
f 35//1 99//1 36//1 6//1
f 13//1 46//1 99//1 35//1
f 46//1 9//1 37//1 99//1
