# Blender 3.4.1
# www.blender.org
mtllib TempBlendA.mtl
o Grid
v -1.000000 -1.000000 0.000000
v 0.000000 -1.000000 0.000000
v 1.000000 -1.000000 0.000000
v -1.000000 0.000000 0.000000
v 0.000000 0.000000 0.000000
v 1.000000 0.000000 0.000000
v -1.000000 1.000000 0.000000
v 0.000000 1.000000 0.000000
v 1.000000 1.000000 0.000000
vn -0.0000 -0.0000 1.0000
s 0
usemtl Material1
f 4//1 5//1 8//1 7//1
usemtl Material2
f 5//1 6//1 9//1 8//1
usemtl Material3
f 2//1 3//1 6//1 5//1
usemtl Material4
f 1//1 2//1 5//1 4//1
o BndryFront
v -1.000000 -1.000000 0.000000
v 0.000000 -1.000000 0.000000
v 1.000000 -1.000000 0.000000
l 11 10
l 12 11
o BndryLeft
v -1.000000 -1.000000 0.000000
v -1.000000 0.000000 0.000000
v -1.000000 1.000000 0.000000
l 13 14
l 14 15
o BndryBack
v -1.000000 1.000000 0.000000
v 0.000000 1.000000 0.000000
v 1.000000 1.000000 0.000000
l 16 17
l 17 18
o BndryRight
v 1.000000 -1.000000 0.000000
v 1.000000 0.000000 0.000000
v 1.000000 1.000000 0.000000
l 20 19
l 21 20
